M48
; DRILL file {KiCad 8.0.4} date 2024-08-24T14:43:58+0200
; FORMAT={-:-/ absolute / metric / decimal}
; #@! TF.CreationDate,2024-08-24T14:43:58+02:00
; #@! TF.GenerationSoftware,Kicad,Pcbnew,8.0.4
; #@! TF.FileFunction,Plated,1,4,PTH
FMAT,2
METRIC
; #@! TA.AperFunction,Plated,PTH,ViaDrill
T1C0.300
; #@! TA.AperFunction,Plated,PTH,ComponentDrill
T2C0.300
; #@! TA.AperFunction,Plated,PTH,ViaDrill
T3C0.400
; #@! TA.AperFunction,Plated,PTH,ComponentDrill
T4C0.600
; #@! TA.AperFunction,Plated,PTH,ComponentDrill
T5C0.750
; #@! TA.AperFunction,Plated,PTH,ComponentDrill
T6C0.800
; #@! TA.AperFunction,Plated,PTH,ComponentDrill
T7C1.000
; #@! TA.AperFunction,Plated,PTH,ComponentDrill
T8C1.500
; #@! TA.AperFunction,Plated,PTH,ComponentDrill
T9C1.700
%
G90
G05
T1
X1.6Y54.7
X1.7Y29.5
X1.9Y35.6
X1.9Y18.7
X2.087Y71.3
X2.6Y32.9
X2.6Y25.681
X2.625Y40.515
X2.625Y12.575
X2.625Y10.035
X2.9Y43.8
X3.5Y67.3
X3.5Y65.7
X3.6Y30.5
X3.68Y64.0
X3.9Y69.5
X4.0Y49.4
X4.1Y48.5
X4.3Y47.4
X4.9Y41.5
X4.9Y18.7
X5.165Y43.055
X6.1Y51.6
X6.2Y12.7
X6.2Y11.6
X6.4Y59.7
X6.8Y39.5
X6.8Y10.2
X7.05Y76.25
X7.1Y64.5
X7.4Y3.7
X7.705Y17.655
X7.8Y7.7
X7.8Y6.0
X8.2Y74.75
X8.3Y3.7
X9.5Y6.0
X9.6Y7.7
X9.7Y30.25
X10.245Y78.615
X10.245Y22.735
X10.8Y67.0
X11.0Y74.3
X11.0Y51.2
X11.2Y59.4
X11.6Y7.7
X11.6Y6.7
X12.0Y64.0
X12.2Y51.8
X12.6Y62.6
X12.6Y32.2
X12.7Y39.1
X12.785Y73.535
X12.785Y22.735
X12.785Y17.655
X12.785Y15.115
X12.785Y12.575
X13.1Y46.6
X13.6Y59.4
X13.7Y37.7
X14.076Y67.124
X14.4Y31.85
X14.7Y9.2
X15.325Y76.075
X15.325Y73.535
X15.325Y70.995
X15.325Y68.455
X15.325Y25.275
X15.325Y12.575
X15.6Y4.7
X16.2Y51.8
X16.8Y57.0
X17.1Y38.3
X17.3Y78.2
X17.865Y25.275
X17.865Y22.735
X17.865Y2.415
X18.5Y34.5
X18.6Y46.3
X18.8Y11.2
X18.9Y18.0
X19.0Y8.7
X19.0Y7.2
X19.25Y43.1
X19.7Y11.1
X20.0Y34.5
X20.1Y3.2
X20.15Y72.3
X20.15Y44.4
X20.3Y74.5
X20.4Y8.7
X20.4Y7.2
X20.405Y25.275
X20.405Y22.735
X20.405Y20.195
X20.405Y17.655
X20.5Y76.1
X21.1Y29.5
X21.6Y73.5
X21.6Y34.6
X22.55Y56.0
X23.15Y60.75
X23.3Y42.7
X23.8Y55.0
X24.25Y31.15
X24.5Y77.4
X24.7Y69.7
X24.75Y59.5
X25.0Y65.5
X25.2Y18.5
X25.485Y50.675
X25.485Y45.595
X25.5Y16.9
X25.9Y29.2
X26.5Y8.0
X27.375Y60.075
X27.4Y63.1
X27.8Y21.6
X28.025Y50.675
X28.025Y48.135
X28.025Y45.595
X28.8Y39.6
X29.0Y18.775
X30.5Y18.675
X30.565Y37.975
X30.565Y35.435
X30.565Y30.355
X30.7Y78.0
X30.9Y72.4
X31.1Y6.7
X31.7Y68.8
X31.7Y33.2
X31.8Y26.2
X32.2Y51.5
X32.806Y49.1
X33.105Y12.575
X33.625Y5.241
X34.0Y77.5
X34.0Y76.6
X34.269Y78.306
X34.65Y64.55
X34.8Y14.5
X35.0Y78.906
X35.4Y72.4
X35.8Y12.0
X36.0Y21.137
X36.2Y55.6
X36.8Y73.0
X37.0Y7.1
X37.25Y70.3
X37.4Y49.1
X37.5Y46.9
X37.5Y21.113
X37.5Y15.5
X37.5Y11.8
X37.7Y72.6
X38.5Y26.9
X38.6Y74.0
X39.0Y62.3
T2
X11.3Y71.7
X11.3Y70.3
X12.0Y72.4
X12.0Y70.95
X12.0Y69.55
X12.65Y71.7
X12.7Y70.3
X13.4Y72.4
X13.4Y71.0
X13.4Y69.59
X14.1Y71.65
X14.1Y70.3
T3
X3.2Y35.5
X5.05Y2.05
X7.2Y78.4
X7.375Y27.05
X8.5Y1.5
X9.445Y15.445
X9.7Y62.7
X10.4Y15.4
X11.3Y2.2
X11.4Y1.1
X21.4Y78.71
X22.1Y5.4
X23.1Y3.7
X24.6Y6.0
X24.7Y40.8
X30.875Y10.325
X31.0Y1.7
X33.95Y57.05
X34.179Y6.4
X34.45Y28.65
X39.025Y56.95
T5
X28.5Y44.0
X30.5Y44.0
T6
X33.9Y39.5
X37.1Y39.5
T7
X29.0Y34.04
X29.0Y31.5
X34.5Y34.04
X34.5Y31.5
T8
X2.5Y37.6
X5.5Y37.6
X8.5Y37.6
T9
X1.7Y14.6
X10.2Y33.4
X11.1Y24.9
X14.9Y2.1
X16.5Y17.0
X24.5Y25.0
X24.5Y11.5
X25.3Y2.9
X33.9Y21.8
T4
G00X33.62Y10.32
M15
G01X32.52Y10.32
M16
G05
G00X33.62Y1.68
M15
G01X32.52Y1.68
M16
G05
G00X37.65Y10.32
M15
G01X36.85Y10.32
M16
G05
G00X37.65Y1.68
M15
G01X36.85Y1.68
M16
G05
M30
