%TF.GenerationSoftware,KiCad,Pcbnew,8.0.4*%
%TF.CreationDate,2024-08-24T14:44:17+02:00*%
%TF.ProjectId,BarbelMotionTracker-V1,42617262-656c-44d6-9f74-696f6e547261,rev?*%
%TF.SameCoordinates,PX7bfa480PY7735940*%
%TF.FileFunction,Legend,Bot*%
%TF.FilePolarity,Positive*%
%FSLAX46Y46*%
G04 Gerber Fmt 4.6, Leading zero omitted, Abs format (unit mm)*
G04 Created by KiCad (PCBNEW 8.0.4) date 2024-08-24 14:44:17*
%MOMM*%
%LPD*%
G01*
G04 APERTURE LIST*
%ADD10C,0.150000*%
%ADD11C,0.120000*%
%ADD12C,0.200000*%
%ADD13C,0.250000*%
%ADD14C,0.100000*%
%ADD15C,0.325000*%
G04 APERTURE END LIST*
D10*
X19721495Y63567274D02*
X20621940Y63456713D01*
X19012500Y63330048D02*
X19721495Y63567274D01*
X16200001Y61706250D02*
X18075004Y61706250D01*
X16200001Y61706250D02*
G75*
G02*
X18075001Y64953843I3749989J4D01*
G01*
X19012500Y63330048D02*
X18075001Y64953843D01*
X18610968Y63018750D02*
G75*
G02*
X19278059Y63456715I1339102J-1312640D01*
G01*
X17799793Y67307731D02*
X19278060Y63456713D01*
X16950002Y66902399D02*
G75*
G02*
X17799793Y67307731I2999553J-5195182D01*
G01*
X17812502Y65408507D02*
X16950002Y66902399D01*
X15675002Y61706250D02*
G75*
G02*
X17812502Y65408507I4274981J9D01*
G01*
X13950003Y61706250D02*
X15675002Y61706250D01*
X14023873Y60767644D02*
G75*
G02*
X13950003Y61706250I5925126J938528D01*
G01*
X18098085Y61412935D02*
X14023873Y60767644D01*
X18098085Y61412935D02*
G75*
G02*
X18075004Y61706250I1851495J293260D01*
G01*
X13736594Y59068816D02*
X18224054Y60973630D01*
X13736594Y59068816D02*
G75*
G02*
X13430003Y63453278I6213353J2637430D01*
G01*
X12705558Y63647393D02*
X13430003Y63453278D01*
X18008857Y54461807D02*
G75*
G02*
X12705558Y63647393I1941139J7244440D01*
G01*
X18202972Y55186253D02*
X18008857Y54461807D01*
X18202972Y55186253D02*
G75*
G02*
X14559212Y57644000I1746996J6519950D01*
G01*
X18452560Y60577848D02*
X14559212Y57644000D01*
X18452560Y60577848D02*
G75*
G02*
X18224054Y60973630I1497235J1128289D01*
G01*
X21824999Y58458657D02*
X20887499Y60082453D01*
X21824999Y58458657D02*
G75*
G02*
X18075000Y58458656I-1875000J3247580D01*
G01*
X19012501Y60082453D02*
X18075000Y58458656D01*
X19012501Y60082453D02*
G75*
G02*
X18770025Y60249102I937220J1623392D01*
G01*
X16174078Y57043374D02*
X18770025Y60249102D01*
X16950000Y56510099D02*
G75*
G02*
X16174078Y57043374I2999941J5196078D01*
G01*
X17812501Y58003994D02*
X16950000Y56510099D01*
X22087499Y58003991D02*
G75*
G02*
X17812501Y58003994I-2137496J3702248D01*
G01*
X22950001Y56510097D02*
X22087499Y58003991D01*
X23725921Y57043375D02*
G75*
G02*
X22950001Y56510097I-3775957J4662900D01*
G01*
X21129974Y60249103D02*
X23725921Y57043375D01*
X21129974Y60249103D02*
G75*
G02*
X20887499Y60082453I-1179574J1456547D01*
G01*
X21150000Y62606250D02*
X21000000Y62606250D01*
X21150000Y60806250D02*
X21150000Y62606250D01*
X21000000Y60806250D02*
X21150000Y60806250D01*
X21000000Y60393750D02*
X21000000Y60806250D01*
X20700000Y60393750D02*
X21000000Y60393750D01*
X20700000Y60806250D02*
X20700000Y60393750D01*
X20400000Y60806250D02*
X20700000Y60806250D01*
X20400000Y60393750D02*
X20400000Y60806250D01*
X20100000Y60393750D02*
X20400000Y60393750D01*
X20100000Y60806250D02*
X20100000Y60393750D01*
X19800000Y60806250D02*
X20100000Y60806250D01*
X19800000Y60393750D02*
X19800000Y60806250D01*
X19500000Y60393750D02*
X19800000Y60393750D01*
X19500000Y60806250D02*
X19500000Y60393750D01*
X19200000Y60806250D02*
X19500000Y60806250D01*
X19200000Y60393750D02*
X19200000Y60806250D01*
X18900000Y60393750D02*
X19200000Y60393750D01*
X18900000Y60806250D02*
X18900000Y60393750D01*
X18750000Y60806250D02*
X18900000Y60806250D01*
X18750000Y62606250D02*
X18750000Y60806250D01*
X18900000Y62606250D02*
X18750000Y62606250D01*
X18900000Y63018750D02*
X18900000Y62606250D01*
X19200000Y63018750D02*
X18610968Y63018750D01*
X19200000Y62606250D02*
X19200000Y63018750D01*
X19500000Y62606250D02*
X19200000Y62606250D01*
X19500000Y63018750D02*
X19500000Y62606250D01*
X19800000Y63018750D02*
X19500000Y63018750D01*
X19800000Y62606250D02*
X19800000Y63018750D01*
X20100000Y62606250D02*
X19800000Y62606250D01*
X20100000Y63018750D02*
X20100000Y62606250D01*
X20400000Y63018750D02*
X20100000Y63018750D01*
X20400000Y62606250D02*
X20400000Y63018750D01*
X20700000Y62606250D02*
X20400000Y62606250D01*
X20700000Y63018750D02*
X20700000Y62606250D01*
X21000000Y63018750D02*
X20700000Y63018750D01*
X21000000Y62606250D02*
X21000000Y63018750D01*
X20925000Y62193750D02*
G75*
G02*
X20550000Y62193750I-187500J0D01*
G01*
X20550000Y62193750D02*
G75*
G02*
X20925000Y62193750I187500J0D01*
G01*
X25340788Y57644000D02*
X21447441Y60577848D01*
X25340788Y57644000D02*
G75*
G02*
X21697028Y55186253I-5390764J4062215D01*
G01*
X21891143Y54461807D02*
X21697028Y55186253D01*
X27194442Y63647392D02*
G75*
G02*
X21891143Y54461806I-7244438J-1941146D01*
G01*
X26469996Y63453279D02*
X27194442Y63647392D01*
X26469996Y63453279D02*
G75*
G02*
X26163406Y59068816I-6519955J-1747033D01*
G01*
X21675946Y60973630D02*
X26163406Y59068816D01*
X21675946Y60973630D02*
G75*
G02*
X21447439Y60577850I-1725746J732520D01*
G01*
X21824999Y64953844D02*
X20887499Y63330046D01*
X21824999Y64953844D02*
G75*
G02*
X23699995Y61706250I-1874989J-3247584D01*
G01*
X21824998Y61706250D02*
X23699997Y61706250D01*
X21824998Y61706250D02*
G75*
G02*
X21801915Y61412935I-1874578J-40D01*
G01*
X25876128Y60767643D02*
X21801915Y61412935D01*
X25949998Y61706250D02*
G75*
G02*
X25876128Y60767643I-5999348J-50D01*
G01*
X24224999Y61706250D02*
X25949998Y61706250D01*
X22087499Y65408507D02*
G75*
G02*
X24224994Y61706250I-2137489J-3702247D01*
G01*
X22949998Y66902399D02*
X22087499Y65408507D01*
X22100207Y67307731D02*
G75*
G02*
X22949999Y66902401I-2150207J-5601481D01*
G01*
X20621940Y63456713D02*
X22100207Y67307731D01*
X20621940Y63456713D02*
G75*
G02*
X20887500Y63330048I-671840J-1750263D01*
G01*
X20772618Y68405936D02*
X20178505Y63567273D01*
X20772618Y68405936D02*
G75*
G02*
X24722968Y66479218I-822608J-6699656D01*
G01*
X25253300Y67009550D02*
X24722969Y66479219D01*
X14646702Y67009548D02*
G75*
G02*
X25253300Y67009550I5303300J-5303289D01*
G01*
X15177030Y66479220D02*
X14646702Y67009548D01*
X15177030Y66479220D02*
G75*
G02*
X19127382Y68405935I4772958J-4772948D01*
G01*
X19721495Y63567274D02*
X19127382Y68405935D01*
X19721495Y63567274D02*
G75*
G02*
X20178505Y63567273I228501J-1860953D01*
G01*
X25060078Y33425000D02*
G75*
G02*
X24739922Y33425000I-160078J0D01*
G01*
X24739922Y33425000D02*
G75*
G02*
X25060078Y33425000I160078J0D01*
G01*
X14508704Y35651500D02*
G75*
G02*
X14195296Y35651500I-156704J0D01*
G01*
X14195296Y35651500D02*
G75*
G02*
X14508704Y35651500I156704J0D01*
G01*
X30863220Y42211134D02*
X30101316Y42211134D01*
X30482268Y41830181D02*
X30482268Y42592086D01*
X28763220Y42211134D02*
X28001316Y42211134D01*
D11*
%TO.C,C6*%
X3359420Y30010000D02*
X3640580Y30010000D01*
X3359420Y28990000D02*
X3640580Y28990000D01*
%TO.C,R40*%
X13212742Y29172500D02*
X13687258Y29172500D01*
X13212742Y28127500D02*
X13687258Y28127500D01*
%TO.C,TP8*%
X26300000Y14600000D02*
G75*
G02*
X24900000Y14600000I-700000J0D01*
G01*
X24900000Y14600000D02*
G75*
G02*
X26300000Y14600000I700000J0D01*
G01*
%TO.C,R8*%
X21837742Y3022500D02*
X22312258Y3022500D01*
X21837742Y1977500D02*
X22312258Y1977500D01*
%TO.C,R4*%
X24677500Y20562742D02*
X24677500Y21037258D01*
X25722500Y20562742D02*
X25722500Y21037258D01*
%TO.C,R22*%
X4377500Y23587742D02*
X4377500Y24062258D01*
X5422500Y23587742D02*
X5422500Y24062258D01*
%TO.C,C15*%
X35490000Y23078080D02*
X35490000Y22796920D01*
X36510000Y23078080D02*
X36510000Y22796920D01*
%TO.C,R45*%
X15262742Y8522500D02*
X15737258Y8522500D01*
X15262742Y7477500D02*
X15737258Y7477500D01*
%TO.C,R19*%
X1377500Y23587742D02*
X1377500Y24062258D01*
X2422500Y23587742D02*
X2422500Y24062258D01*
D12*
%TO.C,IC3*%
X2075000Y33575000D02*
X2075000Y34625000D01*
X2100000Y33225000D02*
X5000000Y33225000D01*
X2100000Y32375000D02*
X2100000Y33225000D01*
X5000000Y33225000D02*
X5000000Y32375000D01*
X5000000Y32375000D02*
X2100000Y32375000D01*
D11*
%TO.C,J4*%
X26440000Y50360000D02*
X26440000Y42540000D01*
X26440000Y42540000D02*
X27360000Y42540000D01*
X27200000Y48100000D02*
X27200000Y46500000D01*
X27200000Y46500000D02*
X28200000Y46500000D01*
X27360000Y44140000D02*
X26440000Y44140000D01*
X27360000Y44140000D02*
X27640000Y44140000D01*
X27360000Y42540000D02*
X27360000Y44140000D01*
X27640000Y42925000D02*
X27640000Y44140000D01*
X27700000Y50360000D02*
X27700000Y48100000D01*
X28200000Y50360000D02*
X28200000Y48100000D01*
X28200000Y48100000D02*
X27200000Y48100000D01*
X28200000Y46500000D02*
X28200000Y48100000D01*
X29000000Y46000000D02*
X29000000Y50360000D01*
X30000000Y50360000D02*
X30000000Y46000000D01*
X30000000Y46000000D02*
X29000000Y46000000D01*
X30800000Y48100000D02*
X31800000Y48100000D01*
X30800000Y46500000D02*
X30800000Y48100000D01*
X31360000Y44140000D02*
X31640000Y44140000D01*
X31640000Y44140000D02*
X31640000Y42540000D01*
X31640000Y44140000D02*
X32560000Y44140000D01*
X31640000Y42540000D02*
X32560000Y42540000D01*
X31800000Y48100000D02*
X31800000Y46500000D01*
X31800000Y46500000D02*
X30800000Y46500000D01*
X32560000Y50360000D02*
X26440000Y50360000D01*
X32560000Y42540000D02*
X32560000Y50360000D01*
%TO.C,TP2*%
X38600000Y45800000D02*
G75*
G02*
X37200000Y45800000I-700000J0D01*
G01*
X37200000Y45800000D02*
G75*
G02*
X38600000Y45800000I700000J0D01*
G01*
%TO.C,C18*%
X29990000Y20715580D02*
X29990000Y20434420D01*
X31010000Y20715580D02*
X31010000Y20434420D01*
%TO.C,R6*%
X22312258Y1522500D02*
X21837742Y1522500D01*
X22312258Y477500D02*
X21837742Y477500D01*
%TO.C,R20*%
X35477500Y25925242D02*
X35477500Y26399758D01*
X36522500Y25925242D02*
X36522500Y26399758D01*
%TO.C,R21*%
X36977500Y25900242D02*
X36977500Y26374758D01*
X38022500Y25900242D02*
X38022500Y26374758D01*
D12*
%TO.C,Q2*%
X21050000Y15300000D02*
X23950000Y15300000D01*
X21050000Y14900000D02*
X21050000Y15300000D01*
X23950000Y15300000D02*
X23950000Y14900000D01*
X23950000Y14900000D02*
X21050000Y14900000D01*
X24000000Y14550000D02*
X24000000Y13450000D01*
D11*
%TO.C,TP7*%
X18500000Y36800000D02*
G75*
G02*
X17100000Y36800000I-700000J0D01*
G01*
X17100000Y36800000D02*
G75*
G02*
X18500000Y36800000I700000J0D01*
G01*
%TO.C,C38*%
X7988748Y13010000D02*
X9411252Y13010000D01*
X7988748Y11190000D02*
X9411252Y11190000D01*
%TO.C,R12*%
X477500Y33262742D02*
X477500Y33737258D01*
X1522500Y33262742D02*
X1522500Y33737258D01*
D12*
%TO.C,L1*%
X525000Y7250000D02*
X525000Y1550000D01*
X5725000Y1550000D02*
X5725000Y7250000D01*
D11*
%TO.C,R5*%
X26177500Y18862742D02*
X26177500Y19337258D01*
X27222500Y18862742D02*
X27222500Y19337258D01*
%TO.C,C36*%
X8559420Y10710000D02*
X8840580Y10710000D01*
X8559420Y9690000D02*
X8840580Y9690000D01*
%TO.C,C26*%
X17990000Y32815580D02*
X17990000Y32534420D01*
X19010000Y32815580D02*
X19010000Y32534420D01*
D13*
%TO.C,IC2*%
X22250000Y9950000D02*
G75*
G02*
X22000000Y9950000I-125000J0D01*
G01*
X22000000Y9950000D02*
G75*
G02*
X22250000Y9950000I125000J0D01*
G01*
D11*
%TO.C,R24*%
X28477500Y23562742D02*
X28477500Y24037258D01*
X29522500Y23562742D02*
X29522500Y24037258D01*
%TO.C,C37*%
X9211252Y3060000D02*
X7788748Y3060000D01*
X9211252Y340000D02*
X7788748Y340000D01*
%TO.C,C4*%
X22665000Y6061252D02*
X22665000Y5538748D01*
X24135000Y6061252D02*
X24135000Y5538748D01*
%TO.C,C13*%
X2890000Y20740580D02*
X2890000Y20459420D01*
X3910000Y20740580D02*
X3910000Y20459420D01*
%TO.C,C25*%
X19490000Y32815580D02*
X19490000Y32534420D01*
X20510000Y32815580D02*
X20510000Y32534420D01*
%TO.C,C14*%
X1390000Y20740580D02*
X1390000Y20459420D01*
X2410000Y20740580D02*
X2410000Y20459420D01*
D12*
%TO.C,J1*%
X35850000Y10470000D02*
X34600000Y10470000D01*
X35850000Y1530000D02*
X34600000Y1530000D01*
X38570000Y1530000D02*
X39850000Y1530000D01*
X39850000Y10470000D02*
X38570000Y10470000D01*
X31350000Y9250000D02*
G75*
G02*
X31150000Y9250000I-100000J0D01*
G01*
X31150000Y9250000D02*
G75*
G02*
X31350000Y9250000I100000J0D01*
G01*
D11*
%TO.C,C16*%
X36990000Y23053080D02*
X36990000Y22771920D01*
X38010000Y23053080D02*
X38010000Y22771920D01*
%TO.C,C24*%
X22859420Y30010000D02*
X23140580Y30010000D01*
X22859420Y28990000D02*
X23140580Y28990000D01*
%TO.C,R41*%
X30090000Y31027064D02*
X30090000Y29572936D01*
X31910000Y31027064D02*
X31910000Y29572936D01*
%TO.C,C19*%
X28490000Y20715580D02*
X28490000Y20434420D01*
X29510000Y20715580D02*
X29510000Y20434420D01*
%TO.C,R7*%
X18137258Y5052500D02*
X17662742Y5052500D01*
X18137258Y4007500D02*
X17662742Y4007500D01*
D12*
%TO.C,IC1*%
X27480000Y4350000D02*
X26280000Y4350000D01*
X27830000Y7412000D02*
X28430000Y7412000D01*
X27830000Y4488000D02*
X27830000Y7412000D01*
X28430000Y7412000D02*
X28430000Y4488000D01*
X28430000Y4488000D02*
X27830000Y4488000D01*
D11*
%TO.C,R16*%
X2877500Y23587742D02*
X2877500Y24062258D01*
X3922500Y23587742D02*
X3922500Y24062258D01*
D14*
%TO.C,IC7*%
X21500000Y33925000D02*
X22200000Y33925000D01*
X21500000Y33675000D02*
X21500000Y33925000D01*
X21500000Y31675000D02*
X21500000Y31425000D01*
X21500000Y31425000D02*
X22200000Y31425000D01*
X23800000Y33925000D02*
X24500000Y33925000D01*
X23800000Y31425000D02*
X24500000Y31425000D01*
X24500000Y33925000D02*
X24500000Y33675000D01*
X24500000Y31425000D02*
X24500000Y31575000D01*
X24900000Y33475000D02*
X24900000Y33475000D01*
X24900000Y33375000D02*
X24900000Y33375000D01*
X24900000Y33475000D02*
G75*
G02*
X24900000Y33375000I0J-50000D01*
G01*
X24900000Y33375000D02*
G75*
G02*
X24900000Y33475000I0J50000D01*
G01*
D12*
%TO.C,U4*%
X11800000Y31016500D02*
X11800000Y33716500D01*
X15200000Y33716500D02*
X15200000Y31016500D01*
X14383000Y35682500D02*
G75*
G02*
X14321000Y35682500I-31000J0D01*
G01*
X14321000Y35682500D02*
G75*
G02*
X14383000Y35682500I31000J0D01*
G01*
D11*
%TO.C,C5*%
X20759420Y4810000D02*
X21040580Y4810000D01*
X20759420Y3790000D02*
X21040580Y3790000D01*
%TO.C,R1*%
X28977500Y9262742D02*
X28977500Y9737258D01*
X30022500Y9262742D02*
X30022500Y9737258D01*
%TO.C,R38*%
X15590000Y33402064D02*
X15590000Y31947936D01*
X17410000Y33402064D02*
X17410000Y31947936D01*
%TO.C,R9*%
X21537742Y12972500D02*
X22012258Y12972500D01*
X21537742Y11927500D02*
X22012258Y11927500D01*
%TO.C,TP6*%
X16500000Y14600000D02*
G75*
G02*
X15100000Y14600000I-700000J0D01*
G01*
X15100000Y14600000D02*
G75*
G02*
X16500000Y14600000I700000J0D01*
G01*
%TO.C,TP4*%
X38600000Y55600000D02*
G75*
G02*
X37200000Y55600000I-700000J0D01*
G01*
X37200000Y55600000D02*
G75*
G02*
X38600000Y55600000I700000J0D01*
G01*
%TO.C,C17*%
X4390000Y20740580D02*
X4390000Y20459420D01*
X5410000Y20740580D02*
X5410000Y20459420D01*
%TO.C,TP1*%
X1900000Y10200000D02*
G75*
G02*
X500000Y10200000I-700000J0D01*
G01*
X500000Y10200000D02*
G75*
G02*
X1900000Y10200000I700000J0D01*
G01*
%TO.C,R13*%
X36977500Y13437742D02*
X36977500Y13912258D01*
X38022500Y13437742D02*
X38022500Y13912258D01*
%TO.C,R2*%
X28977500Y2162742D02*
X28977500Y2637258D01*
X30022500Y2162742D02*
X30022500Y2637258D01*
%TO.C,R11*%
X35477500Y13912258D02*
X35477500Y13437742D01*
X36522500Y13912258D02*
X36522500Y13437742D01*
D12*
%TO.C,Q1*%
X17550000Y15300000D02*
X20450000Y15300000D01*
X17550000Y14900000D02*
X17550000Y15300000D01*
X20450000Y15300000D02*
X20450000Y14900000D01*
X20450000Y14900000D02*
X17550000Y14900000D01*
X20500000Y14550000D02*
X20500000Y13450000D01*
D11*
%TO.C,R47*%
X25977500Y32912258D02*
X25977500Y32437742D01*
X27022500Y32912258D02*
X27022500Y32437742D01*
%TO.C,R43*%
X32477500Y29737258D02*
X32477500Y29262742D01*
X33522500Y29737258D02*
X33522500Y29262742D01*
%TO.C,R10*%
X18737258Y12972500D02*
X18262742Y12972500D01*
X18737258Y11927500D02*
X18262742Y11927500D01*
%TO.C,R23*%
X29977500Y23562742D02*
X29977500Y24037258D01*
X31022500Y23562742D02*
X31022500Y24037258D01*
D15*
%TO.C,IC5*%
X6937500Y9200500D02*
G75*
G02*
X6612500Y9200500I-162500J0D01*
G01*
X6612500Y9200500D02*
G75*
G02*
X6937500Y9200500I162500J0D01*
G01*
%TD*%
M02*
