%TF.GenerationSoftware,KiCad,Pcbnew,8.0.4*%
%TF.CreationDate,2024-08-24T14:44:17+02:00*%
%TF.ProjectId,BarbelMotionTracker-V1,42617262-656c-44d6-9f74-696f6e547261,rev?*%
%TF.SameCoordinates,PX7bfa480PY7735940*%
%TF.FileFunction,Copper,L3,Inr*%
%TF.FilePolarity,Positive*%
%FSLAX46Y46*%
G04 Gerber Fmt 4.6, Leading zero omitted, Abs format (unit mm)*
G04 Created by KiCad (PCBNEW 8.0.4) date 2024-08-24 14:44:17*
%MOMM*%
%LPD*%
G01*
G04 APERTURE LIST*
G04 Aperture macros list*
%AMRoundRect*
0 Rectangle with rounded corners*
0 $1 Rounding radius*
0 $2 $3 $4 $5 $6 $7 $8 $9 X,Y pos of 4 corners*
0 Add a 4 corners polygon primitive as box body*
4,1,4,$2,$3,$4,$5,$6,$7,$8,$9,$2,$3,0*
0 Add four circle primitives for the rounded corners*
1,1,$1+$1,$2,$3*
1,1,$1+$1,$4,$5*
1,1,$1+$1,$6,$7*
1,1,$1+$1,$8,$9*
0 Add four rect primitives between the rounded corners*
20,1,$1+$1,$2,$3,$4,$5,0*
20,1,$1+$1,$4,$5,$6,$7,0*
20,1,$1+$1,$6,$7,$8,$9,0*
20,1,$1+$1,$8,$9,$2,$3,0*%
G04 Aperture macros list end*
%TA.AperFunction,ComponentPad*%
%ADD10C,1.550000*%
%TD*%
%TA.AperFunction,ComponentPad*%
%ADD11C,0.700000*%
%TD*%
%TA.AperFunction,ComponentPad*%
%ADD12C,2.250000*%
%TD*%
%TA.AperFunction,ComponentPad*%
%ADD13R,1.300000X1.300000*%
%TD*%
%TA.AperFunction,ComponentPad*%
%ADD14C,1.300000*%
%TD*%
%TA.AperFunction,ComponentPad*%
%ADD15C,2.450000*%
%TD*%
%TA.AperFunction,ComponentPad*%
%ADD16RoundRect,0.250000X-0.350000X-0.625000X0.350000X-0.625000X0.350000X0.625000X-0.350000X0.625000X0*%
%TD*%
%TA.AperFunction,ComponentPad*%
%ADD17O,1.200000X1.750000*%
%TD*%
%TA.AperFunction,ComponentPad*%
%ADD18O,2.100000X1.000000*%
%TD*%
%TA.AperFunction,ComponentPad*%
%ADD19RoundRect,0.250000X-0.650000X0.250000X-0.650000X-0.250000X0.650000X-0.250000X0.650000X0.250000X0*%
%TD*%
%TA.AperFunction,ViaPad*%
%ADD20C,0.700000*%
%TD*%
%TA.AperFunction,ViaPad*%
%ADD21C,0.900000*%
%TD*%
G04 APERTURE END LIST*
D10*
%TO.N,Analog-Hand-SENS*%
%TO.C,IC9*%
X34500000Y31500000D03*
%TO.N,GND*%
X34500000Y34040000D03*
X29000000Y34040000D03*
%TO.N,Net-(IC9-ANODE)*%
X29000000Y31500000D03*
%TD*%
D11*
%TO.N,GND*%
%TO.C,U1*%
X11300000Y71700000D03*
X11300000Y70300000D03*
X12000000Y72400000D03*
X12000000Y70950000D03*
X12000000Y69550000D03*
X12650000Y71700000D03*
X12700000Y70300000D03*
X13400000Y72400000D03*
X13400000Y71000000D03*
X13400000Y69590000D03*
X14100000Y71650000D03*
X14100000Y70300000D03*
%TD*%
D12*
%TO.N,After_PowerSwitch_BAT+*%
%TO.C,SW1*%
X8500000Y37600000D03*
%TO.N,BAT+*%
X5500000Y37600000D03*
%TO.N,unconnected-(SW1-Pad3)*%
X2500000Y37600000D03*
%TD*%
D13*
%TO.N,Net-(D1-K)*%
%TO.C,U3*%
X33900000Y39500000D03*
D14*
%TO.N,Net-(D1-A)*%
X37100000Y39500000D03*
%TD*%
D15*
%TO.N,GND*%
%TO.C,ENC1*%
X14900000Y2100000D03*
%TO.N,Button_DOWN-S2*%
X25300000Y2900000D03*
%TO.N,Encoder-A*%
X24500000Y11500000D03*
%TO.N,Button_CENTER-S1*%
X16500000Y17000000D03*
%TO.N,Button_RIGHT-S3*%
X33900000Y21800000D03*
%TO.N,Encoder-B*%
X24500000Y25000000D03*
%TO.N,GND*%
X11100000Y24900000D03*
%TO.N,Button_LEFT-S5*%
X1700000Y14600000D03*
%TO.N,Button-UP-S4*%
X10200000Y33400000D03*
%TD*%
D16*
%TO.N,GND*%
%TO.C,J4*%
X28500000Y44000000D03*
D17*
%TO.N,BAT+*%
X30500000Y44000000D03*
%TD*%
D18*
%TO.N,unconnected-(J1-SHELL_GND-PadSH1)_1*%
%TO.C,J1*%
X33070000Y10320000D03*
%TO.N,unconnected-(J1-SHELL_GND-PadSH1)*%
X33070000Y1680000D03*
D19*
%TO.N,unconnected-(J1-SHELL_GND-PadSH1)_3*%
X37250000Y10320000D03*
%TO.N,unconnected-(J1-SHELL_GND-PadSH1)_2*%
X37250000Y1680000D03*
%TD*%
D20*
%TO.N,GND*%
X28025000Y45595000D03*
X11000000Y51200000D03*
X7400000Y3700000D03*
X34000000Y76600000D03*
X9600000Y7700000D03*
D21*
X9700000Y62700000D03*
X7200000Y78400000D03*
D20*
X29000000Y18775000D03*
D21*
X11300000Y2200000D03*
D20*
X34000000Y77500000D03*
X1600000Y54700000D03*
D21*
X21400000Y78710000D03*
D20*
X37500000Y21112500D03*
X16800000Y57000000D03*
X18500000Y34500000D03*
X2625000Y10035000D03*
X17865000Y2415000D03*
D21*
X30875000Y10325000D03*
D20*
X20000000Y34500000D03*
X10245000Y22735000D03*
X19000000Y7200000D03*
X4900000Y18700000D03*
X33105000Y12575000D03*
X30500000Y18675000D03*
X15325000Y73535000D03*
X19000000Y8700000D03*
X17865000Y25275000D03*
X12785000Y73535000D03*
D21*
X11400000Y1100000D03*
D20*
X21100000Y29500000D03*
X25485000Y45595000D03*
X37400000Y49100000D03*
X37500000Y15500000D03*
X31700000Y68800000D03*
X30565000Y35435000D03*
X15325000Y70995000D03*
X34650000Y64550000D03*
X9500000Y6000000D03*
X6200000Y11600000D03*
X12785000Y17655000D03*
X6800000Y10200000D03*
D21*
X23100000Y3700000D03*
D20*
X28025000Y48135000D03*
D21*
X31000000Y1700000D03*
D20*
X15325000Y76075000D03*
X7800000Y7700000D03*
X6100000Y51600000D03*
D21*
X3200000Y35500000D03*
D20*
X39000000Y62300000D03*
X4100000Y48500000D03*
X6200000Y12700000D03*
X20405000Y22735000D03*
X37250000Y70300000D03*
X10245000Y78615000D03*
X11600000Y7700000D03*
X20400000Y8700000D03*
X7800000Y6000000D03*
X12600000Y32200000D03*
X4000000Y49400000D03*
X8300000Y3700000D03*
X7705000Y17655000D03*
X22550000Y56000000D03*
X1700000Y29500000D03*
X5165000Y43055000D03*
X14400000Y31850000D03*
X1900000Y18700000D03*
D21*
X24600000Y6000000D03*
D20*
X28025000Y50675000D03*
X26500000Y8000000D03*
X15325000Y12575000D03*
X25485000Y50675000D03*
X20100000Y3200000D03*
X30565000Y37975000D03*
X20400000Y7200000D03*
X2087500Y71300000D03*
X2625000Y40515000D03*
X20405000Y20195000D03*
X12785000Y22735000D03*
X36000000Y21137500D03*
X18600000Y46300000D03*
X20405000Y17655000D03*
X30565000Y30355000D03*
X24750000Y59500000D03*
X20405000Y25275000D03*
X17865000Y22735000D03*
X12785000Y12575000D03*
X1900000Y35600000D03*
X14700000Y9200000D03*
X2625000Y12575000D03*
X11600000Y6700000D03*
X16200000Y51800000D03*
X15325000Y25275000D03*
X15325000Y68455000D03*
X12785000Y15115000D03*
X23800000Y55000000D03*
X28800000Y39600000D03*
X2900000Y43800000D03*
%TD*%
%TA.AperFunction,Conductor*%
%TO.N,GND*%
G36*
X39004842Y79699024D02*
G01*
X39126764Y79687015D01*
X39145794Y79683230D01*
X39151133Y79681610D01*
X39258354Y79649085D01*
X39276285Y79641658D01*
X39380022Y79586209D01*
X39396158Y79575427D01*
X39487083Y79500807D01*
X39500806Y79487084D01*
X39575426Y79396159D01*
X39586208Y79380023D01*
X39641657Y79276286D01*
X39649084Y79258355D01*
X39683228Y79145797D01*
X39687014Y79126763D01*
X39699023Y79004843D01*
X39699500Y78995139D01*
X39699500Y57132968D01*
X39680593Y57074777D01*
X39631093Y57038813D01*
X39569907Y57038813D01*
X39520407Y57074777D01*
X39510447Y57091841D01*
X39450377Y57223372D01*
X39450377Y57223373D01*
X39356128Y57332143D01*
X39356127Y57332144D01*
X39356126Y57332145D01*
X39235057Y57409951D01*
X39235054Y57409953D01*
X39235053Y57409953D01*
X39235050Y57409954D01*
X39096964Y57450500D01*
X39096961Y57450500D01*
X38953039Y57450500D01*
X38953035Y57450500D01*
X38814949Y57409954D01*
X38814942Y57409951D01*
X38693873Y57332145D01*
X38599622Y57223372D01*
X38539834Y57092457D01*
X38519353Y56950003D01*
X38519353Y56949998D01*
X38539834Y56807544D01*
X38599622Y56676629D01*
X38599623Y56676627D01*
X38693872Y56567857D01*
X38693873Y56567856D01*
X38722436Y56549500D01*
X38814947Y56490047D01*
X38921403Y56458789D01*
X38953035Y56449501D01*
X38953036Y56449501D01*
X38953039Y56449500D01*
X38953041Y56449500D01*
X39096959Y56449500D01*
X39096961Y56449500D01*
X39235053Y56490047D01*
X39356128Y56567857D01*
X39450377Y56676627D01*
X39510165Y56807543D01*
X39510164Y56807543D01*
X39510447Y56808160D01*
X39551819Y56853237D01*
X39611786Y56865388D01*
X39667442Y56839970D01*
X39697528Y56786693D01*
X39699500Y56767033D01*
X39699500Y1004862D01*
X39699023Y995158D01*
X39687014Y873238D01*
X39683228Y854204D01*
X39649084Y741646D01*
X39641657Y723715D01*
X39586208Y619978D01*
X39575426Y603842D01*
X39500806Y512917D01*
X39487083Y499194D01*
X39396158Y424574D01*
X39380022Y413792D01*
X39276285Y358343D01*
X39258354Y350916D01*
X39145796Y316772D01*
X39126763Y312986D01*
X39020719Y302541D01*
X39004841Y300977D01*
X38995139Y300500D01*
X15201937Y300500D01*
X15143746Y319407D01*
X15107782Y368907D01*
X15107782Y430093D01*
X15143746Y479593D01*
X15178826Y495765D01*
X15403706Y549755D01*
X15640013Y647636D01*
X15640025Y647642D01*
X15858097Y781277D01*
X15858103Y781282D01*
X15957256Y865968D01*
X15406846Y1416378D01*
X15441844Y1439762D01*
X15560238Y1558156D01*
X15583622Y1593154D01*
X16134032Y1042744D01*
X16218718Y1141897D01*
X16218723Y1141903D01*
X16352358Y1359975D01*
X16352364Y1359987D01*
X16450245Y1596294D01*
X16450246Y1596294D01*
X16509957Y1845010D01*
X16530024Y2100000D01*
X16509957Y2354991D01*
X16450245Y2603707D01*
X16352364Y2840014D01*
X16352358Y2840026D01*
X16315606Y2900000D01*
X23769783Y2900000D01*
X23788622Y2660622D01*
X23844677Y2427136D01*
X23936565Y2205299D01*
X23936571Y2205287D01*
X24062022Y2000569D01*
X24062032Y2000556D01*
X24188856Y1852064D01*
X24217973Y1817973D01*
X24217979Y1817968D01*
X24217982Y1817965D01*
X24359176Y1697374D01*
X24400561Y1662028D01*
X24400563Y1662027D01*
X24400568Y1662023D01*
X24605286Y1536572D01*
X24605296Y1536567D01*
X24822726Y1446504D01*
X24827135Y1444678D01*
X24827137Y1444677D01*
X25060621Y1388623D01*
X25300000Y1369783D01*
X25539379Y1388623D01*
X25772863Y1444677D01*
X25994704Y1536567D01*
X25994708Y1536570D01*
X25994713Y1536572D01*
X26199431Y1662023D01*
X26199431Y1662024D01*
X26199439Y1662028D01*
X26312797Y1758845D01*
X31719500Y1758845D01*
X31719500Y1601156D01*
X31750263Y1446504D01*
X31750263Y1446502D01*
X31810603Y1300826D01*
X31810609Y1300815D01*
X31860180Y1226629D01*
X31898211Y1169711D01*
X32009711Y1058211D01*
X32087876Y1005983D01*
X32140814Y970610D01*
X32140825Y970604D01*
X32194638Y948315D01*
X32286503Y910263D01*
X32441158Y879500D01*
X32441159Y879500D01*
X33698841Y879500D01*
X33698842Y879500D01*
X33853497Y910263D01*
X33999179Y970606D01*
X34130289Y1058211D01*
X34241789Y1169711D01*
X34329394Y1300821D01*
X34389737Y1446503D01*
X34420500Y1601158D01*
X34420500Y1758842D01*
X34389737Y1913497D01*
X34365046Y1973107D01*
X36049500Y1973107D01*
X36049500Y1386894D01*
X36060123Y1298435D01*
X36115637Y1157661D01*
X36115638Y1157659D01*
X36115639Y1157658D01*
X36207078Y1037078D01*
X36327658Y945639D01*
X36327659Y945639D01*
X36327660Y945638D01*
X36398047Y917881D01*
X36468436Y890123D01*
X36556898Y879500D01*
X36556900Y879500D01*
X37943100Y879500D01*
X37943102Y879500D01*
X38031564Y890123D01*
X38172342Y945639D01*
X38292922Y1037078D01*
X38384361Y1157658D01*
X38439877Y1298436D01*
X38450500Y1386898D01*
X38450500Y1973102D01*
X38439877Y2061564D01*
X38412119Y2131953D01*
X38384362Y2202340D01*
X38384361Y2202341D01*
X38384361Y2202342D01*
X38292922Y2322922D01*
X38172342Y2414361D01*
X38172341Y2414362D01*
X38172339Y2414363D01*
X38031565Y2469877D01*
X37943106Y2480500D01*
X37943102Y2480500D01*
X36556898Y2480500D01*
X36556893Y2480500D01*
X36468434Y2469877D01*
X36327660Y2414363D01*
X36327656Y2414360D01*
X36207081Y2322925D01*
X36207075Y2322919D01*
X36115640Y2202344D01*
X36115637Y2202340D01*
X36060123Y2061566D01*
X36049500Y1973107D01*
X34365046Y1973107D01*
X34329396Y2059175D01*
X34329390Y2059186D01*
X34294017Y2112124D01*
X34241789Y2190289D01*
X34130289Y2301789D01*
X34078059Y2336688D01*
X33999185Y2389391D01*
X33999174Y2389397D01*
X33853497Y2449737D01*
X33831747Y2454064D01*
X33778364Y2483960D01*
X33752748Y2539525D01*
X33764685Y2599535D01*
X33801559Y2636896D01*
X33892665Y2689495D01*
X33990505Y2787335D01*
X34059688Y2907164D01*
X34095500Y3040817D01*
X34095500Y3179183D01*
X34059688Y3312836D01*
X33990505Y3432665D01*
X33892665Y3530505D01*
X33772836Y3599688D01*
X33639183Y3635500D01*
X33500817Y3635500D01*
X33367164Y3599688D01*
X33247335Y3530505D01*
X33149495Y3432665D01*
X33080312Y3312836D01*
X33044500Y3179183D01*
X33044500Y3040817D01*
X33080312Y2907164D01*
X33149495Y2787335D01*
X33247335Y2689495D01*
X33289354Y2665235D01*
X33330294Y2619767D01*
X33336690Y2558917D01*
X33306097Y2505929D01*
X33250202Y2481042D01*
X33239853Y2480500D01*
X32441155Y2480500D01*
X32286503Y2449737D01*
X32286501Y2449737D01*
X32140825Y2389397D01*
X32140814Y2389391D01*
X32009711Y2301789D01*
X32009707Y2301786D01*
X31898214Y2190293D01*
X31898211Y2190289D01*
X31810609Y2059186D01*
X31810603Y2059175D01*
X31750263Y1913499D01*
X31750263Y1913497D01*
X31719500Y1758845D01*
X26312797Y1758845D01*
X26382027Y1817973D01*
X26537972Y2000561D01*
X26568270Y2050003D01*
X26663428Y2205287D01*
X26663430Y2205292D01*
X26663433Y2205296D01*
X26755323Y2427137D01*
X26811377Y2660621D01*
X26830217Y2900000D01*
X26811377Y3139379D01*
X26755323Y3372863D01*
X26680973Y3552359D01*
X26663434Y3594702D01*
X26663428Y3594714D01*
X26537977Y3799432D01*
X26537967Y3799445D01*
X26382035Y3982018D01*
X26382032Y3982021D01*
X26382027Y3982027D01*
X26382020Y3982033D01*
X26382017Y3982036D01*
X26199444Y4137968D01*
X26199431Y4137978D01*
X25994713Y4263429D01*
X25994701Y4263435D01*
X25772864Y4355323D01*
X25772865Y4355323D01*
X25539378Y4411378D01*
X25300000Y4430217D01*
X25060621Y4411378D01*
X24827135Y4355323D01*
X24605298Y4263435D01*
X24605286Y4263429D01*
X24400568Y4137978D01*
X24400555Y4137968D01*
X24217982Y3982036D01*
X24217964Y3982018D01*
X24062032Y3799445D01*
X24062022Y3799432D01*
X23936571Y3594714D01*
X23936565Y3594702D01*
X23844677Y3372865D01*
X23788622Y3139379D01*
X23769783Y2900000D01*
X16315606Y2900000D01*
X16218723Y3058098D01*
X16218713Y3058111D01*
X16134033Y3157258D01*
X15583622Y2606847D01*
X15560238Y2641844D01*
X15441844Y2760238D01*
X15406844Y2783624D01*
X15957256Y3334035D01*
X15858110Y3418714D01*
X15858097Y3418724D01*
X15640025Y3552359D01*
X15640013Y3552365D01*
X15403706Y3650246D01*
X15403707Y3650246D01*
X15154990Y3709958D01*
X14900000Y3730025D01*
X14645009Y3709958D01*
X14396293Y3650246D01*
X14159986Y3552365D01*
X14159974Y3552359D01*
X13941897Y3418721D01*
X13941892Y3418717D01*
X13842742Y3334035D01*
X14393154Y2783623D01*
X14358156Y2760238D01*
X14239762Y2641844D01*
X14216377Y2606846D01*
X13665965Y3157258D01*
X13581283Y3058108D01*
X13581279Y3058103D01*
X13447641Y2840026D01*
X13447635Y2840014D01*
X13349754Y2603707D01*
X13290042Y2354991D01*
X13269975Y2100000D01*
X13290042Y1845010D01*
X13349754Y1596294D01*
X13447635Y1359987D01*
X13447641Y1359975D01*
X13581276Y1141903D01*
X13581286Y1141890D01*
X13665965Y1042744D01*
X14216376Y1593156D01*
X14239762Y1558156D01*
X14358156Y1439762D01*
X14393153Y1416378D01*
X13842742Y865967D01*
X13842742Y865966D01*
X13941889Y781287D01*
X13941902Y781277D01*
X14159974Y647642D01*
X14159986Y647636D01*
X14396293Y549755D01*
X14396292Y549755D01*
X14621174Y495765D01*
X14673343Y463795D01*
X14696758Y407267D01*
X14682474Y347773D01*
X14635949Y308036D01*
X14598063Y300500D01*
X1004861Y300500D01*
X995157Y300977D01*
X873237Y312986D01*
X854203Y316772D01*
X741645Y350916D01*
X723714Y358343D01*
X619977Y413792D01*
X603841Y424574D01*
X512916Y499194D01*
X499193Y512917D01*
X424573Y603842D01*
X413791Y619978D01*
X358342Y723715D01*
X350915Y741646D01*
X316771Y854204D01*
X312985Y873238D01*
X309338Y910263D01*
X300977Y995158D01*
X300500Y1004862D01*
X300500Y1500003D01*
X7994353Y1500003D01*
X7994353Y1499998D01*
X8014834Y1357544D01*
X8041829Y1298435D01*
X8074623Y1226627D01*
X8168872Y1117857D01*
X8168873Y1117856D01*
X8261683Y1058211D01*
X8289947Y1040047D01*
X8396403Y1008789D01*
X8428035Y999501D01*
X8428036Y999501D01*
X8428039Y999500D01*
X8428041Y999500D01*
X8571959Y999500D01*
X8571961Y999500D01*
X8710053Y1040047D01*
X8831128Y1117857D01*
X8925377Y1226627D01*
X8985165Y1357543D01*
X8997955Y1446502D01*
X9005647Y1499998D01*
X9005647Y1500003D01*
X8985165Y1642457D01*
X8976225Y1662033D01*
X8925377Y1773373D01*
X8831128Y1882143D01*
X8831127Y1882144D01*
X8831126Y1882145D01*
X8710057Y1959951D01*
X8710054Y1959953D01*
X8710053Y1959953D01*
X8710050Y1959954D01*
X8571964Y2000500D01*
X8571961Y2000500D01*
X8428039Y2000500D01*
X8428035Y2000500D01*
X8289949Y1959954D01*
X8289942Y1959951D01*
X8168873Y1882145D01*
X8074622Y1773372D01*
X8014834Y1642457D01*
X7994353Y1500003D01*
X300500Y1500003D01*
X300500Y2050003D01*
X4544353Y2050003D01*
X4544353Y2049998D01*
X4564834Y1907544D01*
X4605744Y1817965D01*
X4624623Y1776627D01*
X4640034Y1758842D01*
X4718873Y1667856D01*
X4822658Y1601158D01*
X4839947Y1590047D01*
X4946403Y1558789D01*
X4978035Y1549501D01*
X4978036Y1549501D01*
X4978039Y1549500D01*
X4978041Y1549500D01*
X5121959Y1549500D01*
X5121961Y1549500D01*
X5260053Y1590047D01*
X5381128Y1667857D01*
X5475377Y1776627D01*
X5535165Y1907543D01*
X5555647Y2050000D01*
X5554327Y2059179D01*
X5535165Y2192457D01*
X5496656Y2276778D01*
X5475377Y2323373D01*
X5381128Y2432143D01*
X5381127Y2432144D01*
X5381126Y2432145D01*
X5260057Y2509951D01*
X5260054Y2509953D01*
X5260053Y2509953D01*
X5260050Y2509954D01*
X5121964Y2550500D01*
X5121961Y2550500D01*
X4978039Y2550500D01*
X4978035Y2550500D01*
X4839949Y2509954D01*
X4839942Y2509951D01*
X4718873Y2432145D01*
X4624622Y2323372D01*
X4564834Y2192457D01*
X4544353Y2050003D01*
X300500Y2050003D01*
X300500Y4700003D01*
X15144867Y4700003D01*
X15144867Y4699998D01*
X15163302Y4571775D01*
X15217117Y4453939D01*
X15217118Y4453937D01*
X15253995Y4411378D01*
X15301952Y4356032D01*
X15410926Y4285999D01*
X15410931Y4285996D01*
X15535228Y4249500D01*
X15535230Y4249500D01*
X15664770Y4249500D01*
X15664772Y4249500D01*
X15789069Y4285996D01*
X15898049Y4356033D01*
X15982882Y4453937D01*
X16036697Y4571774D01*
X16055133Y4700000D01*
X16036697Y4828226D01*
X15982882Y4946063D01*
X15898049Y5043967D01*
X15898048Y5043968D01*
X15898047Y5043969D01*
X15789073Y5114002D01*
X15789070Y5114004D01*
X15789069Y5114004D01*
X15789066Y5114005D01*
X15664774Y5150500D01*
X15664772Y5150500D01*
X15535228Y5150500D01*
X15535225Y5150500D01*
X15410933Y5114005D01*
X15410926Y5114002D01*
X15301952Y5043969D01*
X15217117Y4946062D01*
X15163302Y4828226D01*
X15144867Y4700003D01*
X300500Y4700003D01*
X300500Y5400003D01*
X21594353Y5400003D01*
X21594353Y5399998D01*
X21614834Y5257544D01*
X21622501Y5240756D01*
X21674623Y5126627D01*
X21746246Y5043969D01*
X21768873Y5017856D01*
X21880586Y4946063D01*
X21889947Y4940047D01*
X21996403Y4908789D01*
X22028035Y4899501D01*
X22028036Y4899501D01*
X22028039Y4899500D01*
X22028041Y4899500D01*
X22171959Y4899500D01*
X22171961Y4899500D01*
X22310053Y4940047D01*
X22431128Y5017857D01*
X22525377Y5126627D01*
X22577501Y5240761D01*
X33169868Y5240761D01*
X33169868Y5240756D01*
X33188303Y5112533D01*
X33242118Y4994697D01*
X33242119Y4994695D01*
X33289471Y4940047D01*
X33326953Y4896790D01*
X33435927Y4826757D01*
X33435932Y4826754D01*
X33560229Y4790258D01*
X33560231Y4790258D01*
X33689771Y4790258D01*
X33689773Y4790258D01*
X33814070Y4826754D01*
X33923050Y4896791D01*
X34007883Y4994695D01*
X34061698Y5112532D01*
X34080134Y5240758D01*
X34061698Y5368984D01*
X34007883Y5486821D01*
X33923050Y5584725D01*
X33923049Y5584726D01*
X33923048Y5584727D01*
X33814074Y5654760D01*
X33814071Y5654762D01*
X33814070Y5654762D01*
X33814067Y5654763D01*
X33689775Y5691258D01*
X33689773Y5691258D01*
X33560229Y5691258D01*
X33560226Y5691258D01*
X33435934Y5654763D01*
X33435927Y5654760D01*
X33326953Y5584727D01*
X33242118Y5486820D01*
X33188303Y5368984D01*
X33169868Y5240761D01*
X22577501Y5240761D01*
X22585165Y5257543D01*
X22605647Y5400000D01*
X22585165Y5542457D01*
X22525377Y5673373D01*
X22431128Y5782143D01*
X22431127Y5782144D01*
X22431126Y5782145D01*
X22310057Y5859951D01*
X22310054Y5859953D01*
X22310053Y5859953D01*
X22310050Y5859954D01*
X22171964Y5900500D01*
X22171961Y5900500D01*
X22028039Y5900500D01*
X22028035Y5900500D01*
X21889949Y5859954D01*
X21889942Y5859951D01*
X21768873Y5782145D01*
X21674622Y5673372D01*
X21614834Y5542457D01*
X21594353Y5400003D01*
X300500Y5400003D01*
X300500Y6700003D01*
X30644867Y6700003D01*
X30644867Y6699998D01*
X30663302Y6571775D01*
X30717117Y6453939D01*
X30717118Y6453937D01*
X30763854Y6400000D01*
X30801952Y6356032D01*
X30910926Y6285999D01*
X30910931Y6285996D01*
X31035228Y6249500D01*
X31035230Y6249500D01*
X31164770Y6249500D01*
X31164772Y6249500D01*
X31289069Y6285996D01*
X31398049Y6356033D01*
X31436149Y6400003D01*
X33673103Y6400003D01*
X33673103Y6399998D01*
X33693584Y6257544D01*
X33697258Y6249500D01*
X33753373Y6126627D01*
X33847622Y6017857D01*
X33847623Y6017856D01*
X33968692Y5940050D01*
X33968697Y5940047D01*
X34075153Y5908789D01*
X34106785Y5899501D01*
X34106786Y5899501D01*
X34106789Y5899500D01*
X34106791Y5899500D01*
X34250709Y5899500D01*
X34250711Y5899500D01*
X34388803Y5940047D01*
X34509878Y6017857D01*
X34604127Y6126627D01*
X34663915Y6257543D01*
X34670742Y6305029D01*
X34684397Y6399998D01*
X34684397Y6400003D01*
X34663915Y6542457D01*
X34650526Y6571775D01*
X34604127Y6673373D01*
X34509878Y6782143D01*
X34509877Y6782144D01*
X34509876Y6782145D01*
X34388807Y6859951D01*
X34388804Y6859953D01*
X34388803Y6859953D01*
X34388800Y6859954D01*
X34250714Y6900500D01*
X34250711Y6900500D01*
X34106789Y6900500D01*
X34106785Y6900500D01*
X33968699Y6859954D01*
X33968692Y6859951D01*
X33847623Y6782145D01*
X33753372Y6673372D01*
X33693584Y6542457D01*
X33673103Y6400003D01*
X31436149Y6400003D01*
X31482882Y6453937D01*
X31536697Y6571774D01*
X31547872Y6649500D01*
X31555133Y6699998D01*
X31555133Y6700003D01*
X31536697Y6828226D01*
X31524954Y6853939D01*
X31482882Y6946063D01*
X31398049Y7043967D01*
X31398048Y7043968D01*
X31398047Y7043969D01*
X31310856Y7100003D01*
X36544867Y7100003D01*
X36544867Y7099998D01*
X36563302Y6971775D01*
X36614371Y6859951D01*
X36617118Y6853937D01*
X36679325Y6782145D01*
X36701952Y6756032D01*
X36789140Y6700000D01*
X36810931Y6685996D01*
X36935228Y6649500D01*
X36935230Y6649500D01*
X37064770Y6649500D01*
X37064772Y6649500D01*
X37189069Y6685996D01*
X37298049Y6756033D01*
X37382882Y6853937D01*
X37436697Y6971774D01*
X37455133Y7100000D01*
X37453119Y7114005D01*
X37436697Y7228226D01*
X37382882Y7346062D01*
X37382882Y7346063D01*
X37298049Y7443967D01*
X37298048Y7443968D01*
X37298047Y7443969D01*
X37189073Y7514002D01*
X37189070Y7514004D01*
X37189069Y7514004D01*
X37189066Y7514005D01*
X37064774Y7550500D01*
X37064772Y7550500D01*
X36935228Y7550500D01*
X36935225Y7550500D01*
X36810933Y7514005D01*
X36810926Y7514002D01*
X36701952Y7443969D01*
X36617117Y7346062D01*
X36563302Y7228226D01*
X36544867Y7100003D01*
X31310856Y7100003D01*
X31289073Y7114002D01*
X31289070Y7114004D01*
X31289069Y7114004D01*
X31289066Y7114005D01*
X31164774Y7150500D01*
X31164772Y7150500D01*
X31035228Y7150500D01*
X31035225Y7150500D01*
X30910933Y7114005D01*
X30910926Y7114002D01*
X30801952Y7043969D01*
X30717117Y6946062D01*
X30663302Y6828226D01*
X30644867Y6700003D01*
X300500Y6700003D01*
X300500Y11200003D01*
X18345068Y11200003D01*
X18345068Y11199998D01*
X18363503Y11071775D01*
X18409173Y10971774D01*
X18417319Y10953937D01*
X18502152Y10856033D01*
X18502153Y10856032D01*
X18611127Y10785999D01*
X18611132Y10785996D01*
X18735429Y10749500D01*
X18735431Y10749500D01*
X18864971Y10749500D01*
X18864973Y10749500D01*
X18989270Y10785996D01*
X19098250Y10856033D01*
X19140071Y10904299D01*
X19192464Y10935895D01*
X19253425Y10930660D01*
X19299667Y10890594D01*
X19304943Y10880596D01*
X19317117Y10853938D01*
X19401952Y10756032D01*
X19490424Y10699175D01*
X19510931Y10685996D01*
X19635228Y10649500D01*
X19635230Y10649500D01*
X19764770Y10649500D01*
X19764772Y10649500D01*
X19889069Y10685996D01*
X19998049Y10756033D01*
X20082882Y10853937D01*
X20136697Y10971774D01*
X20144981Y11029391D01*
X20155133Y11099998D01*
X20155133Y11100003D01*
X20136697Y11228226D01*
X20082882Y11346063D01*
X19998049Y11443967D01*
X19998048Y11443968D01*
X19998047Y11443969D01*
X19910861Y11500000D01*
X22969783Y11500000D01*
X22988622Y11260622D01*
X23044677Y11027136D01*
X23136565Y10805299D01*
X23136571Y10805287D01*
X23262022Y10600569D01*
X23262032Y10600556D01*
X23302222Y10553499D01*
X23417973Y10417973D01*
X23417979Y10417968D01*
X23417982Y10417965D01*
X23600555Y10262033D01*
X23600561Y10262028D01*
X23600563Y10262027D01*
X23600568Y10262023D01*
X23805286Y10136572D01*
X23805298Y10136566D01*
X24027135Y10044678D01*
X24027137Y10044677D01*
X24260621Y9988623D01*
X24500000Y9969783D01*
X24739379Y9988623D01*
X24972863Y10044677D01*
X25194704Y10136567D01*
X25194708Y10136570D01*
X25194713Y10136572D01*
X25399431Y10262023D01*
X25399431Y10262024D01*
X25399439Y10262028D01*
X25559631Y10398845D01*
X31719500Y10398845D01*
X31719500Y10241156D01*
X31750263Y10086504D01*
X31750263Y10086502D01*
X31810603Y9940826D01*
X31810609Y9940815D01*
X31863312Y9861941D01*
X31898211Y9809711D01*
X32009711Y9698211D01*
X32087876Y9645983D01*
X32140814Y9610610D01*
X32140825Y9610604D01*
X32194638Y9588315D01*
X32286503Y9550263D01*
X32441158Y9519500D01*
X32441159Y9519500D01*
X33239853Y9519500D01*
X33298044Y9500593D01*
X33334008Y9451093D01*
X33334008Y9389907D01*
X33298044Y9340407D01*
X33289366Y9334772D01*
X33247335Y9310505D01*
X33149495Y9212665D01*
X33080312Y9092836D01*
X33044500Y8959183D01*
X33044500Y8820817D01*
X33080312Y8687164D01*
X33149495Y8567335D01*
X33247335Y8469495D01*
X33367164Y8400312D01*
X33500817Y8364500D01*
X33500819Y8364500D01*
X33639181Y8364500D01*
X33639183Y8364500D01*
X33772836Y8400312D01*
X33892665Y8469495D01*
X33990505Y8567335D01*
X34059688Y8687164D01*
X34095500Y8820817D01*
X34095500Y8959183D01*
X34059688Y9092836D01*
X33990505Y9212665D01*
X33892665Y9310505D01*
X33892662Y9310507D01*
X33801562Y9363104D01*
X33760621Y9408573D01*
X33754225Y9469424D01*
X33784818Y9522412D01*
X33831749Y9545938D01*
X33853497Y9550263D01*
X33999179Y9610606D01*
X34130289Y9698211D01*
X34241789Y9809711D01*
X34329394Y9940821D01*
X34389737Y10086503D01*
X34420500Y10241158D01*
X34420500Y10398842D01*
X34389737Y10553497D01*
X34365046Y10613107D01*
X36049500Y10613107D01*
X36049500Y10026894D01*
X36060123Y9938435D01*
X36115637Y9797661D01*
X36115638Y9797659D01*
X36115639Y9797658D01*
X36207078Y9677078D01*
X36327658Y9585639D01*
X36327659Y9585639D01*
X36327660Y9585638D01*
X36398047Y9557881D01*
X36468436Y9530123D01*
X36556898Y9519500D01*
X36556900Y9519500D01*
X37943100Y9519500D01*
X37943102Y9519500D01*
X38031564Y9530123D01*
X38172342Y9585639D01*
X38292922Y9677078D01*
X38384361Y9797658D01*
X38439877Y9938436D01*
X38450500Y10026898D01*
X38450500Y10613102D01*
X38439877Y10701564D01*
X38384361Y10842342D01*
X38292922Y10962922D01*
X38172342Y11054361D01*
X38172341Y11054362D01*
X38172339Y11054363D01*
X38031565Y11109877D01*
X37943106Y11120500D01*
X37943102Y11120500D01*
X36556898Y11120500D01*
X36556893Y11120500D01*
X36468434Y11109877D01*
X36327660Y11054363D01*
X36327656Y11054360D01*
X36207081Y10962925D01*
X36207075Y10962919D01*
X36115640Y10842344D01*
X36115637Y10842340D01*
X36060123Y10701566D01*
X36049500Y10613107D01*
X34365046Y10613107D01*
X34334855Y10685996D01*
X34329396Y10699175D01*
X34329390Y10699186D01*
X34291405Y10756033D01*
X34241789Y10830289D01*
X34130289Y10941789D01*
X34078059Y10976688D01*
X33999185Y11029391D01*
X33999174Y11029397D01*
X33853497Y11089737D01*
X33698844Y11120500D01*
X33698842Y11120500D01*
X32441158Y11120500D01*
X32441155Y11120500D01*
X32286503Y11089737D01*
X32286501Y11089737D01*
X32140825Y11029397D01*
X32140814Y11029391D01*
X32009711Y10941789D01*
X32009707Y10941786D01*
X31898214Y10830293D01*
X31898211Y10830289D01*
X31810609Y10699186D01*
X31810603Y10699175D01*
X31750263Y10553499D01*
X31750263Y10553497D01*
X31719500Y10398845D01*
X25559631Y10398845D01*
X25582027Y10417973D01*
X25737972Y10600561D01*
X25737977Y10600569D01*
X25863428Y10805287D01*
X25863430Y10805292D01*
X25863433Y10805296D01*
X25955323Y11027137D01*
X26011377Y11260621D01*
X26030217Y11500000D01*
X26011377Y11739379D01*
X25955323Y11972863D01*
X25944081Y12000003D01*
X35344867Y12000003D01*
X35344867Y11999998D01*
X35363302Y11871775D01*
X35396080Y11800003D01*
X35417118Y11753937D01*
X35488311Y11671775D01*
X35501952Y11656032D01*
X35610926Y11585999D01*
X35610931Y11585996D01*
X35735228Y11549500D01*
X35735230Y11549500D01*
X35864770Y11549500D01*
X35864772Y11549500D01*
X35989069Y11585996D01*
X36098049Y11656033D01*
X36182882Y11753937D01*
X36203920Y11800003D01*
X37044867Y11800003D01*
X37044867Y11799998D01*
X37063302Y11671775D01*
X37102477Y11585996D01*
X37117118Y11553937D01*
X37163854Y11500000D01*
X37201952Y11456032D01*
X37295828Y11395702D01*
X37310931Y11385996D01*
X37435228Y11349500D01*
X37435230Y11349500D01*
X37564770Y11349500D01*
X37564772Y11349500D01*
X37689069Y11385996D01*
X37798049Y11456033D01*
X37882882Y11553937D01*
X37936697Y11671774D01*
X37948510Y11753937D01*
X37955133Y11799998D01*
X37955133Y11800003D01*
X37936697Y11928226D01*
X37903919Y11999998D01*
X37882882Y12046063D01*
X37798049Y12143967D01*
X37798048Y12143968D01*
X37798047Y12143969D01*
X37689073Y12214002D01*
X37689070Y12214004D01*
X37689069Y12214004D01*
X37689066Y12214005D01*
X37564774Y12250500D01*
X37564772Y12250500D01*
X37435228Y12250500D01*
X37435225Y12250500D01*
X37310933Y12214005D01*
X37310926Y12214002D01*
X37201952Y12143969D01*
X37117117Y12046062D01*
X37063302Y11928226D01*
X37044867Y11800003D01*
X36203920Y11800003D01*
X36236697Y11871774D01*
X36244814Y11928226D01*
X36255133Y11999998D01*
X36255133Y12000003D01*
X36236697Y12128226D01*
X36206337Y12194704D01*
X36182882Y12246063D01*
X36098049Y12343967D01*
X36098048Y12343968D01*
X36098047Y12343969D01*
X35989073Y12414002D01*
X35989070Y12414004D01*
X35989069Y12414004D01*
X35989066Y12414005D01*
X35864774Y12450500D01*
X35864772Y12450500D01*
X35735228Y12450500D01*
X35735225Y12450500D01*
X35610933Y12414005D01*
X35610926Y12414002D01*
X35501952Y12343969D01*
X35417117Y12246062D01*
X35363302Y12128226D01*
X35344867Y12000003D01*
X25944081Y12000003D01*
X25863433Y12194704D01*
X25863428Y12194714D01*
X25737977Y12399432D01*
X25737967Y12399445D01*
X25582035Y12582018D01*
X25582032Y12582021D01*
X25582027Y12582027D01*
X25582020Y12582033D01*
X25582017Y12582036D01*
X25399444Y12737968D01*
X25399431Y12737978D01*
X25194713Y12863429D01*
X25194701Y12863435D01*
X24972864Y12955323D01*
X24972865Y12955323D01*
X24739378Y13011378D01*
X24500000Y13030217D01*
X24260621Y13011378D01*
X24027135Y12955323D01*
X23805298Y12863435D01*
X23805286Y12863429D01*
X23600568Y12737978D01*
X23600555Y12737968D01*
X23417982Y12582036D01*
X23417964Y12582018D01*
X23262032Y12399445D01*
X23262022Y12399432D01*
X23136571Y12194714D01*
X23136565Y12194702D01*
X23044677Y11972865D01*
X22988622Y11739379D01*
X22969783Y11500000D01*
X19910861Y11500000D01*
X19889073Y11514002D01*
X19889070Y11514004D01*
X19889069Y11514004D01*
X19889066Y11514005D01*
X19764774Y11550500D01*
X19764772Y11550500D01*
X19635228Y11550500D01*
X19635225Y11550500D01*
X19510933Y11514005D01*
X19510926Y11514002D01*
X19401952Y11443969D01*
X19360130Y11395702D01*
X19307734Y11364106D01*
X19246773Y11369342D01*
X19200532Y11409409D01*
X19195257Y11419407D01*
X19183084Y11446061D01*
X19183083Y11446062D01*
X19183083Y11446063D01*
X19098250Y11543967D01*
X19098249Y11543968D01*
X19098248Y11543969D01*
X18989274Y11614002D01*
X18989271Y11614004D01*
X18989270Y11614004D01*
X18989267Y11614005D01*
X18864975Y11650500D01*
X18864973Y11650500D01*
X18735429Y11650500D01*
X18735426Y11650500D01*
X18611134Y11614005D01*
X18611127Y11614002D01*
X18502153Y11543969D01*
X18417318Y11446062D01*
X18363503Y11328226D01*
X18345068Y11200003D01*
X300500Y11200003D01*
X300500Y13621335D01*
X319407Y13679526D01*
X368907Y13715490D01*
X430093Y13715490D01*
X474780Y13685630D01*
X479993Y13679526D01*
X617973Y13517973D01*
X800561Y13362028D01*
X800563Y13362027D01*
X800568Y13362023D01*
X1005286Y13236572D01*
X1005298Y13236566D01*
X1227135Y13144678D01*
X1227137Y13144677D01*
X1460621Y13088623D01*
X1700000Y13069783D01*
X1939379Y13088623D01*
X2172863Y13144677D01*
X2394704Y13236567D01*
X2394708Y13236570D01*
X2394713Y13236572D01*
X2599431Y13362023D01*
X2599431Y13362024D01*
X2599439Y13362028D01*
X2782027Y13517973D01*
X2937972Y13700561D01*
X2937977Y13700569D01*
X3063428Y13905287D01*
X3063430Y13905292D01*
X3063433Y13905296D01*
X3155323Y14127137D01*
X3211377Y14360621D01*
X3222347Y14500003D01*
X34344867Y14500003D01*
X34344867Y14499998D01*
X34363302Y14371775D01*
X34368396Y14360622D01*
X34417118Y14253937D01*
X34501951Y14156033D01*
X34501952Y14156032D01*
X34610926Y14085999D01*
X34610931Y14085996D01*
X34735228Y14049500D01*
X34735230Y14049500D01*
X34864770Y14049500D01*
X34864772Y14049500D01*
X34989069Y14085996D01*
X35098049Y14156033D01*
X35182882Y14253937D01*
X35236697Y14371774D01*
X35255133Y14500000D01*
X35236697Y14628226D01*
X35182882Y14746063D01*
X35098049Y14843967D01*
X35098048Y14843968D01*
X35098047Y14843969D01*
X34989073Y14914002D01*
X34989070Y14914004D01*
X34989069Y14914004D01*
X34989066Y14914005D01*
X34864774Y14950500D01*
X34864772Y14950500D01*
X34735228Y14950500D01*
X34735225Y14950500D01*
X34610933Y14914005D01*
X34610926Y14914002D01*
X34501952Y14843969D01*
X34417117Y14746062D01*
X34363302Y14628226D01*
X34344867Y14500003D01*
X3222347Y14500003D01*
X3230217Y14600000D01*
X3211377Y14839379D01*
X3155323Y15072863D01*
X3063433Y15294704D01*
X3063428Y15294714D01*
X2971346Y15444978D01*
X8939328Y15444978D01*
X8939328Y15444973D01*
X8959809Y15302519D01*
X9003144Y15207631D01*
X9019598Y15171602D01*
X9105155Y15072863D01*
X9113848Y15062831D01*
X9183831Y15017856D01*
X9234922Y14985022D01*
X9341378Y14953764D01*
X9373010Y14944476D01*
X9373011Y14944476D01*
X9373014Y14944475D01*
X9373016Y14944475D01*
X9516934Y14944475D01*
X9516936Y14944475D01*
X9655028Y14985022D01*
X9776103Y15062832D01*
X9828184Y15122938D01*
X9880578Y15154532D01*
X9941539Y15149297D01*
X9977819Y15122938D01*
X10068872Y15017857D01*
X10068873Y15017856D01*
X10183055Y14944476D01*
X10189947Y14940047D01*
X10278649Y14914002D01*
X10328035Y14899501D01*
X10328036Y14899501D01*
X10328039Y14899500D01*
X10328041Y14899500D01*
X10471959Y14899500D01*
X10471961Y14899500D01*
X10610053Y14940047D01*
X10731128Y15017857D01*
X10825377Y15126627D01*
X10885165Y15257543D01*
X10905647Y15400000D01*
X10899180Y15444978D01*
X10885165Y15542457D01*
X10842186Y15636567D01*
X10825377Y15673373D01*
X10731128Y15782143D01*
X10731127Y15782144D01*
X10731126Y15782145D01*
X10610057Y15859951D01*
X10610054Y15859953D01*
X10610053Y15859953D01*
X10610050Y15859954D01*
X10471964Y15900500D01*
X10471961Y15900500D01*
X10328039Y15900500D01*
X10328035Y15900500D01*
X10189949Y15859954D01*
X10189942Y15859951D01*
X10068872Y15782144D01*
X10016791Y15722039D01*
X9964395Y15690444D01*
X9903434Y15695680D01*
X9867154Y15722039D01*
X9776103Y15827118D01*
X9776102Y15827119D01*
X9776101Y15827120D01*
X9655032Y15904926D01*
X9655029Y15904928D01*
X9655028Y15904928D01*
X9655025Y15904929D01*
X9516939Y15945475D01*
X9516936Y15945475D01*
X9373014Y15945475D01*
X9373010Y15945475D01*
X9234924Y15904929D01*
X9234917Y15904926D01*
X9113848Y15827120D01*
X9019597Y15718347D01*
X8959809Y15587432D01*
X8939328Y15444978D01*
X2971346Y15444978D01*
X2937977Y15499432D01*
X2937967Y15499445D01*
X2782035Y15682018D01*
X2782032Y15682021D01*
X2782027Y15682027D01*
X2782020Y15682033D01*
X2782017Y15682036D01*
X2599444Y15837968D01*
X2599431Y15837978D01*
X2394713Y15963429D01*
X2394701Y15963435D01*
X2172864Y16055323D01*
X2172865Y16055323D01*
X1939378Y16111378D01*
X1700000Y16130217D01*
X1460621Y16111378D01*
X1227135Y16055323D01*
X1005298Y15963435D01*
X1005286Y15963429D01*
X800568Y15837978D01*
X800555Y15837968D01*
X617982Y15682036D01*
X617970Y15682024D01*
X474780Y15514370D01*
X422611Y15482401D01*
X361614Y15487202D01*
X315088Y15526939D01*
X300500Y15578666D01*
X300500Y17000000D01*
X14969783Y17000000D01*
X14988622Y16760622D01*
X15044677Y16527136D01*
X15136565Y16305299D01*
X15136571Y16305287D01*
X15262022Y16100569D01*
X15262032Y16100556D01*
X15379149Y15963429D01*
X15417973Y15917973D01*
X15417979Y15917968D01*
X15417982Y15917965D01*
X15524348Y15827120D01*
X15600561Y15762028D01*
X15600563Y15762027D01*
X15600568Y15762023D01*
X15805286Y15636572D01*
X15805296Y15636567D01*
X15944962Y15578715D01*
X16027135Y15544678D01*
X16027137Y15544677D01*
X16260621Y15488623D01*
X16500000Y15469783D01*
X16739379Y15488623D01*
X16972863Y15544677D01*
X17194704Y15636567D01*
X17194708Y15636570D01*
X17194713Y15636572D01*
X17399431Y15762023D01*
X17399431Y15762024D01*
X17399439Y15762028D01*
X17582027Y15917973D01*
X17737972Y16100561D01*
X17756145Y16130217D01*
X17863428Y16305287D01*
X17863430Y16305292D01*
X17863433Y16305296D01*
X17955323Y16527137D01*
X18011377Y16760621D01*
X18022347Y16900003D01*
X25044867Y16900003D01*
X25044867Y16899998D01*
X25063302Y16771775D01*
X25068396Y16760622D01*
X25117118Y16653937D01*
X25174499Y16587715D01*
X25201952Y16556032D01*
X25310926Y16485999D01*
X25310931Y16485996D01*
X25435228Y16449500D01*
X25435230Y16449500D01*
X25564770Y16449500D01*
X25564772Y16449500D01*
X25689069Y16485996D01*
X25798049Y16556033D01*
X25882882Y16653937D01*
X25936697Y16771774D01*
X25955133Y16900000D01*
X25936697Y17028226D01*
X25882882Y17146063D01*
X25798049Y17243967D01*
X25798048Y17243968D01*
X25798047Y17243969D01*
X25689073Y17314002D01*
X25689070Y17314004D01*
X25689069Y17314004D01*
X25689066Y17314005D01*
X25564774Y17350500D01*
X25564772Y17350500D01*
X25435228Y17350500D01*
X25435225Y17350500D01*
X25310933Y17314005D01*
X25310926Y17314002D01*
X25201952Y17243969D01*
X25117117Y17146062D01*
X25063302Y17028226D01*
X25044867Y16900003D01*
X18022347Y16900003D01*
X18030217Y17000000D01*
X18011377Y17239379D01*
X17955323Y17472863D01*
X17863433Y17694704D01*
X17863428Y17694714D01*
X17737977Y17899432D01*
X17737967Y17899445D01*
X17652082Y18000003D01*
X18444867Y18000003D01*
X18444867Y17999998D01*
X18463302Y17871775D01*
X18495007Y17802352D01*
X18517118Y17753937D01*
X18568443Y17694704D01*
X18601952Y17656032D01*
X18710926Y17585999D01*
X18710931Y17585996D01*
X18835228Y17549500D01*
X18835230Y17549500D01*
X18964770Y17549500D01*
X18964772Y17549500D01*
X19089069Y17585996D01*
X19198049Y17656033D01*
X19282882Y17753937D01*
X19304994Y17802356D01*
X36299500Y17802356D01*
X36299500Y17597645D01*
X36331521Y17395471D01*
X36394780Y17200781D01*
X36487712Y17018391D01*
X36487714Y17018387D01*
X36608029Y16852787D01*
X36608031Y16852785D01*
X36608034Y16852781D01*
X36752781Y16708034D01*
X36752784Y16708032D01*
X36752786Y16708030D01*
X36918386Y16587715D01*
X36918390Y16587713D01*
X37100781Y16494780D01*
X37295466Y16431523D01*
X37295467Y16431523D01*
X37295470Y16431522D01*
X37497645Y16399500D01*
X37497648Y16399500D01*
X37702355Y16399500D01*
X37904529Y16431522D01*
X37904530Y16431523D01*
X37904534Y16431523D01*
X38099219Y16494780D01*
X38281610Y16587713D01*
X38447219Y16708034D01*
X38591966Y16852781D01*
X38712287Y17018390D01*
X38805220Y17200781D01*
X38868477Y17395466D01*
X38892874Y17549500D01*
X38900500Y17597645D01*
X38900500Y17802356D01*
X38868478Y18004530D01*
X38868477Y18004534D01*
X38805220Y18199219D01*
X38712287Y18381610D01*
X38712285Y18381614D01*
X38591970Y18547214D01*
X38591968Y18547216D01*
X38591966Y18547219D01*
X38447219Y18691966D01*
X38447215Y18691969D01*
X38447213Y18691971D01*
X38281613Y18812286D01*
X38281609Y18812288D01*
X38099219Y18905220D01*
X37904529Y18968479D01*
X37702355Y19000500D01*
X37702352Y19000500D01*
X37497648Y19000500D01*
X37497645Y19000500D01*
X37295470Y18968479D01*
X37100780Y18905220D01*
X36918390Y18812288D01*
X36918386Y18812286D01*
X36752786Y18691971D01*
X36608029Y18547214D01*
X36487714Y18381614D01*
X36487712Y18381610D01*
X36394780Y18199220D01*
X36331521Y18004530D01*
X36299500Y17802356D01*
X19304994Y17802356D01*
X19336697Y17871774D01*
X19355133Y18000000D01*
X19354481Y18004534D01*
X19336697Y18128226D01*
X19304275Y18199219D01*
X19282882Y18246063D01*
X19198049Y18343967D01*
X19198048Y18343968D01*
X19198047Y18343969D01*
X19089073Y18414002D01*
X19089070Y18414004D01*
X19089069Y18414004D01*
X19089066Y18414005D01*
X18964774Y18450500D01*
X18964772Y18450500D01*
X18835228Y18450500D01*
X18835225Y18450500D01*
X18710933Y18414005D01*
X18710926Y18414002D01*
X18601952Y18343969D01*
X18517117Y18246062D01*
X18463302Y18128226D01*
X18444867Y18000003D01*
X17652082Y18000003D01*
X17582035Y18082018D01*
X17582032Y18082021D01*
X17582027Y18082027D01*
X17582020Y18082033D01*
X17582017Y18082036D01*
X17399444Y18237968D01*
X17399431Y18237978D01*
X17194713Y18363429D01*
X17194701Y18363435D01*
X16972864Y18455323D01*
X16972865Y18455323D01*
X16786759Y18500003D01*
X24744867Y18500003D01*
X24744867Y18499998D01*
X24763302Y18371775D01*
X24767111Y18363435D01*
X24817118Y18253937D01*
X24864530Y18199220D01*
X24901952Y18156032D01*
X25010926Y18085999D01*
X25010931Y18085996D01*
X25135228Y18049500D01*
X25135230Y18049500D01*
X25264770Y18049500D01*
X25264772Y18049500D01*
X25389069Y18085996D01*
X25498049Y18156033D01*
X25582882Y18253937D01*
X25636697Y18371774D01*
X25648016Y18450500D01*
X25655133Y18499998D01*
X25655133Y18500003D01*
X25636697Y18628226D01*
X25582882Y18746063D01*
X25498049Y18843967D01*
X25498048Y18843968D01*
X25498047Y18843969D01*
X25389073Y18914002D01*
X25389070Y18914004D01*
X25389069Y18914004D01*
X25389066Y18914005D01*
X25264774Y18950500D01*
X25264772Y18950500D01*
X25135228Y18950500D01*
X25135225Y18950500D01*
X25010933Y18914005D01*
X25010926Y18914002D01*
X24901952Y18843969D01*
X24817117Y18746062D01*
X24763302Y18628226D01*
X24744867Y18500003D01*
X16786759Y18500003D01*
X16739378Y18511378D01*
X16500000Y18530217D01*
X16260621Y18511378D01*
X16027135Y18455323D01*
X15805298Y18363435D01*
X15805286Y18363429D01*
X15600568Y18237978D01*
X15600555Y18237968D01*
X15417982Y18082036D01*
X15417964Y18082018D01*
X15262032Y17899445D01*
X15262022Y17899432D01*
X15136571Y17694714D01*
X15136565Y17694702D01*
X15044677Y17472865D01*
X14988622Y17239379D01*
X14969783Y17000000D01*
X300500Y17000000D01*
X300500Y21600003D01*
X27344867Y21600003D01*
X27344867Y21599998D01*
X27363302Y21471775D01*
X27417117Y21353939D01*
X27417118Y21353937D01*
X27440341Y21327136D01*
X27501952Y21256032D01*
X27610926Y21185999D01*
X27610931Y21185996D01*
X27735228Y21149500D01*
X27735230Y21149500D01*
X27864770Y21149500D01*
X27864772Y21149500D01*
X27989069Y21185996D01*
X28098049Y21256033D01*
X28182882Y21353937D01*
X28236697Y21471774D01*
X28255133Y21600000D01*
X28236697Y21728226D01*
X28203919Y21800000D01*
X32369783Y21800000D01*
X32388622Y21560622D01*
X32444677Y21327136D01*
X32536565Y21105299D01*
X32536571Y21105287D01*
X32662022Y20900569D01*
X32662027Y20900562D01*
X32662028Y20900561D01*
X32817973Y20717973D01*
X33000561Y20562028D01*
X33000563Y20562027D01*
X33000568Y20562023D01*
X33205286Y20436572D01*
X33205298Y20436566D01*
X33427135Y20344678D01*
X33427137Y20344677D01*
X33660621Y20288623D01*
X33900000Y20269783D01*
X34139379Y20288623D01*
X34372863Y20344677D01*
X34594704Y20436567D01*
X34594708Y20436570D01*
X34594713Y20436572D01*
X34799431Y20562023D01*
X34799431Y20562024D01*
X34799439Y20562028D01*
X34982027Y20717973D01*
X35137972Y20900561D01*
X35137977Y20900569D01*
X35263428Y21105287D01*
X35263430Y21105292D01*
X35263433Y21105296D01*
X35355323Y21327137D01*
X35411377Y21560621D01*
X35430217Y21800000D01*
X35411377Y22039379D01*
X35355323Y22272863D01*
X35263433Y22494704D01*
X35263428Y22494714D01*
X35137977Y22699432D01*
X35137967Y22699445D01*
X34982035Y22882018D01*
X34982032Y22882021D01*
X34982027Y22882027D01*
X34982020Y22882033D01*
X34982017Y22882036D01*
X34799444Y23037968D01*
X34799431Y23037978D01*
X34594713Y23163429D01*
X34594701Y23163435D01*
X34372864Y23255323D01*
X34372865Y23255323D01*
X34139378Y23311378D01*
X33900000Y23330217D01*
X33660621Y23311378D01*
X33427135Y23255323D01*
X33205298Y23163435D01*
X33205286Y23163429D01*
X33000568Y23037978D01*
X33000555Y23037968D01*
X32817982Y22882036D01*
X32817964Y22882018D01*
X32662032Y22699445D01*
X32662022Y22699432D01*
X32536571Y22494714D01*
X32536565Y22494702D01*
X32444677Y22272865D01*
X32388622Y22039379D01*
X32369783Y21800000D01*
X28203919Y21800000D01*
X28182882Y21846063D01*
X28098049Y21943967D01*
X28098048Y21943968D01*
X28098047Y21943969D01*
X27989073Y22014002D01*
X27989070Y22014004D01*
X27989069Y22014004D01*
X27989066Y22014005D01*
X27864774Y22050500D01*
X27864772Y22050500D01*
X27735228Y22050500D01*
X27735225Y22050500D01*
X27610933Y22014005D01*
X27610926Y22014002D01*
X27501952Y21943969D01*
X27417117Y21846062D01*
X27363302Y21728226D01*
X27344867Y21600003D01*
X300500Y21600003D01*
X300500Y24900000D01*
X9469975Y24900000D01*
X9490042Y24645010D01*
X9549754Y24396294D01*
X9647635Y24159987D01*
X9647641Y24159975D01*
X9781276Y23941903D01*
X9781286Y23941890D01*
X9865965Y23842744D01*
X10416376Y24393156D01*
X10439762Y24358156D01*
X10558156Y24239762D01*
X10593153Y24216378D01*
X10042742Y23665967D01*
X10042742Y23665966D01*
X10141889Y23581287D01*
X10141902Y23581277D01*
X10359974Y23447642D01*
X10359986Y23447636D01*
X10596293Y23349755D01*
X10596292Y23349755D01*
X10845009Y23290043D01*
X11100000Y23269976D01*
X11354990Y23290043D01*
X11603706Y23349755D01*
X11840013Y23447636D01*
X11840025Y23447642D01*
X12058097Y23581277D01*
X12058103Y23581282D01*
X12157256Y23665968D01*
X11606846Y24216378D01*
X11641844Y24239762D01*
X11760238Y24358156D01*
X11783622Y24393154D01*
X12334032Y23842744D01*
X12418718Y23941897D01*
X12418723Y23941903D01*
X12552358Y24159975D01*
X12552364Y24159987D01*
X12650245Y24396294D01*
X12709957Y24645010D01*
X12730024Y24900000D01*
X12722154Y25000000D01*
X22969783Y25000000D01*
X22988622Y24760622D01*
X23044677Y24527136D01*
X23136565Y24305299D01*
X23136571Y24305287D01*
X23262022Y24100569D01*
X23262032Y24100556D01*
X23397534Y23941903D01*
X23417973Y23917973D01*
X23600561Y23762028D01*
X23600563Y23762027D01*
X23600568Y23762023D01*
X23805286Y23636572D01*
X23805298Y23636566D01*
X24027135Y23544678D01*
X24027137Y23544677D01*
X24260621Y23488623D01*
X24500000Y23469783D01*
X24739379Y23488623D01*
X24972863Y23544677D01*
X25194704Y23636567D01*
X25194708Y23636570D01*
X25194713Y23636572D01*
X25399431Y23762023D01*
X25399431Y23762024D01*
X25399439Y23762028D01*
X25582027Y23917973D01*
X25737972Y24100561D01*
X25737977Y24100569D01*
X25863428Y24305287D01*
X25863430Y24305292D01*
X25863433Y24305296D01*
X25955323Y24527137D01*
X26011377Y24760621D01*
X26030217Y25000000D01*
X26011377Y25239379D01*
X25955323Y25472863D01*
X25909378Y25583784D01*
X25863434Y25694702D01*
X25863428Y25694714D01*
X25737977Y25899432D01*
X25737967Y25899445D01*
X25582035Y26082018D01*
X25582032Y26082021D01*
X25582027Y26082027D01*
X25582020Y26082033D01*
X25582017Y26082036D01*
X25443895Y26200003D01*
X31344867Y26200003D01*
X31344867Y26199998D01*
X31363302Y26071775D01*
X31384787Y26024731D01*
X31417118Y25953937D01*
X31500162Y25858098D01*
X31501952Y25856032D01*
X31610926Y25785999D01*
X31610931Y25785996D01*
X31735228Y25749500D01*
X31735230Y25749500D01*
X31864770Y25749500D01*
X31864772Y25749500D01*
X31989069Y25785996D01*
X32098049Y25856033D01*
X32182882Y25953937D01*
X32236697Y26071774D01*
X32255133Y26200000D01*
X32252442Y26218714D01*
X32236697Y26328226D01*
X32182882Y26446062D01*
X32182882Y26446063D01*
X32098049Y26543967D01*
X32098048Y26543968D01*
X32098047Y26543969D01*
X31989073Y26614002D01*
X31989070Y26614004D01*
X31989069Y26614004D01*
X31989066Y26614005D01*
X31864774Y26650500D01*
X31864772Y26650500D01*
X31735228Y26650500D01*
X31735225Y26650500D01*
X31610933Y26614005D01*
X31610926Y26614002D01*
X31501952Y26543969D01*
X31417117Y26446062D01*
X31363302Y26328226D01*
X31344867Y26200003D01*
X25443895Y26200003D01*
X25399444Y26237968D01*
X25399431Y26237978D01*
X25194713Y26363429D01*
X25194701Y26363435D01*
X24972864Y26455323D01*
X24972865Y26455323D01*
X24739378Y26511378D01*
X24500000Y26530217D01*
X24260621Y26511378D01*
X24027135Y26455323D01*
X23805298Y26363435D01*
X23805286Y26363429D01*
X23600568Y26237978D01*
X23600555Y26237968D01*
X23417982Y26082036D01*
X23417964Y26082018D01*
X23262032Y25899445D01*
X23262022Y25899432D01*
X23136571Y25694714D01*
X23136565Y25694702D01*
X23044677Y25472865D01*
X22988622Y25239379D01*
X22969783Y25000000D01*
X12722154Y25000000D01*
X12709957Y25154991D01*
X12650245Y25403707D01*
X12552364Y25640014D01*
X12552358Y25640026D01*
X12418723Y25858098D01*
X12418713Y25858111D01*
X12334033Y25957258D01*
X11783622Y25406847D01*
X11760238Y25441844D01*
X11641844Y25560238D01*
X11606844Y25583624D01*
X12157256Y26134035D01*
X12058110Y26218714D01*
X12058097Y26218724D01*
X11840025Y26352359D01*
X11840013Y26352365D01*
X11603706Y26450246D01*
X11603707Y26450246D01*
X11354990Y26509958D01*
X11100000Y26530025D01*
X10845009Y26509958D01*
X10596293Y26450246D01*
X10359986Y26352365D01*
X10359974Y26352359D01*
X10141897Y26218721D01*
X10141892Y26218717D01*
X10042742Y26134035D01*
X10593154Y25583623D01*
X10558156Y25560238D01*
X10439762Y25441844D01*
X10416377Y25406846D01*
X9865965Y25957258D01*
X9781283Y25858108D01*
X9781279Y25858103D01*
X9647641Y25640026D01*
X9647635Y25640014D01*
X9549754Y25403707D01*
X9490042Y25154991D01*
X9469975Y24900000D01*
X300500Y24900000D01*
X300500Y25680765D01*
X2144868Y25680765D01*
X2144868Y25680760D01*
X2163303Y25552537D01*
X2199689Y25472865D01*
X2217119Y25434699D01*
X2301952Y25336795D01*
X2301953Y25336794D01*
X2355120Y25302626D01*
X2410932Y25266758D01*
X2535229Y25230262D01*
X2535231Y25230262D01*
X2664771Y25230262D01*
X2664773Y25230262D01*
X2789070Y25266758D01*
X2898050Y25336795D01*
X2982883Y25434699D01*
X3036698Y25552536D01*
X3042843Y25595278D01*
X3055134Y25680760D01*
X3055134Y25680765D01*
X3036698Y25808988D01*
X3014270Y25858098D01*
X2982883Y25926825D01*
X2898050Y26024729D01*
X2898049Y26024730D01*
X2898048Y26024731D01*
X2789074Y26094764D01*
X2789071Y26094766D01*
X2789070Y26094766D01*
X2789067Y26094767D01*
X2664775Y26131262D01*
X2664773Y26131262D01*
X2535229Y26131262D01*
X2535226Y26131262D01*
X2410934Y26094767D01*
X2410927Y26094764D01*
X2301953Y26024731D01*
X2217118Y25926824D01*
X2163303Y25808988D01*
X2144868Y25680765D01*
X300500Y25680765D01*
X300500Y27050003D01*
X6869353Y27050003D01*
X6869353Y27049998D01*
X6889834Y26907544D01*
X6949622Y26776629D01*
X6949623Y26776627D01*
X7043872Y26667857D01*
X7043873Y26667856D01*
X7127669Y26614004D01*
X7164947Y26590047D01*
X7271403Y26558789D01*
X7303035Y26549501D01*
X7303036Y26549501D01*
X7303039Y26549500D01*
X7303041Y26549500D01*
X7446959Y26549500D01*
X7446961Y26549500D01*
X7585053Y26590047D01*
X7706128Y26667857D01*
X7800377Y26776627D01*
X7856722Y26900003D01*
X38044867Y26900003D01*
X38044867Y26899998D01*
X38063302Y26771775D01*
X38110761Y26667857D01*
X38117118Y26653937D01*
X38172476Y26590050D01*
X38201952Y26556032D01*
X38271437Y26511377D01*
X38310931Y26485996D01*
X38435228Y26449500D01*
X38435230Y26449500D01*
X38564770Y26449500D01*
X38564772Y26449500D01*
X38689069Y26485996D01*
X38798049Y26556033D01*
X38882882Y26653937D01*
X38936697Y26771774D01*
X38955133Y26900000D01*
X38954048Y26907543D01*
X38936697Y27028226D01*
X38882882Y27146062D01*
X38882882Y27146063D01*
X38798049Y27243967D01*
X38798048Y27243968D01*
X38798047Y27243969D01*
X38689073Y27314002D01*
X38689070Y27314004D01*
X38689069Y27314004D01*
X38689066Y27314005D01*
X38564774Y27350500D01*
X38564772Y27350500D01*
X38435228Y27350500D01*
X38435225Y27350500D01*
X38310933Y27314005D01*
X38310926Y27314002D01*
X38201952Y27243969D01*
X38117117Y27146062D01*
X38063302Y27028226D01*
X38044867Y26900003D01*
X7856722Y26900003D01*
X7860165Y26907543D01*
X7866992Y26955029D01*
X7880647Y27049998D01*
X7880647Y27050003D01*
X7860165Y27192457D01*
X7836640Y27243969D01*
X7800377Y27323373D01*
X7706128Y27432143D01*
X7706127Y27432144D01*
X7706126Y27432145D01*
X7585057Y27509951D01*
X7585054Y27509953D01*
X7585053Y27509953D01*
X7585050Y27509954D01*
X7446964Y27550500D01*
X7446961Y27550500D01*
X7303039Y27550500D01*
X7303035Y27550500D01*
X7164949Y27509954D01*
X7164942Y27509951D01*
X7043873Y27432145D01*
X6949622Y27323372D01*
X6889834Y27192457D01*
X6869353Y27050003D01*
X300500Y27050003D01*
X300500Y28650003D01*
X33944353Y28650003D01*
X33944353Y28649998D01*
X33964834Y28507544D01*
X34024622Y28376629D01*
X34024623Y28376627D01*
X34118872Y28267857D01*
X34118873Y28267856D01*
X34239942Y28190050D01*
X34239947Y28190047D01*
X34346403Y28158789D01*
X34378035Y28149501D01*
X34378036Y28149501D01*
X34378039Y28149500D01*
X34378041Y28149500D01*
X34521959Y28149500D01*
X34521961Y28149500D01*
X34660053Y28190047D01*
X34781128Y28267857D01*
X34875377Y28376627D01*
X34935165Y28507543D01*
X34955647Y28650000D01*
X34935165Y28792457D01*
X34875377Y28923373D01*
X34781128Y29032143D01*
X34781127Y29032144D01*
X34781126Y29032145D01*
X34660057Y29109951D01*
X34660054Y29109953D01*
X34660053Y29109953D01*
X34660050Y29109954D01*
X34521964Y29150500D01*
X34521961Y29150500D01*
X34378039Y29150500D01*
X34378035Y29150500D01*
X34239949Y29109954D01*
X34239942Y29109951D01*
X34118873Y29032145D01*
X34024622Y28923372D01*
X33964834Y28792457D01*
X33944353Y28650003D01*
X300500Y28650003D01*
X300500Y29200003D01*
X25444867Y29200003D01*
X25444867Y29199998D01*
X25463302Y29071775D01*
X25481401Y29032145D01*
X25517118Y28953937D01*
X25601951Y28856033D01*
X25601952Y28856032D01*
X25700877Y28792457D01*
X25710931Y28785996D01*
X25835228Y28749500D01*
X25835230Y28749500D01*
X25964770Y28749500D01*
X25964772Y28749500D01*
X26089069Y28785996D01*
X26198049Y28856033D01*
X26282882Y28953937D01*
X26336697Y29071774D01*
X26355133Y29200000D01*
X26336697Y29328226D01*
X26282882Y29446063D01*
X26198049Y29543967D01*
X26198048Y29543968D01*
X26198047Y29543969D01*
X26089073Y29614002D01*
X26089070Y29614004D01*
X26089069Y29614004D01*
X26089066Y29614005D01*
X25964774Y29650500D01*
X25964772Y29650500D01*
X25835228Y29650500D01*
X25835225Y29650500D01*
X25710933Y29614005D01*
X25710926Y29614002D01*
X25601952Y29543969D01*
X25517117Y29446062D01*
X25463302Y29328226D01*
X25444867Y29200003D01*
X300500Y29200003D01*
X300500Y30500003D01*
X3144867Y30500003D01*
X3144867Y30499998D01*
X3163302Y30371775D01*
X3217117Y30253939D01*
X3217118Y30253937D01*
X3301951Y30156033D01*
X3301952Y30156032D01*
X3355259Y30121774D01*
X3410931Y30085996D01*
X3535228Y30049500D01*
X3535230Y30049500D01*
X3664770Y30049500D01*
X3664772Y30049500D01*
X3789069Y30085996D01*
X3898049Y30156033D01*
X3979473Y30250003D01*
X9244867Y30250003D01*
X9244867Y30249998D01*
X9263302Y30121775D01*
X9279641Y30085999D01*
X9317118Y30003937D01*
X9401951Y29906033D01*
X9401952Y29906032D01*
X9510926Y29835999D01*
X9510931Y29835996D01*
X9635228Y29799500D01*
X9635230Y29799500D01*
X9764770Y29799500D01*
X9764772Y29799500D01*
X9889069Y29835996D01*
X9998049Y29906033D01*
X10082882Y30003937D01*
X10136697Y30121774D01*
X10155133Y30250000D01*
X10136697Y30378226D01*
X10082882Y30496063D01*
X9998049Y30593967D01*
X9998048Y30593968D01*
X9998047Y30593969D01*
X9889073Y30664002D01*
X9889070Y30664004D01*
X9889069Y30664004D01*
X9889066Y30664005D01*
X9764774Y30700500D01*
X9764772Y30700500D01*
X9635228Y30700500D01*
X9635225Y30700500D01*
X9510933Y30664005D01*
X9510926Y30664002D01*
X9401952Y30593969D01*
X9317117Y30496062D01*
X9263302Y30378226D01*
X9244867Y30250003D01*
X3979473Y30250003D01*
X3982882Y30253937D01*
X4036697Y30371774D01*
X4055133Y30500000D01*
X4036697Y30628226D01*
X3982882Y30746063D01*
X3898049Y30843967D01*
X3898048Y30843968D01*
X3898047Y30843969D01*
X3789073Y30914002D01*
X3789070Y30914004D01*
X3789069Y30914004D01*
X3789066Y30914005D01*
X3664774Y30950500D01*
X3664772Y30950500D01*
X3535228Y30950500D01*
X3535225Y30950500D01*
X3410933Y30914005D01*
X3410926Y30914002D01*
X3301952Y30843969D01*
X3217117Y30746062D01*
X3163302Y30628226D01*
X3144867Y30500003D01*
X300500Y30500003D01*
X300500Y31150003D01*
X23794867Y31150003D01*
X23794867Y31149998D01*
X23813302Y31021775D01*
X23862521Y30914002D01*
X23867118Y30903937D01*
X23919080Y30843969D01*
X23951952Y30806032D01*
X24045266Y30746063D01*
X24060931Y30735996D01*
X24185228Y30699500D01*
X24185230Y30699500D01*
X24314770Y30699500D01*
X24314772Y30699500D01*
X24439069Y30735996D01*
X24548049Y30806033D01*
X24632882Y30903937D01*
X24686697Y31021774D01*
X24705133Y31150000D01*
X24686697Y31278226D01*
X24632882Y31396063D01*
X24548049Y31493967D01*
X24548048Y31493968D01*
X24548047Y31493969D01*
X24538663Y31500000D01*
X27919892Y31500000D01*
X27938283Y31301531D01*
X27992829Y31109820D01*
X28081674Y30931396D01*
X28201791Y30772336D01*
X28349090Y30638055D01*
X28518554Y30533127D01*
X28704414Y30461124D01*
X28900340Y30424500D01*
X29099660Y30424500D01*
X29295586Y30461124D01*
X29481446Y30533127D01*
X29650910Y30638055D01*
X29798209Y30772336D01*
X29918326Y30931396D01*
X30007171Y31109820D01*
X30061717Y31301531D01*
X30080108Y31500000D01*
X33419892Y31500000D01*
X33438283Y31301531D01*
X33492829Y31109820D01*
X33581674Y30931396D01*
X33701791Y30772336D01*
X33849090Y30638055D01*
X34018554Y30533127D01*
X34204414Y30461124D01*
X34400340Y30424500D01*
X34599660Y30424500D01*
X34795586Y30461124D01*
X34981446Y30533127D01*
X35150910Y30638055D01*
X35298209Y30772336D01*
X35418326Y30931396D01*
X35507171Y31109820D01*
X35561717Y31301531D01*
X35580108Y31500000D01*
X35561717Y31698469D01*
X35507171Y31890180D01*
X35418326Y32068604D01*
X35298209Y32227664D01*
X35150910Y32361945D01*
X34981446Y32466873D01*
X34795586Y32538876D01*
X34795585Y32538877D01*
X34795583Y32538877D01*
X34599660Y32575500D01*
X34400340Y32575500D01*
X34204416Y32538877D01*
X34018553Y32466873D01*
X34018548Y32466870D01*
X33849094Y32361948D01*
X33849092Y32361947D01*
X33849090Y32361945D01*
X33701791Y32227664D01*
X33701789Y32227662D01*
X33581680Y32068613D01*
X33581670Y32068597D01*
X33492829Y31890181D01*
X33438283Y31698471D01*
X33438283Y31698469D01*
X33419892Y31500000D01*
X30080108Y31500000D01*
X30061717Y31698469D01*
X30007171Y31890180D01*
X29918326Y32068604D01*
X29798209Y32227664D01*
X29650910Y32361945D01*
X29481446Y32466873D01*
X29295586Y32538876D01*
X29295585Y32538877D01*
X29295583Y32538877D01*
X29099660Y32575500D01*
X28900340Y32575500D01*
X28704416Y32538877D01*
X28518553Y32466873D01*
X28518548Y32466870D01*
X28349094Y32361948D01*
X28349092Y32361947D01*
X28349090Y32361945D01*
X28201791Y32227664D01*
X28201789Y32227662D01*
X28081680Y32068613D01*
X28081670Y32068597D01*
X27992829Y31890181D01*
X27938283Y31698471D01*
X27938283Y31698469D01*
X27919892Y31500000D01*
X24538663Y31500000D01*
X24439073Y31564002D01*
X24439070Y31564004D01*
X24439069Y31564004D01*
X24439066Y31564005D01*
X24314774Y31600500D01*
X24314772Y31600500D01*
X24185228Y31600500D01*
X24185225Y31600500D01*
X24060933Y31564005D01*
X24060926Y31564002D01*
X23951952Y31493969D01*
X23867117Y31396062D01*
X23813302Y31278226D01*
X23794867Y31150003D01*
X300500Y31150003D01*
X300500Y32900003D01*
X2144867Y32900003D01*
X2144867Y32899998D01*
X2163302Y32771775D01*
X2173475Y32749500D01*
X2217118Y32653937D01*
X2285083Y32575500D01*
X2301952Y32556032D01*
X2388255Y32500569D01*
X2410931Y32485996D01*
X2535228Y32449500D01*
X2535230Y32449500D01*
X2664770Y32449500D01*
X2664772Y32449500D01*
X2789069Y32485996D01*
X2898049Y32556033D01*
X2982882Y32653937D01*
X3036697Y32771774D01*
X3042842Y32814516D01*
X3055133Y32899998D01*
X3055133Y32900003D01*
X3036697Y33028226D01*
X3016809Y33071774D01*
X2982882Y33146063D01*
X2898049Y33243967D01*
X2898048Y33243968D01*
X2898047Y33243969D01*
X2789073Y33314002D01*
X2789070Y33314004D01*
X2789069Y33314004D01*
X2789066Y33314005D01*
X2664774Y33350500D01*
X2664772Y33350500D01*
X2535228Y33350500D01*
X2535225Y33350500D01*
X2410933Y33314005D01*
X2410926Y33314002D01*
X2301952Y33243969D01*
X2217117Y33146062D01*
X2163302Y33028226D01*
X2144867Y32900003D01*
X300500Y32900003D01*
X300500Y33400000D01*
X8669783Y33400000D01*
X8688622Y33160622D01*
X8744677Y32927136D01*
X8836565Y32705299D01*
X8836571Y32705287D01*
X8962022Y32500569D01*
X8962032Y32500556D01*
X9080414Y32361948D01*
X9117973Y32317973D01*
X9117979Y32317968D01*
X9117982Y32317965D01*
X9300555Y32162033D01*
X9300561Y32162028D01*
X9300563Y32162027D01*
X9300568Y32162023D01*
X9505286Y32036572D01*
X9505298Y32036566D01*
X9727135Y31944678D01*
X9727137Y31944677D01*
X9960621Y31888623D01*
X10200000Y31869783D01*
X10439379Y31888623D01*
X10672863Y31944677D01*
X10894704Y32036567D01*
X10894708Y32036570D01*
X10894713Y32036572D01*
X11099431Y32162023D01*
X11099431Y32162024D01*
X11099439Y32162028D01*
X11282027Y32317973D01*
X11437972Y32500561D01*
X11461452Y32538877D01*
X11563428Y32705287D01*
X11563430Y32705292D01*
X11563433Y32705296D01*
X11655323Y32927137D01*
X11711377Y33160621D01*
X11730217Y33400000D01*
X11711377Y33639379D01*
X11655323Y33872863D01*
X11586092Y34040000D01*
X27819966Y34040000D01*
X27840058Y33823170D01*
X27899652Y33613721D01*
X27996711Y33418800D01*
X27996716Y33418791D01*
X28085046Y33301825D01*
X28569269Y33786049D01*
X28599901Y33732993D01*
X28692993Y33639901D01*
X28746045Y33609271D01*
X28260736Y33123961D01*
X28288870Y33098314D01*
X28288873Y33098312D01*
X28474008Y32983681D01*
X28474013Y32983678D01*
X28677070Y32905013D01*
X28891120Y32865000D01*
X29108880Y32865000D01*
X29322929Y32905013D01*
X29525984Y32983678D01*
X29711129Y33098314D01*
X29739262Y33123961D01*
X29663220Y33200003D01*
X31244867Y33200003D01*
X31244867Y33199998D01*
X31263302Y33071775D01*
X31317117Y32953939D01*
X31317118Y32953937D01*
X31363854Y32900000D01*
X31401952Y32856032D01*
X31510926Y32785999D01*
X31510931Y32785996D01*
X31635228Y32749500D01*
X31635230Y32749500D01*
X31764770Y32749500D01*
X31764772Y32749500D01*
X31889069Y32785996D01*
X31998049Y32856033D01*
X32082882Y32953937D01*
X32136697Y33071774D01*
X32155133Y33200000D01*
X32148811Y33243969D01*
X32136697Y33328226D01*
X32126525Y33350500D01*
X32082882Y33446063D01*
X31998049Y33543967D01*
X31998048Y33543968D01*
X31998047Y33543969D01*
X31889073Y33614002D01*
X31889070Y33614004D01*
X31889069Y33614004D01*
X31889066Y33614005D01*
X31764774Y33650500D01*
X31764772Y33650500D01*
X31635228Y33650500D01*
X31635225Y33650500D01*
X31510933Y33614005D01*
X31510926Y33614002D01*
X31401952Y33543969D01*
X31317117Y33446062D01*
X31263302Y33328226D01*
X31244867Y33200003D01*
X29663220Y33200003D01*
X29253952Y33609271D01*
X29307007Y33639901D01*
X29400099Y33732993D01*
X29430729Y33786048D01*
X29914954Y33301823D01*
X30003277Y33418781D01*
X30003286Y33418796D01*
X30100347Y33613721D01*
X30159941Y33823170D01*
X30180033Y34040000D01*
X33319966Y34040000D01*
X33340058Y33823170D01*
X33399652Y33613721D01*
X33496711Y33418800D01*
X33496716Y33418791D01*
X33585046Y33301825D01*
X34069269Y33786049D01*
X34099901Y33732993D01*
X34192993Y33639901D01*
X34246045Y33609271D01*
X33760736Y33123961D01*
X33788870Y33098314D01*
X33788873Y33098312D01*
X33974008Y32983681D01*
X33974013Y32983678D01*
X34177070Y32905013D01*
X34391120Y32865000D01*
X34608880Y32865000D01*
X34822929Y32905013D01*
X35025984Y32983678D01*
X35211129Y33098314D01*
X35239262Y33123961D01*
X34753952Y33609271D01*
X34807007Y33639901D01*
X34900099Y33732993D01*
X34930729Y33786048D01*
X35414954Y33301823D01*
X35503277Y33418781D01*
X35503286Y33418796D01*
X35600347Y33613721D01*
X35659941Y33823170D01*
X35680033Y34040000D01*
X35659941Y34256831D01*
X35600347Y34466280D01*
X35503288Y34661201D01*
X35503283Y34661210D01*
X35414953Y34778177D01*
X34930729Y34293954D01*
X34900099Y34347007D01*
X34807007Y34440099D01*
X34753951Y34470731D01*
X35239262Y34956041D01*
X35211129Y34981687D01*
X35211126Y34981689D01*
X35025991Y35096320D01*
X35025986Y35096323D01*
X34822929Y35174988D01*
X34608880Y35215000D01*
X34391120Y35215000D01*
X34177070Y35174988D01*
X33974013Y35096323D01*
X33974008Y35096320D01*
X33788871Y34981688D01*
X33760736Y34956041D01*
X34246047Y34470730D01*
X34192993Y34440099D01*
X34099901Y34347007D01*
X34069270Y34293953D01*
X33585046Y34778177D01*
X33496716Y34661210D01*
X33496711Y34661201D01*
X33399652Y34466280D01*
X33340058Y34256831D01*
X33319966Y34040000D01*
X30180033Y34040000D01*
X30159941Y34256831D01*
X30100347Y34466280D01*
X30003288Y34661201D01*
X30003283Y34661210D01*
X29914953Y34778177D01*
X29430729Y34293954D01*
X29400099Y34347007D01*
X29307007Y34440099D01*
X29253951Y34470731D01*
X29739262Y34956041D01*
X29711129Y34981687D01*
X29711126Y34981689D01*
X29525991Y35096320D01*
X29525986Y35096323D01*
X29322929Y35174988D01*
X29108880Y35215000D01*
X28891120Y35215000D01*
X28677070Y35174988D01*
X28474013Y35096323D01*
X28474008Y35096320D01*
X28288871Y34981688D01*
X28260736Y34956041D01*
X28746047Y34470730D01*
X28692993Y34440099D01*
X28599901Y34347007D01*
X28569270Y34293953D01*
X28085046Y34778177D01*
X27996716Y34661210D01*
X27996711Y34661201D01*
X27899652Y34466280D01*
X27840058Y34256831D01*
X27819966Y34040000D01*
X11586092Y34040000D01*
X11563433Y34094704D01*
X11563428Y34094714D01*
X11437977Y34299432D01*
X11437967Y34299445D01*
X11282035Y34482018D01*
X11282032Y34482021D01*
X11282027Y34482027D01*
X11282020Y34482033D01*
X11282017Y34482036D01*
X11143895Y34600003D01*
X21144867Y34600003D01*
X21144867Y34599998D01*
X21163302Y34471775D01*
X21217117Y34353939D01*
X21217118Y34353937D01*
X21301260Y34256831D01*
X21301952Y34256032D01*
X21337802Y34232993D01*
X21410931Y34185996D01*
X21535228Y34149500D01*
X21535230Y34149500D01*
X21664770Y34149500D01*
X21664772Y34149500D01*
X21789069Y34185996D01*
X21898049Y34256033D01*
X21982882Y34353937D01*
X22036697Y34471774D01*
X22055133Y34600000D01*
X22049673Y34637972D01*
X22036697Y34728226D01*
X21982882Y34846062D01*
X21982882Y34846063D01*
X21898049Y34943967D01*
X21898048Y34943968D01*
X21898047Y34943969D01*
X21789073Y35014002D01*
X21789070Y35014004D01*
X21789069Y35014004D01*
X21789066Y35014005D01*
X21664774Y35050500D01*
X21664772Y35050500D01*
X21535228Y35050500D01*
X21535225Y35050500D01*
X21410933Y35014005D01*
X21410926Y35014002D01*
X21301952Y34943969D01*
X21217117Y34846062D01*
X21163302Y34728226D01*
X21144867Y34600003D01*
X11143895Y34600003D01*
X11099444Y34637968D01*
X11099431Y34637978D01*
X10894713Y34763429D01*
X10894701Y34763435D01*
X10672864Y34855323D01*
X10672865Y34855323D01*
X10439378Y34911378D01*
X10200000Y34930217D01*
X9960621Y34911378D01*
X9727135Y34855323D01*
X9505298Y34763435D01*
X9505286Y34763429D01*
X9300568Y34637978D01*
X9300555Y34637968D01*
X9117982Y34482036D01*
X9117964Y34482018D01*
X8962032Y34299445D01*
X8962022Y34299432D01*
X8836571Y34094714D01*
X8836565Y34094702D01*
X8744677Y33872865D01*
X8688622Y33639379D01*
X8669783Y33400000D01*
X300500Y33400000D01*
X300500Y37600000D01*
X1069615Y37600000D01*
X1089123Y37364568D01*
X1109020Y37285996D01*
X1147117Y37135555D01*
X1242014Y36919212D01*
X1371225Y36721439D01*
X1371229Y36721433D01*
X1531224Y36547635D01*
X1531223Y36547635D01*
X1531227Y36547632D01*
X1717654Y36402530D01*
X1925421Y36290092D01*
X2148861Y36213384D01*
X2381880Y36174500D01*
X2618120Y36174500D01*
X2851139Y36213384D01*
X3074579Y36290092D01*
X3282346Y36402530D01*
X3468773Y36547632D01*
X3524374Y36608030D01*
X3628770Y36721433D01*
X3628771Y36721435D01*
X3628775Y36721439D01*
X3757986Y36919212D01*
X3852883Y37135555D01*
X3904029Y37337530D01*
X3936643Y37389298D01*
X3993457Y37412010D01*
X4052770Y37396989D01*
X4091927Y37349974D01*
X4095969Y37337534D01*
X4147117Y37135555D01*
X4242014Y36919212D01*
X4371225Y36721439D01*
X4371229Y36721433D01*
X4531224Y36547635D01*
X4531223Y36547635D01*
X4531227Y36547632D01*
X4717654Y36402530D01*
X4925421Y36290092D01*
X5148861Y36213384D01*
X5381880Y36174500D01*
X5618120Y36174500D01*
X5851139Y36213384D01*
X6074579Y36290092D01*
X6282346Y36402530D01*
X6468773Y36547632D01*
X6524374Y36608030D01*
X6628770Y36721433D01*
X6628771Y36721435D01*
X6628775Y36721439D01*
X6757986Y36919212D01*
X6852883Y37135555D01*
X6904029Y37337530D01*
X6936643Y37389298D01*
X6993457Y37412010D01*
X7052770Y37396989D01*
X7091927Y37349974D01*
X7095969Y37337534D01*
X7147117Y37135555D01*
X7242014Y36919212D01*
X7371225Y36721439D01*
X7371229Y36721433D01*
X7531224Y36547635D01*
X7531223Y36547635D01*
X7531227Y36547632D01*
X7717654Y36402530D01*
X7925421Y36290092D01*
X8148861Y36213384D01*
X8381880Y36174500D01*
X8618120Y36174500D01*
X8851139Y36213384D01*
X9074579Y36290092D01*
X9282346Y36402530D01*
X9468773Y36547632D01*
X9524374Y36608030D01*
X9628770Y36721433D01*
X9628771Y36721435D01*
X9628775Y36721439D01*
X9757986Y36919212D01*
X9852883Y37135555D01*
X9910876Y37364566D01*
X9930385Y37600000D01*
X9922098Y37700003D01*
X13244867Y37700003D01*
X13244867Y37699998D01*
X13263302Y37571775D01*
X13297157Y37497645D01*
X13317118Y37453937D01*
X13394557Y37364566D01*
X13401952Y37356032D01*
X13496195Y37295466D01*
X13510931Y37285996D01*
X13635228Y37249500D01*
X13635230Y37249500D01*
X13764770Y37249500D01*
X13764772Y37249500D01*
X13889069Y37285996D01*
X13998049Y37356033D01*
X14082882Y37453937D01*
X14136697Y37571774D01*
X14155133Y37700000D01*
X14154794Y37702356D01*
X20599500Y37702356D01*
X20599500Y37497645D01*
X20631521Y37295471D01*
X20694780Y37100781D01*
X20787712Y36918391D01*
X20787714Y36918387D01*
X20908029Y36752787D01*
X20908031Y36752785D01*
X20908034Y36752781D01*
X21052781Y36608034D01*
X21052784Y36608032D01*
X21052786Y36608030D01*
X21218386Y36487715D01*
X21218390Y36487713D01*
X21400781Y36394780D01*
X21595466Y36331523D01*
X21595467Y36331523D01*
X21595470Y36331522D01*
X21797645Y36299500D01*
X21797648Y36299500D01*
X22002355Y36299500D01*
X22204529Y36331522D01*
X22204530Y36331523D01*
X22204534Y36331523D01*
X22399219Y36394780D01*
X22581610Y36487713D01*
X22747219Y36608034D01*
X22891966Y36752781D01*
X23012287Y36918390D01*
X23105220Y37100781D01*
X23168477Y37295466D01*
X23175139Y37337529D01*
X23200500Y37497645D01*
X23200500Y37702356D01*
X23168478Y37904530D01*
X23168477Y37904534D01*
X23105220Y38099219D01*
X23012287Y38281610D01*
X23012285Y38281614D01*
X22891970Y38447214D01*
X22891968Y38447216D01*
X22891966Y38447219D01*
X22747219Y38591966D01*
X22747215Y38591969D01*
X22747213Y38591971D01*
X22581613Y38712286D01*
X22581609Y38712288D01*
X22399219Y38805220D01*
X22204529Y38868479D01*
X22002355Y38900500D01*
X22002352Y38900500D01*
X21797648Y38900500D01*
X21797645Y38900500D01*
X21595470Y38868479D01*
X21400780Y38805220D01*
X21218390Y38712288D01*
X21218386Y38712286D01*
X21052786Y38591971D01*
X20908029Y38447214D01*
X20787714Y38281614D01*
X20787712Y38281610D01*
X20694780Y38099220D01*
X20631521Y37904530D01*
X20599500Y37702356D01*
X14154794Y37702356D01*
X14136697Y37828226D01*
X14110314Y37885996D01*
X14082882Y37946063D01*
X13998049Y38043967D01*
X13998048Y38043968D01*
X13998047Y38043969D01*
X13889073Y38114002D01*
X13889070Y38114004D01*
X13889069Y38114004D01*
X13889066Y38114005D01*
X13764774Y38150500D01*
X13764772Y38150500D01*
X13635228Y38150500D01*
X13635225Y38150500D01*
X13510933Y38114005D01*
X13510926Y38114002D01*
X13401952Y38043969D01*
X13317117Y37946062D01*
X13263302Y37828226D01*
X13244867Y37700003D01*
X9922098Y37700003D01*
X9910876Y37835434D01*
X9852883Y38064445D01*
X9757986Y38280788D01*
X9745432Y38300003D01*
X16644867Y38300003D01*
X16644867Y38299998D01*
X16663302Y38171775D01*
X16696438Y38099219D01*
X16717118Y38053937D01*
X16801951Y37956033D01*
X16801952Y37956032D01*
X16817466Y37946062D01*
X16910931Y37885996D01*
X17035228Y37849500D01*
X17035230Y37849500D01*
X17164770Y37849500D01*
X17164772Y37849500D01*
X17289069Y37885996D01*
X17398049Y37956033D01*
X17482882Y38053937D01*
X17536697Y38171774D01*
X17542842Y38214516D01*
X17555133Y38299998D01*
X17555133Y38300003D01*
X17536697Y38428226D01*
X17528023Y38447219D01*
X17482882Y38546063D01*
X17398049Y38643967D01*
X17398048Y38643968D01*
X17398047Y38643969D01*
X17289073Y38714002D01*
X17289070Y38714004D01*
X17289069Y38714004D01*
X17289066Y38714005D01*
X17164774Y38750500D01*
X17164772Y38750500D01*
X17035228Y38750500D01*
X17035225Y38750500D01*
X16910933Y38714005D01*
X16910926Y38714002D01*
X16801952Y38643969D01*
X16717117Y38546062D01*
X16663302Y38428226D01*
X16644867Y38300003D01*
X9745432Y38300003D01*
X9628775Y38478561D01*
X9628773Y38478563D01*
X9628770Y38478568D01*
X9468775Y38652366D01*
X9468776Y38652366D01*
X9282349Y38797468D01*
X9282346Y38797470D01*
X9074583Y38909906D01*
X9074582Y38909907D01*
X9074579Y38909908D01*
X8851139Y38986616D01*
X8851136Y38986617D01*
X8851135Y38986617D01*
X8618120Y39025500D01*
X8381880Y39025500D01*
X8148864Y38986617D01*
X8148861Y38986617D01*
X8148861Y38986616D01*
X7925421Y38909908D01*
X7925419Y38909908D01*
X7925416Y38909906D01*
X7717653Y38797470D01*
X7717650Y38797468D01*
X7531223Y38652366D01*
X7371229Y38478568D01*
X7287043Y38349711D01*
X7254565Y38299998D01*
X7242013Y38280786D01*
X7147117Y38064446D01*
X7095971Y37862472D01*
X7063357Y37810703D01*
X7006543Y37787991D01*
X6947230Y37803012D01*
X6908073Y37850027D01*
X6904029Y37862472D01*
X6898071Y37885999D01*
X6852883Y38064445D01*
X6757986Y38280788D01*
X6628775Y38478561D01*
X6628773Y38478563D01*
X6628770Y38478568D01*
X6468775Y38652366D01*
X6468776Y38652366D01*
X6282349Y38797468D01*
X6282346Y38797470D01*
X6074583Y38909906D01*
X6074582Y38909907D01*
X6074579Y38909908D01*
X5851139Y38986616D01*
X5851136Y38986617D01*
X5851135Y38986617D01*
X5618120Y39025500D01*
X5381880Y39025500D01*
X5148864Y38986617D01*
X5148861Y38986617D01*
X5148861Y38986616D01*
X4925421Y38909908D01*
X4925419Y38909908D01*
X4925416Y38909906D01*
X4717653Y38797470D01*
X4717650Y38797468D01*
X4531223Y38652366D01*
X4371229Y38478568D01*
X4287043Y38349711D01*
X4254565Y38299998D01*
X4242013Y38280786D01*
X4147117Y38064446D01*
X4095971Y37862472D01*
X4063357Y37810703D01*
X4006543Y37787991D01*
X3947230Y37803012D01*
X3908073Y37850027D01*
X3904029Y37862472D01*
X3898071Y37885999D01*
X3852883Y38064445D01*
X3757986Y38280788D01*
X3628775Y38478561D01*
X3628773Y38478563D01*
X3628770Y38478568D01*
X3468775Y38652366D01*
X3468776Y38652366D01*
X3282349Y38797468D01*
X3282346Y38797470D01*
X3074583Y38909906D01*
X3074582Y38909907D01*
X3074579Y38909908D01*
X2851139Y38986616D01*
X2851136Y38986617D01*
X2851135Y38986617D01*
X2618120Y39025500D01*
X2381880Y39025500D01*
X2148864Y38986617D01*
X2148861Y38986617D01*
X2148861Y38986616D01*
X1925421Y38909908D01*
X1925419Y38909908D01*
X1925416Y38909906D01*
X1717653Y38797470D01*
X1717650Y38797468D01*
X1531223Y38652366D01*
X1371229Y38478568D01*
X1287043Y38349711D01*
X1254565Y38299998D01*
X1242013Y38280786D01*
X1147117Y38064446D01*
X1089123Y37835433D01*
X1069615Y37600000D01*
X300500Y37600000D01*
X300500Y39500003D01*
X6344867Y39500003D01*
X6344867Y39499998D01*
X6363302Y39371775D01*
X6389839Y39313669D01*
X6417118Y39253937D01*
X6501951Y39156033D01*
X6501952Y39156032D01*
X6589140Y39100000D01*
X6610931Y39085996D01*
X6735228Y39049500D01*
X6735230Y39049500D01*
X6864770Y39049500D01*
X6864772Y39049500D01*
X6989069Y39085996D01*
X7010864Y39100003D01*
X12244867Y39100003D01*
X12244867Y39099998D01*
X12263302Y38971775D01*
X12295853Y38900500D01*
X12317118Y38853937D01*
X12381175Y38780010D01*
X12401952Y38756032D01*
X12480022Y38705860D01*
X12510931Y38685996D01*
X12635228Y38649500D01*
X12635230Y38649500D01*
X12764770Y38649500D01*
X12764772Y38649500D01*
X12889069Y38685996D01*
X12998049Y38756033D01*
X13082882Y38853937D01*
X13136697Y38971774D01*
X13147872Y39049500D01*
X13155133Y39099998D01*
X13155133Y39100003D01*
X13136697Y39228226D01*
X13097676Y39313669D01*
X13082882Y39346063D01*
X12998049Y39443967D01*
X12998048Y39443968D01*
X12998047Y39443969D01*
X12889073Y39514002D01*
X12889070Y39514004D01*
X12889069Y39514004D01*
X12889066Y39514005D01*
X12764774Y39550500D01*
X12764772Y39550500D01*
X12635228Y39550500D01*
X12635225Y39550500D01*
X12510933Y39514005D01*
X12510926Y39514002D01*
X12401952Y39443969D01*
X12317117Y39346062D01*
X12263302Y39228226D01*
X12244867Y39100003D01*
X7010864Y39100003D01*
X7098049Y39156033D01*
X7182882Y39253937D01*
X7236697Y39371774D01*
X7247077Y39443969D01*
X7255133Y39499998D01*
X7255133Y39500003D01*
X7236697Y39628226D01*
X7182882Y39746062D01*
X7182882Y39746063D01*
X7098049Y39843967D01*
X7098048Y39843968D01*
X7098047Y39843969D01*
X6989073Y39914002D01*
X6989070Y39914004D01*
X6989069Y39914004D01*
X6989066Y39914005D01*
X6864774Y39950500D01*
X6864772Y39950500D01*
X6735228Y39950500D01*
X6735225Y39950500D01*
X6610933Y39914005D01*
X6610926Y39914002D01*
X6501952Y39843969D01*
X6417117Y39746062D01*
X6363302Y39628226D01*
X6344867Y39500003D01*
X300500Y39500003D01*
X300500Y40194870D01*
X32949500Y40194870D01*
X32949500Y38805140D01*
X32949501Y38805137D01*
X32952414Y38780010D01*
X32963001Y38756033D01*
X32997794Y38677235D01*
X33077235Y38597794D01*
X33180009Y38552415D01*
X33205135Y38549500D01*
X34594864Y38549501D01*
X34619991Y38552415D01*
X34722765Y38597794D01*
X34802206Y38677235D01*
X34847585Y38780009D01*
X34850500Y38805135D01*
X34850499Y39500005D01*
X36144901Y39500005D01*
X36144901Y39499996D01*
X36163251Y39313675D01*
X36163252Y39313672D01*
X36217605Y39134496D01*
X36217606Y39134494D01*
X36305859Y38969383D01*
X36305862Y38969378D01*
X36305864Y38969375D01*
X36354668Y38909908D01*
X36424638Y38824648D01*
X36424647Y38824639D01*
X36479026Y38780012D01*
X36569375Y38705864D01*
X36569380Y38705862D01*
X36569382Y38705860D01*
X36669463Y38652366D01*
X36734499Y38617604D01*
X36913669Y38563253D01*
X36913671Y38563253D01*
X36913674Y38563252D01*
X37099996Y38544901D01*
X37100000Y38544901D01*
X37100004Y38544901D01*
X37286325Y38563252D01*
X37286326Y38563253D01*
X37286331Y38563253D01*
X37465501Y38617604D01*
X37630625Y38705864D01*
X37775357Y38824643D01*
X37894136Y38969375D01*
X37982396Y39134499D01*
X38036747Y39313669D01*
X38039938Y39346062D01*
X38055099Y39499996D01*
X38055099Y39500005D01*
X38036748Y39686326D01*
X38036747Y39686329D01*
X38036747Y39686331D01*
X37982396Y39865501D01*
X37956470Y39914005D01*
X37894140Y40030618D01*
X37894138Y40030620D01*
X37894136Y40030625D01*
X37830755Y40107855D01*
X37775361Y40175353D01*
X37775352Y40175362D01*
X37690978Y40244605D01*
X37630625Y40294136D01*
X37630622Y40294138D01*
X37630617Y40294141D01*
X37465506Y40382394D01*
X37465504Y40382395D01*
X37286328Y40436748D01*
X37286325Y40436749D01*
X37100004Y40455099D01*
X37099996Y40455099D01*
X36913674Y40436749D01*
X36913671Y40436748D01*
X36734495Y40382395D01*
X36734493Y40382394D01*
X36569382Y40294141D01*
X36569376Y40294137D01*
X36424647Y40175362D01*
X36424638Y40175353D01*
X36305863Y40030624D01*
X36305859Y40030618D01*
X36217606Y39865507D01*
X36217605Y39865505D01*
X36163252Y39686329D01*
X36163251Y39686326D01*
X36144901Y39500005D01*
X34850499Y39500005D01*
X34850499Y40194864D01*
X34847585Y40219991D01*
X34802206Y40322765D01*
X34722765Y40402206D01*
X34619991Y40447585D01*
X34619990Y40447586D01*
X34619988Y40447586D01*
X34594868Y40450500D01*
X33205139Y40450500D01*
X33205136Y40450499D01*
X33180009Y40447586D01*
X33077235Y40402206D01*
X32997794Y40322765D01*
X32952414Y40219989D01*
X32949500Y40194870D01*
X300500Y40194870D01*
X300500Y40800003D01*
X24194353Y40800003D01*
X24194353Y40799998D01*
X24214834Y40657544D01*
X24274622Y40526629D01*
X24274623Y40526627D01*
X24336602Y40455099D01*
X24368873Y40417856D01*
X24489942Y40340050D01*
X24489947Y40340047D01*
X24596403Y40308789D01*
X24628035Y40299501D01*
X24628036Y40299501D01*
X24628039Y40299500D01*
X24628041Y40299500D01*
X24771959Y40299500D01*
X24771961Y40299500D01*
X24910053Y40340047D01*
X25031128Y40417857D01*
X25125377Y40526627D01*
X25185165Y40657543D01*
X25205647Y40800000D01*
X25185165Y40942457D01*
X25125377Y41073373D01*
X25031128Y41182143D01*
X25031127Y41182144D01*
X25031126Y41182145D01*
X24910057Y41259951D01*
X24910054Y41259953D01*
X24910053Y41259953D01*
X24910050Y41259954D01*
X24771964Y41300500D01*
X24771961Y41300500D01*
X24628039Y41300500D01*
X24628035Y41300500D01*
X24489949Y41259954D01*
X24489942Y41259951D01*
X24368873Y41182145D01*
X24274622Y41073372D01*
X24214834Y40942457D01*
X24194353Y40800003D01*
X300500Y40800003D01*
X300500Y41500003D01*
X4444867Y41500003D01*
X4444867Y41499998D01*
X4463302Y41371775D01*
X4514371Y41259951D01*
X4517118Y41253937D01*
X4579325Y41182145D01*
X4601952Y41156032D01*
X4710926Y41085999D01*
X4710931Y41085996D01*
X4835228Y41049500D01*
X4835230Y41049500D01*
X4964770Y41049500D01*
X4964772Y41049500D01*
X5089069Y41085996D01*
X5198049Y41156033D01*
X5282882Y41253937D01*
X5336697Y41371774D01*
X5355133Y41500000D01*
X5336697Y41628226D01*
X5282882Y41746063D01*
X5198049Y41843967D01*
X5198048Y41843968D01*
X5198047Y41843969D01*
X5089073Y41914002D01*
X5089070Y41914004D01*
X5089069Y41914004D01*
X5089066Y41914005D01*
X4964774Y41950500D01*
X4964772Y41950500D01*
X4835228Y41950500D01*
X4835225Y41950500D01*
X4710933Y41914005D01*
X4710926Y41914002D01*
X4601952Y41843969D01*
X4517117Y41746062D01*
X4463302Y41628226D01*
X4444867Y41500003D01*
X300500Y41500003D01*
X300500Y43100003D01*
X18794867Y43100003D01*
X18794867Y43099998D01*
X18813302Y42971775D01*
X18833757Y42926986D01*
X18867118Y42853937D01*
X18951951Y42756033D01*
X18951952Y42756032D01*
X19039140Y42700000D01*
X19060931Y42685996D01*
X19185228Y42649500D01*
X19185230Y42649500D01*
X19314770Y42649500D01*
X19314772Y42649500D01*
X19439069Y42685996D01*
X19460864Y42700003D01*
X22844867Y42700003D01*
X22844867Y42699998D01*
X22863302Y42571775D01*
X22917117Y42453939D01*
X22917118Y42453937D01*
X23001951Y42356033D01*
X23001952Y42356032D01*
X23110926Y42285999D01*
X23110931Y42285996D01*
X23235228Y42249500D01*
X23235230Y42249500D01*
X23364770Y42249500D01*
X23364772Y42249500D01*
X23489069Y42285996D01*
X23598049Y42356033D01*
X23682882Y42453937D01*
X23736697Y42571774D01*
X23747872Y42649500D01*
X23755133Y42699998D01*
X23755133Y42700003D01*
X23736697Y42828226D01*
X23691594Y42926986D01*
X23682882Y42946063D01*
X23598049Y43043967D01*
X23598048Y43043968D01*
X23598047Y43043969D01*
X23489073Y43114002D01*
X23489070Y43114004D01*
X23489069Y43114004D01*
X23489066Y43114005D01*
X23364774Y43150500D01*
X23364772Y43150500D01*
X23235228Y43150500D01*
X23235225Y43150500D01*
X23110933Y43114005D01*
X23110926Y43114002D01*
X23001952Y43043969D01*
X22917117Y42946062D01*
X22863302Y42828226D01*
X22844867Y42700003D01*
X19460864Y42700003D01*
X19548049Y42756033D01*
X19632882Y42853937D01*
X19686697Y42971774D01*
X19705133Y43100000D01*
X19703119Y43114005D01*
X19686697Y43228226D01*
X19654624Y43298455D01*
X19632882Y43346063D01*
X19548049Y43443967D01*
X19548048Y43443968D01*
X19548047Y43443969D01*
X19439073Y43514002D01*
X19439070Y43514004D01*
X19439069Y43514004D01*
X19439066Y43514005D01*
X19314774Y43550500D01*
X19314772Y43550500D01*
X19185228Y43550500D01*
X19185225Y43550500D01*
X19060933Y43514005D01*
X19060926Y43514002D01*
X18951952Y43443969D01*
X18867117Y43346062D01*
X18813302Y43228226D01*
X18794867Y43100003D01*
X300500Y43100003D01*
X300500Y44400003D01*
X19694867Y44400003D01*
X19694867Y44399998D01*
X19713302Y44271775D01*
X19732264Y44230255D01*
X19767118Y44153937D01*
X19775083Y44144745D01*
X19851952Y44056032D01*
X19960926Y43985999D01*
X19960931Y43985996D01*
X20085228Y43949500D01*
X20085230Y43949500D01*
X20214770Y43949500D01*
X20214772Y43949500D01*
X20339069Y43985996D01*
X20448049Y44056033D01*
X20532882Y44153937D01*
X20586697Y44271774D01*
X20597864Y44349444D01*
X20605133Y44399998D01*
X20605133Y44400003D01*
X20586697Y44528226D01*
X20532882Y44646062D01*
X20532882Y44646063D01*
X20494259Y44690637D01*
X27500000Y44690637D01*
X27500000Y44125001D01*
X27500001Y44125000D01*
X28145265Y44125000D01*
X28125000Y44049370D01*
X28125000Y43950630D01*
X28145265Y43875000D01*
X27500001Y43875000D01*
X27500000Y43874999D01*
X27500000Y43309364D01*
X27502899Y43272511D01*
X27548719Y43114800D01*
X27548719Y43114799D01*
X27632314Y42973448D01*
X27748447Y42857315D01*
X27889799Y42773720D01*
X28047510Y42727900D01*
X28084363Y42725000D01*
X28374999Y42725000D01*
X28375000Y42725001D01*
X28375000Y43645266D01*
X28450630Y43625000D01*
X28549370Y43625000D01*
X28625000Y43645266D01*
X28625000Y42725001D01*
X28625001Y42725000D01*
X28915637Y42725000D01*
X28952489Y42727900D01*
X29110200Y42773720D01*
X29110201Y42773720D01*
X29251552Y42857315D01*
X29367685Y42973448D01*
X29451280Y43114799D01*
X29451280Y43114800D01*
X29497099Y43272511D01*
X29499175Y43298881D01*
X29522589Y43355409D01*
X29574757Y43387379D01*
X29635754Y43382580D01*
X29682281Y43342844D01*
X29689334Y43329000D01*
X29701985Y43298456D01*
X29701985Y43298455D01*
X29748911Y43228226D01*
X29800536Y43150965D01*
X29925965Y43025536D01*
X30073453Y42926987D01*
X30237334Y42859106D01*
X30411309Y42824500D01*
X30411310Y42824500D01*
X30588690Y42824500D01*
X30588691Y42824500D01*
X30762666Y42859106D01*
X30926547Y42926987D01*
X31074035Y43025536D01*
X31199464Y43150965D01*
X31298013Y43298453D01*
X31365894Y43462334D01*
X31400500Y43636309D01*
X31400500Y44363691D01*
X31365894Y44537666D01*
X31298014Y44701545D01*
X31298014Y44701546D01*
X31199464Y44849035D01*
X31074034Y44974465D01*
X30926544Y45073015D01*
X30762666Y45140894D01*
X30588693Y45175500D01*
X30588691Y45175500D01*
X30411309Y45175500D01*
X30411306Y45175500D01*
X30237334Y45140894D01*
X30237332Y45140894D01*
X30073455Y45073015D01*
X30073454Y45073015D01*
X29925965Y44974465D01*
X29800535Y44849035D01*
X29701986Y44701547D01*
X29689334Y44671000D01*
X29649597Y44624475D01*
X29590103Y44610191D01*
X29533575Y44633606D01*
X29501605Y44685775D01*
X29499175Y44701120D01*
X29497100Y44727490D01*
X29451280Y44885201D01*
X29451280Y44885202D01*
X29367685Y45026553D01*
X29251552Y45142686D01*
X29110200Y45226281D01*
X28952489Y45272101D01*
X28915637Y45275000D01*
X28625001Y45275000D01*
X28625000Y45274999D01*
X28625000Y44354735D01*
X28549370Y44375000D01*
X28450630Y44375000D01*
X28375000Y44354735D01*
X28375000Y45274999D01*
X28374999Y45275000D01*
X28084363Y45275000D01*
X28047510Y45272101D01*
X27889799Y45226281D01*
X27889798Y45226281D01*
X27748447Y45142686D01*
X27632314Y45026553D01*
X27548719Y44885202D01*
X27548719Y44885201D01*
X27502899Y44727490D01*
X27500000Y44690637D01*
X20494259Y44690637D01*
X20448049Y44743967D01*
X20448048Y44743968D01*
X20448047Y44743969D01*
X20339073Y44814002D01*
X20339070Y44814004D01*
X20339069Y44814004D01*
X20339066Y44814005D01*
X20214774Y44850500D01*
X20214772Y44850500D01*
X20085228Y44850500D01*
X20085225Y44850500D01*
X19960933Y44814005D01*
X19960926Y44814002D01*
X19851952Y44743969D01*
X19767117Y44646062D01*
X19713302Y44528226D01*
X19694867Y44400003D01*
X300500Y44400003D01*
X300500Y46600003D01*
X12644867Y46600003D01*
X12644867Y46599998D01*
X12663302Y46471775D01*
X12673475Y46449500D01*
X12717118Y46353937D01*
X12801951Y46256033D01*
X12801952Y46256032D01*
X12910926Y46185999D01*
X12910931Y46185996D01*
X13035228Y46149500D01*
X13035230Y46149500D01*
X13164770Y46149500D01*
X13164772Y46149500D01*
X13289069Y46185996D01*
X13398049Y46256033D01*
X13482882Y46353937D01*
X13536697Y46471774D01*
X13542842Y46514516D01*
X13555133Y46599998D01*
X13555133Y46600003D01*
X13536697Y46728226D01*
X13516809Y46771774D01*
X13482882Y46846063D01*
X13436143Y46900003D01*
X37044867Y46900003D01*
X37044867Y46899998D01*
X37063302Y46771775D01*
X37083191Y46728226D01*
X37117118Y46653937D01*
X37163854Y46600000D01*
X37201952Y46556032D01*
X37310926Y46485999D01*
X37310931Y46485996D01*
X37435228Y46449500D01*
X37435230Y46449500D01*
X37564770Y46449500D01*
X37564772Y46449500D01*
X37689069Y46485996D01*
X37798049Y46556033D01*
X37882882Y46653937D01*
X37936697Y46771774D01*
X37955133Y46900000D01*
X37948811Y46943969D01*
X37936697Y47028226D01*
X37882882Y47146062D01*
X37882882Y47146063D01*
X37798049Y47243967D01*
X37798048Y47243968D01*
X37798047Y47243969D01*
X37689073Y47314002D01*
X37689070Y47314004D01*
X37689069Y47314004D01*
X37689066Y47314005D01*
X37564774Y47350500D01*
X37564772Y47350500D01*
X37435228Y47350500D01*
X37435225Y47350500D01*
X37310933Y47314005D01*
X37310926Y47314002D01*
X37201952Y47243969D01*
X37117117Y47146062D01*
X37063302Y47028226D01*
X37044867Y46900003D01*
X13436143Y46900003D01*
X13398049Y46943967D01*
X13398048Y46943968D01*
X13398047Y46943969D01*
X13289073Y47014002D01*
X13289070Y47014004D01*
X13289069Y47014004D01*
X13289066Y47014005D01*
X13164774Y47050500D01*
X13164772Y47050500D01*
X13035228Y47050500D01*
X13035225Y47050500D01*
X12910933Y47014005D01*
X12910926Y47014002D01*
X12801952Y46943969D01*
X12717117Y46846062D01*
X12663302Y46728226D01*
X12644867Y46600003D01*
X300500Y46600003D01*
X300500Y47400003D01*
X3844867Y47400003D01*
X3844867Y47399998D01*
X3863302Y47271775D01*
X3876001Y47243969D01*
X3917118Y47153937D01*
X3923941Y47146063D01*
X4001952Y47056032D01*
X4110926Y46985999D01*
X4110931Y46985996D01*
X4235228Y46949500D01*
X4235230Y46949500D01*
X4364770Y46949500D01*
X4364772Y46949500D01*
X4489069Y46985996D01*
X4598049Y47056033D01*
X4682882Y47153937D01*
X4736697Y47271774D01*
X4755133Y47400000D01*
X4736697Y47528226D01*
X4682882Y47646063D01*
X4598049Y47743967D01*
X4598048Y47743968D01*
X4598047Y47743969D01*
X4489073Y47814002D01*
X4489070Y47814004D01*
X4489069Y47814004D01*
X4489066Y47814005D01*
X4364774Y47850500D01*
X4364772Y47850500D01*
X4235228Y47850500D01*
X4235225Y47850500D01*
X4110933Y47814005D01*
X4110926Y47814002D01*
X4001952Y47743969D01*
X3917117Y47646062D01*
X3863302Y47528226D01*
X3844867Y47400003D01*
X300500Y47400003D01*
X300500Y49100003D01*
X32350687Y49100003D01*
X32350687Y49099998D01*
X32369122Y48971775D01*
X32422937Y48853939D01*
X32422938Y48853937D01*
X32507771Y48756033D01*
X32507772Y48756032D01*
X32616746Y48685999D01*
X32616751Y48685996D01*
X32741048Y48649500D01*
X32741050Y48649500D01*
X32870590Y48649500D01*
X32870592Y48649500D01*
X32994889Y48685996D01*
X33103869Y48756033D01*
X33188702Y48853937D01*
X33242517Y48971774D01*
X33260953Y49100000D01*
X33242517Y49228226D01*
X33188702Y49346063D01*
X33103869Y49443967D01*
X33103868Y49443968D01*
X33103867Y49443969D01*
X32994893Y49514002D01*
X32994890Y49514004D01*
X32994889Y49514004D01*
X32994886Y49514005D01*
X32870594Y49550500D01*
X32870592Y49550500D01*
X32741048Y49550500D01*
X32741045Y49550500D01*
X32616753Y49514005D01*
X32616746Y49514002D01*
X32507772Y49443969D01*
X32422937Y49346062D01*
X32369122Y49228226D01*
X32350687Y49100003D01*
X300500Y49100003D01*
X300500Y51800003D01*
X11744867Y51800003D01*
X11744867Y51799998D01*
X11763302Y51671775D01*
X11783191Y51628226D01*
X11817118Y51553937D01*
X11863854Y51500000D01*
X11901952Y51456032D01*
X12010926Y51385999D01*
X12010931Y51385996D01*
X12135228Y51349500D01*
X12135230Y51349500D01*
X12264770Y51349500D01*
X12264772Y51349500D01*
X12389069Y51385996D01*
X12498049Y51456033D01*
X12536149Y51500003D01*
X31744867Y51500003D01*
X31744867Y51499998D01*
X31763302Y51371775D01*
X31773475Y51349500D01*
X31817118Y51253937D01*
X31901951Y51156033D01*
X31901952Y51156032D01*
X32010926Y51085999D01*
X32010931Y51085996D01*
X32135228Y51049500D01*
X32135230Y51049500D01*
X32264770Y51049500D01*
X32264772Y51049500D01*
X32389069Y51085996D01*
X32498049Y51156033D01*
X32582882Y51253937D01*
X32636697Y51371774D01*
X32642842Y51414516D01*
X32655133Y51499998D01*
X32655133Y51500003D01*
X32636697Y51628226D01*
X32616809Y51671774D01*
X32582882Y51746063D01*
X32498049Y51843967D01*
X32498048Y51843968D01*
X32498047Y51843969D01*
X32389073Y51914002D01*
X32389070Y51914004D01*
X32389069Y51914004D01*
X32389066Y51914005D01*
X32264774Y51950500D01*
X32264772Y51950500D01*
X32135228Y51950500D01*
X32135225Y51950500D01*
X32010933Y51914005D01*
X32010926Y51914002D01*
X31901952Y51843969D01*
X31817117Y51746062D01*
X31763302Y51628226D01*
X31744867Y51500003D01*
X12536149Y51500003D01*
X12582882Y51553937D01*
X12636697Y51671774D01*
X12655133Y51800000D01*
X12648811Y51843969D01*
X12636697Y51928226D01*
X12582882Y52046062D01*
X12582882Y52046063D01*
X12498049Y52143967D01*
X12498048Y52143968D01*
X12498047Y52143969D01*
X12389073Y52214002D01*
X12389070Y52214004D01*
X12389069Y52214004D01*
X12389066Y52214005D01*
X12264774Y52250500D01*
X12264772Y52250500D01*
X12135228Y52250500D01*
X12135225Y52250500D01*
X12010933Y52214005D01*
X12010926Y52214002D01*
X11901952Y52143969D01*
X11817117Y52046062D01*
X11763302Y51928226D01*
X11744867Y51800003D01*
X300500Y51800003D01*
X300500Y55600003D01*
X35744867Y55600003D01*
X35744867Y55599998D01*
X35763302Y55471775D01*
X35817117Y55353939D01*
X35817118Y55353937D01*
X35901951Y55256033D01*
X35901952Y55256032D01*
X36010926Y55185999D01*
X36010931Y55185996D01*
X36135228Y55149500D01*
X36135230Y55149500D01*
X36264770Y55149500D01*
X36264772Y55149500D01*
X36389069Y55185996D01*
X36498049Y55256033D01*
X36582882Y55353937D01*
X36636697Y55471774D01*
X36655133Y55600000D01*
X36636697Y55728226D01*
X36582882Y55846063D01*
X36498049Y55943967D01*
X36498048Y55943968D01*
X36498047Y55943969D01*
X36389073Y56014002D01*
X36389070Y56014004D01*
X36389069Y56014004D01*
X36389066Y56014005D01*
X36264774Y56050500D01*
X36264772Y56050500D01*
X36135228Y56050500D01*
X36135225Y56050500D01*
X36010933Y56014005D01*
X36010926Y56014002D01*
X35901952Y55943969D01*
X35817117Y55846062D01*
X35763302Y55728226D01*
X35744867Y55600003D01*
X300500Y55600003D01*
X300500Y57050003D01*
X33444353Y57050003D01*
X33444353Y57049998D01*
X33464834Y56907544D01*
X33510504Y56807543D01*
X33524623Y56776627D01*
X33611271Y56676629D01*
X33618873Y56667856D01*
X33739942Y56590050D01*
X33739947Y56590047D01*
X33846403Y56558789D01*
X33878035Y56549501D01*
X33878036Y56549501D01*
X33878039Y56549500D01*
X33878041Y56549500D01*
X34021959Y56549500D01*
X34021961Y56549500D01*
X34160053Y56590047D01*
X34281128Y56667857D01*
X34375377Y56776627D01*
X34435165Y56907543D01*
X34455647Y57050000D01*
X34449631Y57091841D01*
X34435165Y57192457D01*
X34375377Y57323372D01*
X34375377Y57323373D01*
X34281128Y57432143D01*
X34281127Y57432144D01*
X34281126Y57432145D01*
X34160057Y57509951D01*
X34160054Y57509953D01*
X34160053Y57509953D01*
X34160050Y57509954D01*
X34021964Y57550500D01*
X34021961Y57550500D01*
X33878039Y57550500D01*
X33878035Y57550500D01*
X33739949Y57509954D01*
X33739942Y57509951D01*
X33618873Y57432145D01*
X33524622Y57323372D01*
X33464834Y57192457D01*
X33444353Y57050003D01*
X300500Y57050003D01*
X300500Y59700003D01*
X5944867Y59700003D01*
X5944867Y59699998D01*
X5963302Y59571775D01*
X5983191Y59528226D01*
X6017118Y59453937D01*
X6063854Y59400000D01*
X6101952Y59356032D01*
X6210926Y59285999D01*
X6210931Y59285996D01*
X6335228Y59249500D01*
X6335230Y59249500D01*
X6464770Y59249500D01*
X6464772Y59249500D01*
X6589069Y59285996D01*
X6698049Y59356033D01*
X6736149Y59400003D01*
X10744867Y59400003D01*
X10744867Y59399998D01*
X10763302Y59271775D01*
X10773475Y59249500D01*
X10817118Y59153937D01*
X10901951Y59056033D01*
X10901952Y59056032D01*
X11010926Y58985999D01*
X11010931Y58985996D01*
X11135228Y58949500D01*
X11135230Y58949500D01*
X11264770Y58949500D01*
X11264772Y58949500D01*
X11389069Y58985996D01*
X11498049Y59056033D01*
X11582882Y59153937D01*
X11636697Y59271774D01*
X11642842Y59314516D01*
X11655133Y59399998D01*
X11655133Y59400003D01*
X13144867Y59400003D01*
X13144867Y59399998D01*
X13163302Y59271775D01*
X13173475Y59249500D01*
X13217118Y59153937D01*
X13301951Y59056033D01*
X13301952Y59056032D01*
X13410926Y58985999D01*
X13410931Y58985996D01*
X13535228Y58949500D01*
X13535230Y58949500D01*
X13664770Y58949500D01*
X13664772Y58949500D01*
X13789069Y58985996D01*
X13898049Y59056033D01*
X13982882Y59153937D01*
X14036697Y59271774D01*
X14042842Y59314516D01*
X14055133Y59399998D01*
X14055133Y59400003D01*
X14036697Y59528226D01*
X14016809Y59571774D01*
X13982882Y59646063D01*
X13898049Y59743967D01*
X13898048Y59743968D01*
X13898047Y59743969D01*
X13789073Y59814002D01*
X13789070Y59814004D01*
X13789069Y59814004D01*
X13789066Y59814005D01*
X13664774Y59850500D01*
X13664772Y59850500D01*
X13535228Y59850500D01*
X13535225Y59850500D01*
X13410933Y59814005D01*
X13410926Y59814002D01*
X13301952Y59743969D01*
X13217117Y59646062D01*
X13163302Y59528226D01*
X13144867Y59400003D01*
X11655133Y59400003D01*
X11636697Y59528226D01*
X11616809Y59571774D01*
X11582882Y59646063D01*
X11498049Y59743967D01*
X11498048Y59743968D01*
X11498047Y59743969D01*
X11389073Y59814002D01*
X11389070Y59814004D01*
X11389069Y59814004D01*
X11389066Y59814005D01*
X11264774Y59850500D01*
X11264772Y59850500D01*
X11135228Y59850500D01*
X11135225Y59850500D01*
X11010933Y59814005D01*
X11010926Y59814002D01*
X10901952Y59743969D01*
X10817117Y59646062D01*
X10763302Y59528226D01*
X10744867Y59400003D01*
X6736149Y59400003D01*
X6782882Y59453937D01*
X6836697Y59571774D01*
X6855133Y59700000D01*
X6850671Y59731032D01*
X6836697Y59828226D01*
X6782882Y59946062D01*
X6782882Y59946063D01*
X6698049Y60043967D01*
X6698048Y60043968D01*
X6698047Y60043969D01*
X6649757Y60075003D01*
X26919867Y60075003D01*
X26919867Y60074998D01*
X26938302Y59946775D01*
X26938628Y59946062D01*
X26992118Y59828937D01*
X27065742Y59743969D01*
X27076952Y59731032D01*
X27185926Y59660999D01*
X27185931Y59660996D01*
X27310228Y59624500D01*
X27310230Y59624500D01*
X27439770Y59624500D01*
X27439772Y59624500D01*
X27564069Y59660996D01*
X27673049Y59731033D01*
X27757882Y59828937D01*
X27811697Y59946774D01*
X27825671Y60043967D01*
X27830133Y60074998D01*
X27830133Y60075003D01*
X27811697Y60203226D01*
X27757882Y60321063D01*
X27673049Y60418967D01*
X27673048Y60418968D01*
X27673047Y60418969D01*
X27564073Y60489002D01*
X27564070Y60489004D01*
X27564069Y60489004D01*
X27564066Y60489005D01*
X27439774Y60525500D01*
X27439772Y60525500D01*
X27310228Y60525500D01*
X27310225Y60525500D01*
X27185933Y60489005D01*
X27185926Y60489002D01*
X27076952Y60418969D01*
X26992117Y60321062D01*
X26938302Y60203226D01*
X26919867Y60075003D01*
X6649757Y60075003D01*
X6589073Y60114002D01*
X6589070Y60114004D01*
X6589069Y60114004D01*
X6589066Y60114005D01*
X6464774Y60150500D01*
X6464772Y60150500D01*
X6335228Y60150500D01*
X6335225Y60150500D01*
X6210933Y60114005D01*
X6210926Y60114002D01*
X6101952Y60043969D01*
X6017117Y59946062D01*
X5963302Y59828226D01*
X5944867Y59700003D01*
X300500Y59700003D01*
X300500Y60750003D01*
X22694867Y60750003D01*
X22694867Y60749998D01*
X22713302Y60621775D01*
X22757270Y60525500D01*
X22767118Y60503937D01*
X22840742Y60418969D01*
X22851952Y60406032D01*
X22960926Y60335999D01*
X22960931Y60335996D01*
X23085228Y60299500D01*
X23085230Y60299500D01*
X23214770Y60299500D01*
X23214772Y60299500D01*
X23339069Y60335996D01*
X23448049Y60406033D01*
X23532882Y60503937D01*
X23586697Y60621774D01*
X23605133Y60750000D01*
X23586697Y60878226D01*
X23532882Y60996063D01*
X23448049Y61093967D01*
X23448048Y61093968D01*
X23448047Y61093969D01*
X23339073Y61164002D01*
X23339070Y61164004D01*
X23339069Y61164004D01*
X23339066Y61164005D01*
X23214774Y61200500D01*
X23214772Y61200500D01*
X23085228Y61200500D01*
X23085225Y61200500D01*
X22960933Y61164005D01*
X22960926Y61164002D01*
X22851952Y61093969D01*
X22767117Y60996062D01*
X22713302Y60878226D01*
X22694867Y60750003D01*
X300500Y60750003D01*
X300500Y62600003D01*
X12144867Y62600003D01*
X12144867Y62599998D01*
X12163302Y62471775D01*
X12217117Y62353939D01*
X12217118Y62353937D01*
X12301951Y62256033D01*
X12301952Y62256032D01*
X12410926Y62185999D01*
X12410931Y62185996D01*
X12535228Y62149500D01*
X12535230Y62149500D01*
X12664770Y62149500D01*
X12664772Y62149500D01*
X12789069Y62185996D01*
X12898049Y62256033D01*
X12982882Y62353937D01*
X13036697Y62471774D01*
X13055133Y62600000D01*
X13036697Y62728226D01*
X12982882Y62846063D01*
X12898049Y62943967D01*
X12898048Y62943968D01*
X12898047Y62943969D01*
X12789073Y63014002D01*
X12789070Y63014004D01*
X12789069Y63014004D01*
X12789066Y63014005D01*
X12664774Y63050500D01*
X12664772Y63050500D01*
X12535228Y63050500D01*
X12535225Y63050500D01*
X12410933Y63014005D01*
X12410926Y63014002D01*
X12301952Y62943969D01*
X12217117Y62846062D01*
X12163302Y62728226D01*
X12144867Y62600003D01*
X300500Y62600003D01*
X300500Y63100003D01*
X26944867Y63100003D01*
X26944867Y63099998D01*
X26963302Y62971775D01*
X26976001Y62943969D01*
X27017118Y62853937D01*
X27023941Y62846063D01*
X27101952Y62756032D01*
X27210926Y62685999D01*
X27210931Y62685996D01*
X27335228Y62649500D01*
X27335230Y62649500D01*
X27464770Y62649500D01*
X27464772Y62649500D01*
X27589069Y62685996D01*
X27698049Y62756033D01*
X27782882Y62853937D01*
X27836697Y62971774D01*
X27855133Y63100000D01*
X27836697Y63228226D01*
X27782882Y63346063D01*
X27698049Y63443967D01*
X27698048Y63443968D01*
X27698047Y63443969D01*
X27589073Y63514002D01*
X27589070Y63514004D01*
X27589069Y63514004D01*
X27589066Y63514005D01*
X27464774Y63550500D01*
X27464772Y63550500D01*
X27335228Y63550500D01*
X27335225Y63550500D01*
X27210933Y63514005D01*
X27210926Y63514002D01*
X27101952Y63443969D01*
X27017117Y63346062D01*
X26963302Y63228226D01*
X26944867Y63100003D01*
X300500Y63100003D01*
X300500Y64000003D01*
X3225306Y64000003D01*
X3225306Y63999998D01*
X3243741Y63871775D01*
X3297556Y63753939D01*
X3297557Y63753937D01*
X3382390Y63656033D01*
X3382391Y63656032D01*
X3491365Y63585999D01*
X3491370Y63585996D01*
X3615667Y63549500D01*
X3615669Y63549500D01*
X3745209Y63549500D01*
X3745211Y63549500D01*
X3869508Y63585996D01*
X3978488Y63656033D01*
X4063321Y63753937D01*
X4117136Y63871774D01*
X4135572Y64000000D01*
X4135572Y64000003D01*
X11544867Y64000003D01*
X11544867Y63999998D01*
X11563302Y63871775D01*
X11617117Y63753939D01*
X11617118Y63753937D01*
X11701951Y63656033D01*
X11701952Y63656032D01*
X11810926Y63585999D01*
X11810931Y63585996D01*
X11935228Y63549500D01*
X11935230Y63549500D01*
X12064770Y63549500D01*
X12064772Y63549500D01*
X12189069Y63585996D01*
X12298049Y63656033D01*
X12382882Y63753937D01*
X12436697Y63871774D01*
X12455133Y64000000D01*
X12436697Y64128226D01*
X12382882Y64246063D01*
X12298049Y64343967D01*
X12298048Y64343968D01*
X12298047Y64343969D01*
X12189073Y64414002D01*
X12189070Y64414004D01*
X12189069Y64414004D01*
X12189066Y64414005D01*
X12064774Y64450500D01*
X12064772Y64450500D01*
X11935228Y64450500D01*
X11935225Y64450500D01*
X11810933Y64414005D01*
X11810926Y64414002D01*
X11701952Y64343969D01*
X11617117Y64246062D01*
X11563302Y64128226D01*
X11544867Y64000003D01*
X4135572Y64000003D01*
X4117136Y64128226D01*
X4063321Y64246063D01*
X3978488Y64343967D01*
X3978487Y64343968D01*
X3978486Y64343969D01*
X3869512Y64414002D01*
X3869509Y64414004D01*
X3869508Y64414004D01*
X3869505Y64414005D01*
X3745213Y64450500D01*
X3745211Y64450500D01*
X3615667Y64450500D01*
X3615664Y64450500D01*
X3491372Y64414005D01*
X3491365Y64414002D01*
X3382391Y64343969D01*
X3297556Y64246062D01*
X3243741Y64128226D01*
X3225306Y64000003D01*
X300500Y64000003D01*
X300500Y64500003D01*
X6644867Y64500003D01*
X6644867Y64499998D01*
X6663302Y64371775D01*
X6676001Y64343969D01*
X6717118Y64253937D01*
X6723941Y64246063D01*
X6801952Y64156032D01*
X6910926Y64085999D01*
X6910931Y64085996D01*
X7035228Y64049500D01*
X7035230Y64049500D01*
X7164770Y64049500D01*
X7164772Y64049500D01*
X7289069Y64085996D01*
X7398049Y64156033D01*
X7482882Y64253937D01*
X7536697Y64371774D01*
X7555133Y64500000D01*
X7536697Y64628226D01*
X7482882Y64746063D01*
X7398049Y64843967D01*
X7398048Y64843968D01*
X7398047Y64843969D01*
X7289073Y64914002D01*
X7289070Y64914004D01*
X7289069Y64914004D01*
X7289066Y64914005D01*
X7164774Y64950500D01*
X7164772Y64950500D01*
X7035228Y64950500D01*
X7035225Y64950500D01*
X6910933Y64914005D01*
X6910926Y64914002D01*
X6801952Y64843969D01*
X6717117Y64746062D01*
X6663302Y64628226D01*
X6644867Y64500003D01*
X300500Y64500003D01*
X300500Y65700003D01*
X3044867Y65700003D01*
X3044867Y65699998D01*
X3063302Y65571775D01*
X3096080Y65500003D01*
X3117118Y65453937D01*
X3188311Y65371775D01*
X3201952Y65356032D01*
X3310926Y65285999D01*
X3310931Y65285996D01*
X3435228Y65249500D01*
X3435230Y65249500D01*
X3564770Y65249500D01*
X3564772Y65249500D01*
X3689069Y65285996D01*
X3798049Y65356033D01*
X3882882Y65453937D01*
X3903920Y65500003D01*
X24544867Y65500003D01*
X24544867Y65499998D01*
X24563302Y65371775D01*
X24602477Y65285996D01*
X24617118Y65253937D01*
X24620962Y65249501D01*
X24701952Y65156032D01*
X24810926Y65085999D01*
X24810931Y65085996D01*
X24935228Y65049500D01*
X24935230Y65049500D01*
X25064770Y65049500D01*
X25064772Y65049500D01*
X25189069Y65085996D01*
X25298049Y65156033D01*
X25382882Y65253937D01*
X25436697Y65371774D01*
X25448510Y65453937D01*
X25455133Y65499998D01*
X25455133Y65500003D01*
X25436697Y65628226D01*
X25403919Y65699998D01*
X25382882Y65746063D01*
X25298049Y65843967D01*
X25298048Y65843968D01*
X25298047Y65843969D01*
X25189073Y65914002D01*
X25189070Y65914004D01*
X25189069Y65914004D01*
X25189066Y65914005D01*
X25064774Y65950500D01*
X25064772Y65950500D01*
X24935228Y65950500D01*
X24935225Y65950500D01*
X24810933Y65914005D01*
X24810926Y65914002D01*
X24701952Y65843969D01*
X24617117Y65746062D01*
X24563302Y65628226D01*
X24544867Y65500003D01*
X3903920Y65500003D01*
X3936697Y65571774D01*
X3955133Y65700000D01*
X3948510Y65746062D01*
X3936697Y65828226D01*
X3897523Y65914004D01*
X3882882Y65946063D01*
X3798049Y66043967D01*
X3798048Y66043968D01*
X3798047Y66043969D01*
X3689073Y66114002D01*
X3689070Y66114004D01*
X3689069Y66114004D01*
X3689066Y66114005D01*
X3564774Y66150500D01*
X3564772Y66150500D01*
X3435228Y66150500D01*
X3435225Y66150500D01*
X3310933Y66114005D01*
X3310926Y66114002D01*
X3201952Y66043969D01*
X3117117Y65946062D01*
X3063302Y65828226D01*
X3044867Y65700003D01*
X300500Y65700003D01*
X300500Y67300003D01*
X3044867Y67300003D01*
X3044867Y67299998D01*
X3063302Y67171775D01*
X3117117Y67053939D01*
X3117118Y67053937D01*
X3201951Y66956033D01*
X3201952Y66956032D01*
X3310926Y66885999D01*
X3310931Y66885996D01*
X3435228Y66849500D01*
X3435230Y66849500D01*
X3564770Y66849500D01*
X3564772Y66849500D01*
X3689069Y66885996D01*
X3798049Y66956033D01*
X3836149Y67000003D01*
X10344867Y67000003D01*
X10344867Y66999998D01*
X10363302Y66871775D01*
X10417117Y66753939D01*
X10417118Y66753937D01*
X10501951Y66656033D01*
X10501952Y66656032D01*
X10610926Y66585999D01*
X10610931Y66585996D01*
X10735228Y66549500D01*
X10735230Y66549500D01*
X10864770Y66549500D01*
X10864772Y66549500D01*
X10989069Y66585996D01*
X11098049Y66656033D01*
X11182882Y66753937D01*
X11236697Y66871774D01*
X11242842Y66914516D01*
X11255133Y66999998D01*
X11255133Y67000003D01*
X11237266Y67124268D01*
X13620602Y67124268D01*
X13620602Y67124263D01*
X13639037Y66996040D01*
X13692852Y66878204D01*
X13692853Y66878202D01*
X13777686Y66780298D01*
X13777687Y66780297D01*
X13886661Y66710264D01*
X13886666Y66710261D01*
X14010963Y66673765D01*
X14010965Y66673765D01*
X14140505Y66673765D01*
X14140507Y66673765D01*
X14264804Y66710261D01*
X14373784Y66780298D01*
X14458617Y66878202D01*
X14512432Y66996039D01*
X14530868Y67124265D01*
X14530298Y67128226D01*
X14512432Y67252491D01*
X14490734Y67300003D01*
X14458617Y67370328D01*
X14373784Y67468232D01*
X14373783Y67468233D01*
X14373782Y67468234D01*
X14264808Y67538267D01*
X14264805Y67538269D01*
X14264804Y67538269D01*
X14264801Y67538270D01*
X14140509Y67574765D01*
X14140507Y67574765D01*
X14010963Y67574765D01*
X14010960Y67574765D01*
X13886668Y67538270D01*
X13886661Y67538267D01*
X13777687Y67468234D01*
X13692852Y67370327D01*
X13639037Y67252491D01*
X13620602Y67124268D01*
X11237266Y67124268D01*
X11236697Y67128226D01*
X11216809Y67171774D01*
X11182882Y67246063D01*
X11098049Y67343967D01*
X11098048Y67343968D01*
X11098047Y67343969D01*
X10989073Y67414002D01*
X10989070Y67414004D01*
X10989069Y67414004D01*
X10989066Y67414005D01*
X10864774Y67450500D01*
X10864772Y67450500D01*
X10735228Y67450500D01*
X10735225Y67450500D01*
X10610933Y67414005D01*
X10610926Y67414002D01*
X10501952Y67343969D01*
X10417117Y67246062D01*
X10363302Y67128226D01*
X10344867Y67000003D01*
X3836149Y67000003D01*
X3882882Y67053937D01*
X3936697Y67171774D01*
X3955133Y67300000D01*
X3948811Y67343969D01*
X3936697Y67428226D01*
X3926525Y67450500D01*
X3882882Y67546063D01*
X3798049Y67643967D01*
X3798048Y67643968D01*
X3798047Y67643969D01*
X3689073Y67714002D01*
X3689070Y67714004D01*
X3689069Y67714004D01*
X3689066Y67714005D01*
X3564774Y67750500D01*
X3564772Y67750500D01*
X3435228Y67750500D01*
X3435225Y67750500D01*
X3310933Y67714005D01*
X3310926Y67714002D01*
X3201952Y67643969D01*
X3117117Y67546062D01*
X3063302Y67428226D01*
X3044867Y67300003D01*
X300500Y67300003D01*
X300500Y69302356D01*
X699500Y69302356D01*
X699500Y69097645D01*
X731521Y68895471D01*
X794780Y68700781D01*
X887712Y68518391D01*
X887714Y68518387D01*
X1008029Y68352787D01*
X1008031Y68352785D01*
X1008034Y68352781D01*
X1152781Y68208034D01*
X1152784Y68208032D01*
X1152786Y68208030D01*
X1318386Y68087715D01*
X1318390Y68087713D01*
X1500781Y67994780D01*
X1695466Y67931523D01*
X1695467Y67931523D01*
X1695470Y67931522D01*
X1897645Y67899500D01*
X1897648Y67899500D01*
X2102355Y67899500D01*
X2304529Y67931522D01*
X2304530Y67931523D01*
X2304534Y67931523D01*
X2499219Y67994780D01*
X2681610Y68087713D01*
X2847219Y68208034D01*
X2991966Y68352781D01*
X3112287Y68518390D01*
X3205220Y68700781D01*
X3268477Y68895466D01*
X3270778Y68909995D01*
X3275185Y68937818D01*
X11564594Y68937818D01*
X11672526Y68869998D01*
X11672533Y68869995D01*
X11832046Y68814179D01*
X11832050Y68814178D01*
X12000000Y68795255D01*
X12167949Y68814178D01*
X12167953Y68814179D01*
X12327467Y68869996D01*
X12327471Y68869997D01*
X12435403Y68937819D01*
X12395404Y68977818D01*
X12964594Y68977818D01*
X13072526Y68909998D01*
X13072533Y68909995D01*
X13232046Y68854179D01*
X13232050Y68854178D01*
X13400000Y68835255D01*
X13567949Y68854178D01*
X13567953Y68854179D01*
X13727467Y68909996D01*
X13727471Y68909997D01*
X13835403Y68977819D01*
X13399999Y69413223D01*
X12964594Y68977818D01*
X12395404Y68977818D01*
X11999999Y69373223D01*
X11564594Y68937818D01*
X3275185Y68937818D01*
X3300500Y69097645D01*
X3300500Y69273168D01*
X3319407Y69331359D01*
X3368907Y69367323D01*
X3430093Y69367323D01*
X3479593Y69331359D01*
X3489553Y69314295D01*
X3495007Y69302352D01*
X3517118Y69253937D01*
X3601951Y69156033D01*
X3601952Y69156032D01*
X3710926Y69085999D01*
X3710931Y69085996D01*
X3835228Y69049500D01*
X3835230Y69049500D01*
X3964770Y69049500D01*
X3964772Y69049500D01*
X4089069Y69085996D01*
X4198049Y69156033D01*
X4282882Y69253937D01*
X4336697Y69371774D01*
X4348510Y69453937D01*
X4355133Y69499998D01*
X4355133Y69500003D01*
X4336697Y69628226D01*
X4309482Y69687818D01*
X10864594Y69687818D01*
X10972526Y69619998D01*
X10972533Y69619995D01*
X11132046Y69564179D01*
X11132050Y69564178D01*
X11166637Y69560281D01*
X11222345Y69534977D01*
X11252541Y69481762D01*
X11253930Y69472988D01*
X11264175Y69382059D01*
X11264178Y69382047D01*
X11319994Y69222534D01*
X11319999Y69222525D01*
X11387816Y69114596D01*
X11823222Y69550001D01*
X11793386Y69579837D01*
X11850000Y69579837D01*
X11850000Y69520163D01*
X11872836Y69465032D01*
X11915032Y69422836D01*
X11970163Y69400000D01*
X12029837Y69400000D01*
X12084968Y69422836D01*
X12127164Y69465032D01*
X12150000Y69520163D01*
X12150000Y69550001D01*
X12176777Y69550001D01*
X12612182Y69114596D01*
X12628741Y69140949D01*
X12675710Y69180161D01*
X12736757Y69184276D01*
X12783156Y69155121D01*
X12787816Y69154596D01*
X13223221Y69590001D01*
X13193385Y69619837D01*
X13250000Y69619837D01*
X13250000Y69560163D01*
X13272836Y69505032D01*
X13315032Y69462836D01*
X13370163Y69440000D01*
X13429837Y69440000D01*
X13484968Y69462836D01*
X13527164Y69505032D01*
X13550000Y69560163D01*
X13550000Y69590001D01*
X13576777Y69590001D01*
X14012181Y69154597D01*
X14080003Y69262529D01*
X14080004Y69262533D01*
X14135821Y69422047D01*
X14135822Y69422051D01*
X14141503Y69472473D01*
X14166807Y69528181D01*
X14220022Y69558377D01*
X14228798Y69559767D01*
X14267949Y69564178D01*
X14267953Y69564179D01*
X14427467Y69619996D01*
X14427471Y69619997D01*
X14535403Y69687819D01*
X14523219Y69700003D01*
X24244867Y69700003D01*
X24244867Y69699998D01*
X24263302Y69571775D01*
X24308653Y69472473D01*
X24317118Y69453937D01*
X24401951Y69356033D01*
X24401952Y69356032D01*
X24485474Y69302356D01*
X24510931Y69285996D01*
X24635228Y69249500D01*
X24635230Y69249500D01*
X24764770Y69249500D01*
X24764772Y69249500D01*
X24889069Y69285996D01*
X24998049Y69356033D01*
X25082882Y69453937D01*
X25136697Y69571774D01*
X25155133Y69700000D01*
X25152665Y69717164D01*
X25136697Y69828226D01*
X25121434Y69861647D01*
X25082882Y69946063D01*
X24998049Y70043967D01*
X24998048Y70043968D01*
X24998047Y70043969D01*
X24889073Y70114002D01*
X24889070Y70114004D01*
X24889069Y70114004D01*
X24889066Y70114005D01*
X24764774Y70150500D01*
X24764772Y70150500D01*
X24635228Y70150500D01*
X24635225Y70150500D01*
X24510933Y70114005D01*
X24510926Y70114002D01*
X24401952Y70043969D01*
X24317117Y69946062D01*
X24263302Y69828226D01*
X24244867Y69700003D01*
X14523219Y69700003D01*
X14099999Y70123223D01*
X14029198Y70052424D01*
X14025212Y70040158D01*
X14015129Y70028354D01*
X13576777Y69590001D01*
X13550000Y69590001D01*
X13550000Y69619837D01*
X13527164Y69674968D01*
X13484968Y69717164D01*
X13429837Y69740000D01*
X13370163Y69740000D01*
X13315032Y69717164D01*
X13272836Y69674968D01*
X13250000Y69619837D01*
X13193385Y69619837D01*
X12784867Y70028355D01*
X12774479Y70048743D01*
X12699999Y70123223D01*
X12624123Y70047348D01*
X12624123Y70038351D01*
X12605213Y69980161D01*
X12595127Y69968352D01*
X12176777Y69550001D01*
X12150000Y69550001D01*
X12150000Y69579837D01*
X12127164Y69634968D01*
X12084968Y69677164D01*
X12029837Y69700000D01*
X11970163Y69700000D01*
X11915032Y69677164D01*
X11872836Y69634968D01*
X11850000Y69579837D01*
X11793386Y69579837D01*
X11404871Y69968353D01*
X11377094Y70022869D01*
X11375875Y70038354D01*
X11375874Y70047348D01*
X11299999Y70123223D01*
X10864594Y69687818D01*
X4309482Y69687818D01*
X4304275Y69699219D01*
X4282882Y69746063D01*
X4198049Y69843967D01*
X4198048Y69843968D01*
X4198047Y69843969D01*
X4089073Y69914002D01*
X4089070Y69914004D01*
X4089069Y69914004D01*
X4089066Y69914005D01*
X3964774Y69950500D01*
X3964772Y69950500D01*
X3835228Y69950500D01*
X3835225Y69950500D01*
X3710933Y69914005D01*
X3710926Y69914002D01*
X3601952Y69843969D01*
X3517117Y69746062D01*
X3463302Y69628226D01*
X3451797Y69548204D01*
X3424801Y69493296D01*
X3370687Y69464743D01*
X3310124Y69473450D01*
X3266246Y69516093D01*
X3259650Y69531700D01*
X3258585Y69534977D01*
X3205220Y69699219D01*
X3112287Y69881610D01*
X3112285Y69881614D01*
X2991970Y70047214D01*
X2991968Y70047216D01*
X2991966Y70047219D01*
X2847219Y70191966D01*
X2847215Y70191969D01*
X2847213Y70191971D01*
X2698523Y70300000D01*
X10545254Y70300000D01*
X10564177Y70132051D01*
X10564178Y70132047D01*
X10619994Y69972534D01*
X10619999Y69972525D01*
X10687816Y69864596D01*
X11123221Y70300001D01*
X11093385Y70329837D01*
X11150000Y70329837D01*
X11150000Y70270163D01*
X11172836Y70215032D01*
X11215032Y70172836D01*
X11270163Y70150000D01*
X11329837Y70150000D01*
X11384968Y70172836D01*
X11427164Y70215032D01*
X11450000Y70270163D01*
X11450000Y70300001D01*
X11476777Y70300001D01*
X11476777Y70300000D01*
X11895128Y69881649D01*
X11922905Y69827132D01*
X11924124Y69811645D01*
X11924124Y69802654D01*
X12000000Y69726778D01*
X12075875Y69802653D01*
X12075875Y69811645D01*
X12094782Y69869836D01*
X12104871Y69881649D01*
X12523222Y70300000D01*
X12497346Y70325876D01*
X12488355Y70325876D01*
X12476164Y70329837D01*
X12550000Y70329837D01*
X12550000Y70270163D01*
X12572836Y70215032D01*
X12615032Y70172836D01*
X12670163Y70150000D01*
X12729837Y70150000D01*
X12784968Y70172836D01*
X12827164Y70215032D01*
X12850000Y70270163D01*
X12850000Y70300001D01*
X12876777Y70300001D01*
X13315128Y69861650D01*
X13325515Y69841263D01*
X13400000Y69766778D01*
X13470797Y69837576D01*
X13474780Y69849834D01*
X13484869Y69861647D01*
X13923223Y70300001D01*
X13893387Y70329837D01*
X13950000Y70329837D01*
X13950000Y70270163D01*
X13972836Y70215032D01*
X14015032Y70172836D01*
X14070163Y70150000D01*
X14129837Y70150000D01*
X14184968Y70172836D01*
X14227164Y70215032D01*
X14250000Y70270163D01*
X14250000Y70300001D01*
X14276777Y70300001D01*
X14712181Y69864597D01*
X14780003Y69972529D01*
X14780004Y69972533D01*
X14835821Y70132047D01*
X14835822Y70132051D01*
X14854745Y70300000D01*
X14835822Y70467950D01*
X14835821Y70467954D01*
X14780005Y70627467D01*
X14780002Y70627474D01*
X14712182Y70735406D01*
X14276777Y70300001D01*
X14250000Y70300001D01*
X14250000Y70329837D01*
X14227164Y70384968D01*
X14184968Y70427164D01*
X14129837Y70450000D01*
X14070163Y70450000D01*
X14015032Y70427164D01*
X13972836Y70384968D01*
X13950000Y70329837D01*
X13893387Y70329837D01*
X13872347Y70350877D01*
X13872347Y70350876D01*
X13400000Y70823223D01*
X12927653Y70350876D01*
X12927652Y70350877D01*
X12876777Y70300001D01*
X12850000Y70300001D01*
X12850000Y70329837D01*
X12827164Y70384968D01*
X12784968Y70427164D01*
X12729837Y70450000D01*
X12670163Y70450000D01*
X12615032Y70427164D01*
X12572836Y70384968D01*
X12550000Y70329837D01*
X12476164Y70329837D01*
X12430164Y70344783D01*
X12418352Y70354872D01*
X12000000Y70773223D01*
X11581648Y70354873D01*
X11527132Y70327096D01*
X11511649Y70325877D01*
X11502652Y70325877D01*
X11476777Y70300001D01*
X11450000Y70300001D01*
X11450000Y70329837D01*
X11427164Y70384968D01*
X11384968Y70427164D01*
X11329837Y70450000D01*
X11270163Y70450000D01*
X11215032Y70427164D01*
X11172836Y70384968D01*
X11150000Y70329837D01*
X11093385Y70329837D01*
X10687816Y70735406D01*
X10619998Y70627477D01*
X10619997Y70627473D01*
X10564178Y70467954D01*
X10564177Y70467950D01*
X10545254Y70300000D01*
X2698523Y70300000D01*
X2681613Y70312286D01*
X2681609Y70312288D01*
X2499219Y70405220D01*
X2304529Y70468479D01*
X2102355Y70500500D01*
X2102352Y70500500D01*
X1897648Y70500500D01*
X1897645Y70500500D01*
X1695470Y70468479D01*
X1500780Y70405220D01*
X1318390Y70312288D01*
X1318386Y70312286D01*
X1152786Y70191971D01*
X1008029Y70047214D01*
X887714Y69881614D01*
X887712Y69881610D01*
X794780Y69699220D01*
X731521Y69504530D01*
X699500Y69302356D01*
X300500Y69302356D01*
X300500Y71087818D01*
X10864594Y71087818D01*
X10864594Y71087817D01*
X10870946Y71083826D01*
X10910159Y71036858D01*
X10914274Y70975811D01*
X10881721Y70924004D01*
X10870948Y70916176D01*
X10864594Y70912184D01*
X11300000Y70476778D01*
X11718353Y70895129D01*
X11772869Y70922906D01*
X11788356Y70924125D01*
X11797347Y70924125D01*
X11823223Y70950000D01*
X11823223Y70950001D01*
X11793387Y70979837D01*
X11850000Y70979837D01*
X11850000Y70920163D01*
X11872836Y70865032D01*
X11915032Y70822836D01*
X11970163Y70800000D01*
X12029837Y70800000D01*
X12084968Y70822836D01*
X12127164Y70865032D01*
X12150000Y70920163D01*
X12150000Y70950001D01*
X12176777Y70950001D01*
X12202652Y70924126D01*
X12211646Y70924125D01*
X12269836Y70905217D01*
X12281647Y70895129D01*
X12699999Y70476778D01*
X13172347Y70949124D01*
X13223222Y71000000D01*
X13193385Y71029837D01*
X13250000Y71029837D01*
X13250000Y70970163D01*
X13272836Y70915032D01*
X13315032Y70872836D01*
X13370163Y70850000D01*
X13429837Y70850000D01*
X13484968Y70872836D01*
X13527164Y70915032D01*
X13550000Y70970163D01*
X13550000Y71000001D01*
X13576777Y71000001D01*
X13576777Y71000000D01*
X13627653Y70949124D01*
X14099999Y70476779D01*
X14535404Y70912184D01*
X14532925Y70934191D01*
X14529626Y70938142D01*
X14525509Y70999189D01*
X14532263Y71009940D01*
X14535404Y71037818D01*
X14099999Y71473223D01*
X13681648Y71054873D01*
X13627132Y71027096D01*
X13611649Y71025877D01*
X13602652Y71025877D01*
X13576777Y71000001D01*
X13550000Y71000001D01*
X13550000Y71029837D01*
X13527164Y71084968D01*
X13484968Y71127164D01*
X13429837Y71150000D01*
X13370163Y71150000D01*
X13315032Y71127164D01*
X13272836Y71084968D01*
X13250000Y71029837D01*
X13193385Y71029837D01*
X13147346Y71075876D01*
X13138355Y71075876D01*
X13080164Y71094783D01*
X13068352Y71104872D01*
X12650000Y71523223D01*
X12599124Y71472348D01*
X12599124Y71453094D01*
X12606898Y71437836D01*
X12597327Y71377404D01*
X12579121Y71352346D01*
X12176777Y70950001D01*
X12150000Y70950001D01*
X12150000Y70979837D01*
X12127164Y71034968D01*
X12084968Y71077164D01*
X12029837Y71100000D01*
X11970163Y71100000D01*
X11915032Y71077164D01*
X11872836Y71034968D01*
X11850000Y70979837D01*
X11793387Y70979837D01*
X11404871Y71368353D01*
X11377094Y71422869D01*
X11375875Y71438354D01*
X11375874Y71447348D01*
X11299999Y71523223D01*
X10864594Y71087818D01*
X300500Y71087818D01*
X300500Y71700000D01*
X10545254Y71700000D01*
X10564177Y71532051D01*
X10564178Y71532047D01*
X10619994Y71372534D01*
X10619999Y71372525D01*
X10687816Y71264596D01*
X11123221Y71700001D01*
X11093385Y71729837D01*
X11150000Y71729837D01*
X11150000Y71670163D01*
X11172836Y71615032D01*
X11215032Y71572836D01*
X11270163Y71550000D01*
X11329837Y71550000D01*
X11384968Y71572836D01*
X11427164Y71615032D01*
X11450000Y71670163D01*
X11450000Y71700001D01*
X11476777Y71700001D01*
X11895128Y71281650D01*
X11922905Y71227133D01*
X11924124Y71211646D01*
X11924124Y71202654D01*
X12000000Y71126778D01*
X12050875Y71177653D01*
X12050875Y71196909D01*
X12043101Y71212166D01*
X12052672Y71272598D01*
X12070879Y71297657D01*
X12473223Y71700001D01*
X12443387Y71729837D01*
X12500000Y71729837D01*
X12500000Y71670163D01*
X12522836Y71615032D01*
X12565032Y71572836D01*
X12620163Y71550000D01*
X12679837Y71550000D01*
X12734968Y71572836D01*
X12777164Y71615032D01*
X12800000Y71670163D01*
X12800000Y71700001D01*
X12826777Y71700001D01*
X12902652Y71624126D01*
X12911646Y71624125D01*
X12969836Y71605217D01*
X12981647Y71595129D01*
X13400000Y71176777D01*
X13818353Y71595129D01*
X13872869Y71622906D01*
X13888356Y71624125D01*
X13897347Y71624125D01*
X13923223Y71650000D01*
X13923223Y71650001D01*
X13893387Y71679837D01*
X13950000Y71679837D01*
X13950000Y71620163D01*
X13972836Y71565032D01*
X14015032Y71522836D01*
X14070163Y71500000D01*
X14129837Y71500000D01*
X14184968Y71522836D01*
X14227164Y71565032D01*
X14250000Y71620163D01*
X14250000Y71650001D01*
X14276777Y71650001D01*
X14712181Y71214597D01*
X14780003Y71322529D01*
X14780004Y71322533D01*
X14835821Y71482047D01*
X14835822Y71482051D01*
X14854745Y71650000D01*
X14837579Y71802356D01*
X25399500Y71802356D01*
X25399500Y71597645D01*
X25431521Y71395471D01*
X25494780Y71200781D01*
X25587712Y71018391D01*
X25587714Y71018387D01*
X25708029Y70852787D01*
X25708031Y70852785D01*
X25708034Y70852781D01*
X25852781Y70708034D01*
X25852784Y70708032D01*
X25852786Y70708030D01*
X26018386Y70587715D01*
X26018390Y70587713D01*
X26200781Y70494780D01*
X26395466Y70431523D01*
X26395467Y70431523D01*
X26395470Y70431522D01*
X26597645Y70399500D01*
X26597648Y70399500D01*
X26802355Y70399500D01*
X27004529Y70431522D01*
X27004530Y70431523D01*
X27004534Y70431523D01*
X27199219Y70494780D01*
X27381610Y70587713D01*
X27547219Y70708034D01*
X27691966Y70852781D01*
X27812287Y71018390D01*
X27905220Y71200781D01*
X27968477Y71395466D01*
X27968478Y71395471D01*
X28000500Y71597645D01*
X28000500Y71802356D01*
X27968478Y72004530D01*
X27968477Y72004534D01*
X27905220Y72199219D01*
X27812287Y72381610D01*
X27812285Y72381614D01*
X27798925Y72400003D01*
X30444867Y72400003D01*
X30444867Y72399998D01*
X30463302Y72271775D01*
X30508972Y72171774D01*
X30517118Y72153937D01*
X30576500Y72085406D01*
X30601952Y72056032D01*
X30605209Y72053939D01*
X30710931Y71985996D01*
X30835228Y71949500D01*
X30835230Y71949500D01*
X30964770Y71949500D01*
X30964772Y71949500D01*
X31089069Y71985996D01*
X31198049Y72056033D01*
X31282882Y72153937D01*
X31336697Y72271774D01*
X31348510Y72353937D01*
X31355133Y72399998D01*
X31355133Y72400003D01*
X34944867Y72400003D01*
X34944867Y72399998D01*
X34963302Y72271775D01*
X35008972Y72171774D01*
X35017118Y72153937D01*
X35076500Y72085406D01*
X35101952Y72056032D01*
X35105209Y72053939D01*
X35210931Y71985996D01*
X35335228Y71949500D01*
X35335230Y71949500D01*
X35464770Y71949500D01*
X35464772Y71949500D01*
X35589069Y71985996D01*
X35698049Y72056033D01*
X35782882Y72153937D01*
X35836697Y72271774D01*
X35848510Y72353937D01*
X35855133Y72399998D01*
X35855133Y72400003D01*
X35836697Y72528226D01*
X35818555Y72567950D01*
X35782882Y72646063D01*
X35698049Y72743967D01*
X35698048Y72743968D01*
X35698047Y72743969D01*
X35589073Y72814002D01*
X35589070Y72814004D01*
X35589069Y72814004D01*
X35589066Y72814005D01*
X35464774Y72850500D01*
X35464772Y72850500D01*
X35335228Y72850500D01*
X35335225Y72850500D01*
X35210933Y72814005D01*
X35210926Y72814002D01*
X35101952Y72743969D01*
X35017117Y72646062D01*
X34963302Y72528226D01*
X34944867Y72400003D01*
X31355133Y72400003D01*
X31336697Y72528226D01*
X31318555Y72567950D01*
X31282882Y72646063D01*
X31198049Y72743967D01*
X31198048Y72743968D01*
X31198047Y72743969D01*
X31089073Y72814002D01*
X31089070Y72814004D01*
X31089069Y72814004D01*
X31089066Y72814005D01*
X30964774Y72850500D01*
X30964772Y72850500D01*
X30835228Y72850500D01*
X30835225Y72850500D01*
X30710933Y72814005D01*
X30710926Y72814002D01*
X30601952Y72743969D01*
X30517117Y72646062D01*
X30463302Y72528226D01*
X30444867Y72400003D01*
X27798925Y72400003D01*
X27691970Y72547214D01*
X27691968Y72547216D01*
X27691966Y72547219D01*
X27547219Y72691966D01*
X27547215Y72691969D01*
X27547213Y72691971D01*
X27381613Y72812286D01*
X27381609Y72812288D01*
X27199219Y72905220D01*
X27004529Y72968479D01*
X26805493Y73000003D01*
X36344867Y73000003D01*
X36344867Y72999998D01*
X36363302Y72871775D01*
X36400721Y72789841D01*
X36417118Y72753937D01*
X36501951Y72656033D01*
X36501952Y72656032D01*
X36589140Y72600000D01*
X36610931Y72585996D01*
X36735228Y72549500D01*
X36735230Y72549500D01*
X36864770Y72549500D01*
X36864772Y72549500D01*
X36989069Y72585996D01*
X37095482Y72654384D01*
X37154655Y72669938D01*
X37211672Y72647739D01*
X37244751Y72596267D01*
X37246996Y72585188D01*
X37263302Y72471775D01*
X37302556Y72385822D01*
X37317118Y72353937D01*
X37388311Y72271775D01*
X37401952Y72256032D01*
X37493267Y72197348D01*
X37510931Y72185996D01*
X37635228Y72149500D01*
X37635230Y72149500D01*
X37764770Y72149500D01*
X37764772Y72149500D01*
X37889069Y72185996D01*
X37998049Y72256033D01*
X38082882Y72353937D01*
X38136697Y72471774D01*
X38147872Y72549500D01*
X38155133Y72599998D01*
X38155133Y72600003D01*
X38136697Y72728226D01*
X38108558Y72789841D01*
X38082882Y72846063D01*
X37998049Y72943967D01*
X37998048Y72943968D01*
X37998047Y72943969D01*
X37889073Y73014002D01*
X37889070Y73014004D01*
X37889069Y73014004D01*
X37889066Y73014005D01*
X37764774Y73050500D01*
X37764772Y73050500D01*
X37635228Y73050500D01*
X37635225Y73050500D01*
X37510933Y73014005D01*
X37510926Y73014002D01*
X37404518Y72945618D01*
X37345342Y72930064D01*
X37288326Y72952262D01*
X37255247Y73003735D01*
X37253003Y73014814D01*
X37243631Y73080001D01*
X37236697Y73128226D01*
X37182882Y73246063D01*
X37098049Y73343967D01*
X37098048Y73343968D01*
X37098047Y73343969D01*
X36989073Y73414002D01*
X36989070Y73414004D01*
X36989069Y73414004D01*
X36989066Y73414005D01*
X36864774Y73450500D01*
X36864772Y73450500D01*
X36735228Y73450500D01*
X36735225Y73450500D01*
X36610933Y73414005D01*
X36610926Y73414002D01*
X36501952Y73343969D01*
X36417117Y73246062D01*
X36363302Y73128226D01*
X36344867Y73000003D01*
X26805493Y73000003D01*
X26802355Y73000500D01*
X26802352Y73000500D01*
X26597648Y73000500D01*
X26597645Y73000500D01*
X26395470Y72968479D01*
X26200780Y72905220D01*
X26018390Y72812288D01*
X26018386Y72812286D01*
X25852786Y72691971D01*
X25708029Y72547214D01*
X25587714Y72381614D01*
X25587712Y72381610D01*
X25494780Y72199220D01*
X25431521Y72004530D01*
X25399500Y71802356D01*
X14837579Y71802356D01*
X14835822Y71817950D01*
X14835821Y71817954D01*
X14780005Y71977467D01*
X14780002Y71977474D01*
X14712182Y72085406D01*
X14276777Y71650001D01*
X14250000Y71650001D01*
X14250000Y71679837D01*
X14227164Y71734968D01*
X14184968Y71777164D01*
X14129837Y71800000D01*
X14070163Y71800000D01*
X14015032Y71777164D01*
X13972836Y71734968D01*
X13950000Y71679837D01*
X13893387Y71679837D01*
X13504871Y72068353D01*
X13477094Y72122869D01*
X13475875Y72138354D01*
X13475874Y72147348D01*
X13399999Y72223223D01*
X12981648Y71804873D01*
X12927132Y71777096D01*
X12911649Y71775877D01*
X12902652Y71775877D01*
X12826777Y71700001D01*
X12800000Y71700001D01*
X12800000Y71729837D01*
X12777164Y71784968D01*
X12734968Y71827164D01*
X12679837Y71850000D01*
X12620163Y71850000D01*
X12565032Y71827164D01*
X12522836Y71784968D01*
X12500000Y71729837D01*
X12443387Y71729837D01*
X12054871Y72118353D01*
X12027094Y72172869D01*
X12025875Y72188354D01*
X12025874Y72197348D01*
X11999999Y72223223D01*
X11527653Y71750876D01*
X11527652Y71750877D01*
X11476777Y71700001D01*
X11450000Y71700001D01*
X11450000Y71729837D01*
X11427164Y71784968D01*
X11384968Y71827164D01*
X11329837Y71850000D01*
X11270163Y71850000D01*
X11215032Y71827164D01*
X11172836Y71784968D01*
X11150000Y71729837D01*
X11093385Y71729837D01*
X10687816Y72135406D01*
X10619998Y72027477D01*
X10619997Y72027473D01*
X10564178Y71867954D01*
X10564177Y71867950D01*
X10545254Y71700000D01*
X300500Y71700000D01*
X300500Y72312184D01*
X10864594Y72312184D01*
X11300000Y71876778D01*
X11772347Y72349124D01*
X11823222Y72400000D01*
X11793385Y72429837D01*
X11850000Y72429837D01*
X11850000Y72370163D01*
X11872836Y72315032D01*
X11915032Y72272836D01*
X11970163Y72250000D01*
X12029837Y72250000D01*
X12084968Y72272836D01*
X12127164Y72315032D01*
X12150000Y72370163D01*
X12150000Y72400001D01*
X12176777Y72400001D01*
X12595128Y71981650D01*
X12622905Y71927133D01*
X12624124Y71911646D01*
X12624124Y71902654D01*
X12650000Y71876778D01*
X13068353Y72295129D01*
X13122869Y72322906D01*
X13138356Y72324125D01*
X13147347Y72324125D01*
X13223222Y72400000D01*
X13193385Y72429837D01*
X13250000Y72429837D01*
X13250000Y72370163D01*
X13272836Y72315032D01*
X13315032Y72272836D01*
X13370163Y72250000D01*
X13429837Y72250000D01*
X13484968Y72272836D01*
X13527164Y72315032D01*
X13550000Y72370163D01*
X13550000Y72400001D01*
X13576777Y72400001D01*
X13995128Y71981650D01*
X14022905Y71927133D01*
X14024124Y71911646D01*
X14024124Y71902654D01*
X14099999Y71826779D01*
X14535404Y72262184D01*
X14475216Y72300003D01*
X19694867Y72300003D01*
X19694867Y72299998D01*
X19713302Y72171775D01*
X19729912Y72135406D01*
X19767118Y72053937D01*
X19829754Y71981650D01*
X19851952Y71956032D01*
X19960926Y71885999D01*
X19960931Y71885996D01*
X20085228Y71849500D01*
X20085230Y71849500D01*
X20214770Y71849500D01*
X20214772Y71849500D01*
X20339069Y71885996D01*
X20448049Y71956033D01*
X20532882Y72053937D01*
X20586697Y72171774D01*
X20597944Y72250000D01*
X20605133Y72299998D01*
X20605133Y72300003D01*
X20586697Y72428226D01*
X20580519Y72441753D01*
X20532882Y72546063D01*
X20448049Y72643967D01*
X20448048Y72643968D01*
X20448047Y72643969D01*
X20339073Y72714002D01*
X20339070Y72714004D01*
X20339069Y72714004D01*
X20339066Y72714005D01*
X20214774Y72750500D01*
X20214772Y72750500D01*
X20085228Y72750500D01*
X20085225Y72750500D01*
X19960933Y72714005D01*
X19960926Y72714002D01*
X19851952Y72643969D01*
X19767117Y72546062D01*
X19713302Y72428226D01*
X19694867Y72300003D01*
X14475216Y72300003D01*
X14427475Y72330001D01*
X14427466Y72330006D01*
X14267953Y72385822D01*
X14267941Y72385824D01*
X14233360Y72389721D01*
X14177652Y72415025D01*
X14147458Y72468241D01*
X14146068Y72477014D01*
X14135822Y72567950D01*
X14135821Y72567954D01*
X14080005Y72727467D01*
X14080002Y72727474D01*
X14012182Y72835406D01*
X13576777Y72400001D01*
X13550000Y72400001D01*
X13550000Y72429837D01*
X13527164Y72484968D01*
X13484968Y72527164D01*
X13429837Y72550000D01*
X13370163Y72550000D01*
X13315032Y72527164D01*
X13272836Y72484968D01*
X13250000Y72429837D01*
X13193385Y72429837D01*
X12787816Y72835406D01*
X12783824Y72829052D01*
X12736854Y72789841D01*
X12675807Y72785726D01*
X12624001Y72818280D01*
X12616174Y72829054D01*
X12612182Y72835406D01*
X12176777Y72400001D01*
X12150000Y72400001D01*
X12150000Y72429837D01*
X12127164Y72484968D01*
X12084968Y72527164D01*
X12029837Y72550000D01*
X11970163Y72550000D01*
X11915032Y72527164D01*
X11872836Y72484968D01*
X11850000Y72429837D01*
X11793385Y72429837D01*
X11387816Y72835406D01*
X11319998Y72727477D01*
X11319997Y72727473D01*
X11264176Y72567949D01*
X11264176Y72567947D01*
X11259636Y72527655D01*
X11234332Y72471947D01*
X11181116Y72441753D01*
X11172345Y72440364D01*
X11132053Y72435824D01*
X11132051Y72435824D01*
X10972527Y72380003D01*
X10972523Y72380002D01*
X10864594Y72312184D01*
X300500Y72312184D01*
X300500Y73012184D01*
X11564594Y73012184D01*
X11999999Y72576779D01*
X12435404Y73012184D01*
X12964594Y73012184D01*
X13399999Y72576779D01*
X13835404Y73012184D01*
X13727475Y73080001D01*
X13727466Y73080006D01*
X13567953Y73135822D01*
X13567949Y73135823D01*
X13400000Y73154746D01*
X13232050Y73135823D01*
X13232046Y73135822D01*
X13072527Y73080003D01*
X13072523Y73080002D01*
X12964594Y73012184D01*
X12435404Y73012184D01*
X12327475Y73080001D01*
X12327466Y73080006D01*
X12167953Y73135822D01*
X12167949Y73135823D01*
X12000000Y73154746D01*
X11832050Y73135823D01*
X11832046Y73135822D01*
X11672527Y73080003D01*
X11672523Y73080002D01*
X11564594Y73012184D01*
X300500Y73012184D01*
X300500Y73500003D01*
X21144867Y73500003D01*
X21144867Y73499998D01*
X21163302Y73371775D01*
X21176001Y73343969D01*
X21217118Y73253937D01*
X21223941Y73246063D01*
X21301952Y73156032D01*
X21345221Y73128225D01*
X21410931Y73085996D01*
X21535228Y73049500D01*
X21535230Y73049500D01*
X21664770Y73049500D01*
X21664772Y73049500D01*
X21789069Y73085996D01*
X21898049Y73156033D01*
X21982882Y73253937D01*
X22036697Y73371774D01*
X22055133Y73500000D01*
X22036697Y73628226D01*
X21982882Y73746063D01*
X21898049Y73843967D01*
X21898048Y73843968D01*
X21898047Y73843969D01*
X21789073Y73914002D01*
X21789070Y73914004D01*
X21789069Y73914004D01*
X21789066Y73914005D01*
X21664774Y73950500D01*
X21664772Y73950500D01*
X21535228Y73950500D01*
X21535225Y73950500D01*
X21410933Y73914005D01*
X21410926Y73914002D01*
X21301952Y73843969D01*
X21217117Y73746062D01*
X21163302Y73628226D01*
X21144867Y73500003D01*
X300500Y73500003D01*
X300500Y74750003D01*
X7744867Y74750003D01*
X7744867Y74749998D01*
X7763302Y74621775D01*
X7797879Y74546063D01*
X7817118Y74503937D01*
X7895044Y74414004D01*
X7901952Y74406032D01*
X8010926Y74335999D01*
X8010931Y74335996D01*
X8135228Y74299500D01*
X8135230Y74299500D01*
X8264770Y74299500D01*
X8264772Y74299500D01*
X8266485Y74300003D01*
X10544867Y74300003D01*
X10544867Y74299998D01*
X10563302Y74171775D01*
X10602477Y74085996D01*
X10617118Y74053937D01*
X10663854Y74000000D01*
X10701952Y73956032D01*
X10810926Y73885999D01*
X10810931Y73885996D01*
X10935228Y73849500D01*
X10935230Y73849500D01*
X11064770Y73849500D01*
X11064772Y73849500D01*
X11189069Y73885996D01*
X11298049Y73956033D01*
X11336149Y74000003D01*
X38144867Y74000003D01*
X38144867Y73999998D01*
X38163302Y73871775D01*
X38173475Y73849500D01*
X38217118Y73753937D01*
X38223941Y73746063D01*
X38301952Y73656032D01*
X38410926Y73585999D01*
X38410931Y73585996D01*
X38535228Y73549500D01*
X38535230Y73549500D01*
X38664770Y73549500D01*
X38664772Y73549500D01*
X38789069Y73585996D01*
X38898049Y73656033D01*
X38982882Y73753937D01*
X39036697Y73871774D01*
X39048016Y73950500D01*
X39055133Y73999998D01*
X39055133Y74000003D01*
X39036697Y74128226D01*
X39016809Y74171774D01*
X38982882Y74246063D01*
X38898049Y74343967D01*
X38898048Y74343968D01*
X38898047Y74343969D01*
X38789073Y74414002D01*
X38789070Y74414004D01*
X38789069Y74414004D01*
X38789066Y74414005D01*
X38664774Y74450500D01*
X38664772Y74450500D01*
X38535228Y74450500D01*
X38535225Y74450500D01*
X38410933Y74414005D01*
X38410926Y74414002D01*
X38301952Y74343969D01*
X38217117Y74246062D01*
X38163302Y74128226D01*
X38144867Y74000003D01*
X11336149Y74000003D01*
X11382882Y74053937D01*
X11436697Y74171774D01*
X11448510Y74253937D01*
X11455133Y74299998D01*
X11455133Y74300003D01*
X11436697Y74428226D01*
X11403919Y74499998D01*
X11403917Y74500003D01*
X19844867Y74500003D01*
X19844867Y74499998D01*
X19863302Y74371775D01*
X19876001Y74343969D01*
X19917118Y74253937D01*
X19923941Y74246063D01*
X20001952Y74156032D01*
X20110926Y74085999D01*
X20110931Y74085996D01*
X20235228Y74049500D01*
X20235230Y74049500D01*
X20364770Y74049500D01*
X20364772Y74049500D01*
X20489069Y74085996D01*
X20598049Y74156033D01*
X20682882Y74253937D01*
X20736697Y74371774D01*
X20755133Y74500000D01*
X20748510Y74546062D01*
X20736697Y74628226D01*
X20697523Y74714004D01*
X20682882Y74746063D01*
X20598049Y74843967D01*
X20598048Y74843968D01*
X20598047Y74843969D01*
X20489073Y74914002D01*
X20489070Y74914004D01*
X20489069Y74914004D01*
X20489066Y74914005D01*
X20364774Y74950500D01*
X20364772Y74950500D01*
X20235228Y74950500D01*
X20235225Y74950500D01*
X20110933Y74914005D01*
X20110926Y74914002D01*
X20001952Y74843969D01*
X19917117Y74746062D01*
X19863302Y74628226D01*
X19844867Y74500003D01*
X11403917Y74500003D01*
X11382882Y74546063D01*
X11298049Y74643967D01*
X11298048Y74643968D01*
X11298047Y74643969D01*
X11189073Y74714002D01*
X11189070Y74714004D01*
X11189069Y74714004D01*
X11189066Y74714005D01*
X11064774Y74750500D01*
X11064772Y74750500D01*
X10935228Y74750500D01*
X10935225Y74750500D01*
X10810933Y74714005D01*
X10810926Y74714002D01*
X10701952Y74643969D01*
X10617117Y74546062D01*
X10563302Y74428226D01*
X10544867Y74300003D01*
X8266485Y74300003D01*
X8389069Y74335996D01*
X8498049Y74406033D01*
X8582882Y74503937D01*
X8636697Y74621774D01*
X8655133Y74750000D01*
X8655061Y74750500D01*
X8636697Y74878226D01*
X8620358Y74914002D01*
X8582882Y74996063D01*
X8498049Y75093967D01*
X8498048Y75093968D01*
X8498047Y75093969D01*
X8389073Y75164002D01*
X8389070Y75164004D01*
X8389069Y75164004D01*
X8389066Y75164005D01*
X8264774Y75200500D01*
X8264772Y75200500D01*
X8135228Y75200500D01*
X8135225Y75200500D01*
X8010933Y75164005D01*
X8010926Y75164002D01*
X7901952Y75093969D01*
X7817117Y74996062D01*
X7763302Y74878226D01*
X7744867Y74750003D01*
X300500Y74750003D01*
X300500Y76250003D01*
X6594867Y76250003D01*
X6594867Y76249998D01*
X6613302Y76121775D01*
X6667117Y76003939D01*
X6667118Y76003937D01*
X6751951Y75906033D01*
X6751952Y75906032D01*
X6833011Y75853939D01*
X6860931Y75835996D01*
X6985228Y75799500D01*
X6985230Y75799500D01*
X7114770Y75799500D01*
X7114772Y75799500D01*
X7239069Y75835996D01*
X7348049Y75906033D01*
X7432882Y76003937D01*
X7476754Y76100003D01*
X20044867Y76100003D01*
X20044867Y76099998D01*
X20063302Y75971775D01*
X20117117Y75853939D01*
X20117118Y75853937D01*
X20201951Y75756033D01*
X20201952Y75756032D01*
X20310926Y75685999D01*
X20310931Y75685996D01*
X20435228Y75649500D01*
X20435230Y75649500D01*
X20564770Y75649500D01*
X20564772Y75649500D01*
X20689069Y75685996D01*
X20798049Y75756033D01*
X20882882Y75853937D01*
X20936697Y75971774D01*
X20955133Y76100000D01*
X20952002Y76121774D01*
X20936697Y76228226D01*
X20882882Y76346062D01*
X20882882Y76346063D01*
X20798049Y76443967D01*
X20798048Y76443968D01*
X20798047Y76443969D01*
X20689073Y76514002D01*
X20689070Y76514004D01*
X20689069Y76514004D01*
X20689066Y76514005D01*
X20564774Y76550500D01*
X20564772Y76550500D01*
X20435228Y76550500D01*
X20435225Y76550500D01*
X20310933Y76514005D01*
X20310926Y76514002D01*
X20201952Y76443969D01*
X20117117Y76346062D01*
X20063302Y76228226D01*
X20044867Y76100003D01*
X7476754Y76100003D01*
X7486697Y76121774D01*
X7492842Y76164516D01*
X7505133Y76249998D01*
X7505133Y76250003D01*
X7486697Y76378226D01*
X7432882Y76496063D01*
X7348049Y76593967D01*
X7348048Y76593968D01*
X7348047Y76593969D01*
X7239073Y76664002D01*
X7239070Y76664004D01*
X7239069Y76664004D01*
X7239066Y76664005D01*
X7114774Y76700500D01*
X7114772Y76700500D01*
X6985228Y76700500D01*
X6985225Y76700500D01*
X6860933Y76664005D01*
X6860926Y76664002D01*
X6751952Y76593969D01*
X6667117Y76496062D01*
X6613302Y76378226D01*
X6594867Y76250003D01*
X300500Y76250003D01*
X300500Y77400003D01*
X24044867Y77400003D01*
X24044867Y77399998D01*
X24063302Y77271775D01*
X24117117Y77153939D01*
X24117118Y77153937D01*
X24201951Y77056033D01*
X24201952Y77056032D01*
X24310926Y76985999D01*
X24310931Y76985996D01*
X24435228Y76949500D01*
X24435230Y76949500D01*
X24564770Y76949500D01*
X24564772Y76949500D01*
X24689069Y76985996D01*
X24798049Y77056033D01*
X24882882Y77153937D01*
X24936697Y77271774D01*
X24955133Y77400000D01*
X24936697Y77528226D01*
X24882882Y77646063D01*
X24798049Y77743967D01*
X24798048Y77743968D01*
X24798047Y77743969D01*
X24689073Y77814002D01*
X24689070Y77814004D01*
X24689069Y77814004D01*
X24689066Y77814005D01*
X24564774Y77850500D01*
X24564772Y77850500D01*
X24435228Y77850500D01*
X24435225Y77850500D01*
X24310933Y77814005D01*
X24310926Y77814002D01*
X24201952Y77743969D01*
X24117117Y77646062D01*
X24063302Y77528226D01*
X24044867Y77400003D01*
X300500Y77400003D01*
X300500Y78200003D01*
X16844867Y78200003D01*
X16844867Y78199998D01*
X16863302Y78071775D01*
X16868533Y78060321D01*
X16917118Y77953937D01*
X16970454Y77892383D01*
X17001952Y77856032D01*
X17110926Y77785999D01*
X17110931Y77785996D01*
X17235228Y77749500D01*
X17235230Y77749500D01*
X17364770Y77749500D01*
X17364772Y77749500D01*
X17489069Y77785996D01*
X17598049Y77856033D01*
X17682882Y77953937D01*
X17703920Y78000003D01*
X30244867Y78000003D01*
X30244867Y77999998D01*
X30263302Y77871775D01*
X30302477Y77785996D01*
X30317118Y77753937D01*
X30401951Y77656033D01*
X30401952Y77656032D01*
X30417466Y77646062D01*
X30510931Y77585996D01*
X30635228Y77549500D01*
X30635230Y77549500D01*
X30764770Y77549500D01*
X30764772Y77549500D01*
X30889069Y77585996D01*
X30998049Y77656033D01*
X31082882Y77753937D01*
X31136697Y77871774D01*
X31148510Y77953937D01*
X31155133Y77999998D01*
X31155133Y78000003D01*
X31136697Y78128226D01*
X31082882Y78246063D01*
X31030612Y78306387D01*
X33813661Y78306387D01*
X33813661Y78306382D01*
X33832096Y78178159D01*
X33885911Y78060323D01*
X33885912Y78060321D01*
X33970745Y77962417D01*
X33970746Y77962416D01*
X33983937Y77953939D01*
X34079725Y77892380D01*
X34204022Y77855884D01*
X34204024Y77855884D01*
X34333564Y77855884D01*
X34333566Y77855884D01*
X34457863Y77892380D01*
X34566843Y77962417D01*
X34651676Y78060321D01*
X34705491Y78178158D01*
X34723927Y78306384D01*
X34714094Y78374774D01*
X34724527Y78435061D01*
X34768404Y78477704D01*
X34828967Y78486412D01*
X34839969Y78483854D01*
X34935228Y78455884D01*
X34935230Y78455884D01*
X35064770Y78455884D01*
X35064772Y78455884D01*
X35189069Y78492380D01*
X35298049Y78562417D01*
X35382882Y78660321D01*
X35436697Y78778158D01*
X35455133Y78906384D01*
X35452897Y78921933D01*
X35436697Y79034610D01*
X35394973Y79125972D01*
X35382882Y79152447D01*
X35298049Y79250351D01*
X35298048Y79250352D01*
X35298047Y79250353D01*
X35189073Y79320386D01*
X35189070Y79320388D01*
X35189069Y79320388D01*
X35189066Y79320389D01*
X35064774Y79356884D01*
X35064772Y79356884D01*
X34935228Y79356884D01*
X34935225Y79356884D01*
X34810933Y79320389D01*
X34810926Y79320386D01*
X34701952Y79250353D01*
X34617117Y79152446D01*
X34563302Y79034610D01*
X34544867Y78906387D01*
X34544867Y78906382D01*
X34554699Y78837996D01*
X34544266Y78777707D01*
X34500388Y78735064D01*
X34439825Y78726357D01*
X34428816Y78728917D01*
X34333568Y78756884D01*
X34333566Y78756884D01*
X34204022Y78756884D01*
X34204019Y78756884D01*
X34079727Y78720389D01*
X34079720Y78720386D01*
X33970746Y78650353D01*
X33885911Y78552446D01*
X33832096Y78434610D01*
X33813661Y78306387D01*
X31030612Y78306387D01*
X30998049Y78343967D01*
X30998048Y78343968D01*
X30998047Y78343969D01*
X30889073Y78414002D01*
X30889070Y78414004D01*
X30889069Y78414004D01*
X30889066Y78414005D01*
X30764774Y78450500D01*
X30764772Y78450500D01*
X30635228Y78450500D01*
X30635225Y78450500D01*
X30510933Y78414005D01*
X30510926Y78414002D01*
X30401952Y78343969D01*
X30317117Y78246062D01*
X30263302Y78128226D01*
X30244867Y78000003D01*
X17703920Y78000003D01*
X17736697Y78071774D01*
X17755133Y78200000D01*
X17748510Y78246062D01*
X17736697Y78328226D01*
X17697523Y78414004D01*
X17682882Y78446063D01*
X17598049Y78543967D01*
X17598048Y78543968D01*
X17598047Y78543969D01*
X17489073Y78614002D01*
X17489070Y78614004D01*
X17489069Y78614004D01*
X17489066Y78614005D01*
X17364774Y78650500D01*
X17364772Y78650500D01*
X17235228Y78650500D01*
X17235225Y78650500D01*
X17110933Y78614005D01*
X17110926Y78614002D01*
X17001952Y78543969D01*
X16917117Y78446062D01*
X16863302Y78328226D01*
X16844867Y78200003D01*
X300500Y78200003D01*
X300500Y78906253D01*
X305345Y78936845D01*
X310401Y78952405D01*
X310401Y78995170D01*
X310872Y79004812D01*
X317875Y79076373D01*
X322729Y79125974D01*
X326468Y79144892D01*
X328744Y79152446D01*
X360194Y79256819D01*
X367522Y79274635D01*
X422311Y79377907D01*
X432959Y79393972D01*
X506727Y79484656D01*
X520286Y79498350D01*
X610239Y79573015D01*
X626191Y79583818D01*
X728916Y79639628D01*
X746660Y79647132D01*
X858260Y79681968D01*
X877121Y79685890D01*
X966164Y79695495D01*
X998009Y79698929D01*
X1008626Y79699500D01*
X38952405Y79699500D01*
X38995139Y79699500D01*
X39004842Y79699024D01*
G37*
%TD.AperFunction*%
%TD*%
M02*
