%TF.GenerationSoftware,KiCad,Pcbnew,8.0.4*%
%TF.CreationDate,2024-08-24T14:44:17+02:00*%
%TF.ProjectId,BarbelMotionTracker-V1,42617262-656c-44d6-9f74-696f6e547261,rev?*%
%TF.SameCoordinates,PX7bfa480PY7735940*%
%TF.FileFunction,Soldermask,Top*%
%TF.FilePolarity,Negative*%
%FSLAX46Y46*%
G04 Gerber Fmt 4.6, Leading zero omitted, Abs format (unit mm)*
G04 Created by KiCad (PCBNEW 8.0.4) date 2024-08-24 14:44:17*
%MOMM*%
%LPD*%
G01*
G04 APERTURE LIST*
G04 Aperture macros list*
%AMRoundRect*
0 Rectangle with rounded corners*
0 $1 Rounding radius*
0 $2 $3 $4 $5 $6 $7 $8 $9 X,Y pos of 4 corners*
0 Add a 4 corners polygon primitive as box body*
4,1,4,$2,$3,$4,$5,$6,$7,$8,$9,$2,$3,0*
0 Add four circle primitives for the rounded corners*
1,1,$1+$1,$2,$3*
1,1,$1+$1,$4,$5*
1,1,$1+$1,$6,$7*
1,1,$1+$1,$8,$9*
0 Add four rect primitives between the rounded corners*
20,1,$1+$1,$2,$3,$4,$5,0*
20,1,$1+$1,$4,$5,$6,$7,0*
20,1,$1+$1,$6,$7,$8,$9,0*
20,1,$1+$1,$8,$9,$2,$3,0*%
G04 Aperture macros list end*
%ADD10RoundRect,0.200000X0.275000X-0.200000X0.275000X0.200000X-0.275000X0.200000X-0.275000X-0.200000X0*%
%ADD11C,1.000000*%
%ADD12R,0.900000X1.400000*%
%ADD13C,2.200000*%
%ADD14RoundRect,0.200000X-0.200000X-0.275000X0.200000X-0.275000X0.200000X0.275000X-0.200000X0.275000X0*%
%ADD15RoundRect,0.200000X0.200000X0.275000X-0.200000X0.275000X-0.200000X-0.275000X0.200000X-0.275000X0*%
%ADD16RoundRect,0.225000X0.225000X0.250000X-0.225000X0.250000X-0.225000X-0.250000X0.225000X-0.250000X0*%
%ADD17RoundRect,0.225000X0.250000X-0.225000X0.250000X0.225000X-0.250000X0.225000X-0.250000X-0.225000X0*%
%ADD18RoundRect,0.200000X-0.275000X0.200000X-0.275000X-0.200000X0.275000X-0.200000X0.275000X0.200000X0*%
%ADD19C,1.550000*%
%ADD20RoundRect,0.140000X0.170000X-0.140000X0.170000X0.140000X-0.170000X0.140000X-0.170000X-0.140000X0*%
%ADD21RoundRect,0.140000X-0.170000X0.140000X-0.170000X-0.140000X0.170000X-0.140000X0.170000X0.140000X0*%
%ADD22RoundRect,0.225000X-0.250000X0.225000X-0.250000X-0.225000X0.250000X-0.225000X0.250000X0.225000X0*%
%ADD23R,1.800000X1.000000*%
%ADD24R,0.250000X0.275000*%
%ADD25R,0.275000X0.250000*%
%ADD26R,0.350000X3.200000*%
%ADD27R,1.500000X0.900000*%
%ADD28R,0.900000X1.500000*%
%ADD29R,0.900000X0.900000*%
%ADD30C,0.700000*%
%ADD31C,2.250000*%
%ADD32RoundRect,0.250000X0.475000X-0.250000X0.475000X0.250000X-0.475000X0.250000X-0.475000X-0.250000X0*%
%ADD33RoundRect,0.250000X0.625000X-0.312500X0.625000X0.312500X-0.625000X0.312500X-0.625000X-0.312500X0*%
%ADD34RoundRect,0.225000X-0.225000X-0.250000X0.225000X-0.250000X0.225000X0.250000X-0.225000X0.250000X0*%
%ADD35RoundRect,0.243750X-0.243750X-0.456250X0.243750X-0.456250X0.243750X0.456250X-0.243750X0.456250X0*%
%ADD36R,1.300000X1.300000*%
%ADD37C,1.300000*%
%ADD38R,1.250000X0.600000*%
%ADD39C,2.450000*%
%ADD40R,0.300000X0.450000*%
%ADD41R,0.450000X0.300000*%
%ADD42RoundRect,0.102000X0.262500X-0.150000X0.262500X0.150000X-0.262500X0.150000X-0.262500X-0.150000X0*%
%ADD43RoundRect,0.102000X0.150000X-0.212500X0.150000X0.212500X-0.150000X0.212500X-0.150000X-0.212500X0*%
%ADD44R,1.100000X0.600000*%
%ADD45R,1.100000X0.850000*%
%ADD46R,1.100000X0.750000*%
%ADD47R,1.800000X1.170000*%
%ADD48R,1.350000X1.900000*%
%ADD49R,1.000000X1.200000*%
%ADD50R,1.350000X1.550000*%
%ADD51RoundRect,0.250000X-0.350000X-0.625000X0.350000X-0.625000X0.350000X0.625000X-0.350000X0.625000X0*%
%ADD52O,1.200000X1.750000*%
%ADD53C,0.650000*%
%ADD54O,2.304000X1.204000*%
%ADD55RoundRect,0.301000X-0.701000X0.301000X-0.701000X-0.301000X0.701000X-0.301000X0.701000X0.301000X0*%
G04 APERTURE END LIST*
D10*
%TO.C,R25*%
X11500000Y56675000D03*
X11500000Y58325000D03*
%TD*%
D11*
%TO.C,TP5*%
X1850000Y57800000D03*
%TD*%
D12*
%TO.C,LED2*%
X35800000Y4600000D03*
X37700000Y4600000D03*
%TD*%
D13*
%TO.C,H2*%
X26700000Y71700000D03*
%TD*%
D14*
%TO.C,R3*%
X2037500Y75500000D03*
X3687500Y75500000D03*
%TD*%
D15*
%TO.C,R28*%
X30500000Y58600000D03*
X28850000Y58600000D03*
%TD*%
D14*
%TO.C,R31*%
X31975000Y63600000D03*
X33625000Y63600000D03*
%TD*%
D16*
%TO.C,C29*%
X36975000Y63800000D03*
X35425000Y63800000D03*
%TD*%
D17*
%TO.C,C21*%
X23800000Y52325000D03*
X23800000Y53875000D03*
%TD*%
D18*
%TO.C,R50*%
X27100000Y44125000D03*
X27100000Y42475000D03*
%TD*%
D15*
%TO.C,R48*%
X38725000Y61200000D03*
X37075000Y61200000D03*
%TD*%
D10*
%TO.C,R36*%
X26850000Y76225000D03*
X26850000Y77875000D03*
%TD*%
D19*
%TO.C,IC9*%
X34500000Y31500000D03*
X34500000Y34040000D03*
X29000000Y34040000D03*
X29000000Y31500000D03*
%TD*%
D20*
%TO.C,C32*%
X30900000Y67420000D03*
X30900000Y68380000D03*
%TD*%
D21*
%TO.C,C33*%
X30900000Y70230000D03*
X30900000Y69270000D03*
%TD*%
D22*
%TO.C,C34*%
X2087500Y73975000D03*
X2087500Y72425000D03*
%TD*%
D23*
%TO.C,Y1*%
X33300000Y67600000D03*
X33300000Y70100000D03*
%TD*%
D12*
%TO.C,LED1*%
X35700000Y7100000D03*
X37700000Y7100000D03*
%TD*%
D15*
%TO.C,R39*%
X33825000Y44000000D03*
X32175000Y44000000D03*
%TD*%
D10*
%TO.C,R37*%
X28350000Y76225000D03*
X28350000Y77875000D03*
%TD*%
D24*
%TO.C,IC6*%
X2012000Y52237000D03*
X2512000Y52237000D03*
D25*
X3024000Y52500000D03*
X3024000Y53000000D03*
X3024000Y53500000D03*
D24*
X2512000Y53763000D03*
X2012000Y53763000D03*
D25*
X1500000Y53500000D03*
X1500000Y53000000D03*
X1500000Y52500000D03*
%TD*%
D22*
%TO.C,C28*%
X33000000Y79000000D03*
X33000000Y77450000D03*
%TD*%
D26*
%TO.C,DISP1*%
X19325000Y49275000D03*
X18625000Y49275000D03*
X17925000Y49275000D03*
X17225000Y49275000D03*
X16525000Y49275000D03*
X15825000Y49275000D03*
X15125000Y49275000D03*
X14425000Y49275000D03*
X13725000Y49275000D03*
X13025000Y49275000D03*
X12325000Y49275000D03*
X11625000Y49275000D03*
%TD*%
D27*
%TO.C,U1*%
X5450000Y78710000D03*
X5450000Y77440000D03*
X5450000Y76170000D03*
X5450000Y74900000D03*
X5450000Y73630000D03*
X5450000Y72360000D03*
X5450000Y71090000D03*
X5450000Y69820000D03*
X5450000Y68550000D03*
X5450000Y67280000D03*
X5450000Y66010000D03*
X5450000Y64740000D03*
X5450000Y63470000D03*
X5450000Y62200000D03*
D28*
X8485000Y60950000D03*
X9755000Y60950000D03*
X11025000Y60950000D03*
X12295000Y60950000D03*
X13565000Y60950000D03*
X14835000Y60950000D03*
X16105000Y60950000D03*
X17375000Y60950000D03*
X18645000Y60950000D03*
X19915000Y60950000D03*
D27*
X22950000Y62200000D03*
X22950000Y63470000D03*
X22950000Y64740000D03*
X22950000Y66010000D03*
X22950000Y67280000D03*
X22950000Y68550000D03*
X22950000Y69820000D03*
X22950000Y71090000D03*
X22950000Y72360000D03*
X22950000Y73630000D03*
X22950000Y74900000D03*
X22950000Y76170000D03*
X22950000Y77440000D03*
X22950000Y78710000D03*
D29*
X11300000Y72390000D03*
D30*
X11300000Y71700000D03*
D29*
X11300000Y70990000D03*
D30*
X11300000Y70300000D03*
D29*
X11300000Y69590000D03*
D30*
X12000000Y72400000D03*
X12000000Y70950000D03*
X12000000Y69550000D03*
X12650000Y71700000D03*
D29*
X12700000Y72390000D03*
X12700000Y70990000D03*
D30*
X12700000Y70300000D03*
D29*
X12700000Y69590000D03*
D30*
X13400000Y72400000D03*
X13400000Y71000000D03*
X13400000Y69590000D03*
D29*
X14100000Y72390000D03*
D30*
X14100000Y71650000D03*
D29*
X14100000Y70990000D03*
D30*
X14100000Y70300000D03*
D29*
X14100000Y69590000D03*
%TD*%
D31*
%TO.C,SW1*%
X8500000Y37600000D03*
X5500000Y37600000D03*
X2500000Y37600000D03*
%TD*%
D13*
%TO.C,H4*%
X2000000Y69200000D03*
%TD*%
D14*
%TO.C,R27*%
X28475000Y62100000D03*
X30125000Y62100000D03*
%TD*%
D32*
%TO.C,C2*%
X1887500Y77000000D03*
X1887500Y78900000D03*
%TD*%
D33*
%TO.C,R14*%
X19300000Y52437500D03*
X19300000Y55362500D03*
%TD*%
D13*
%TO.C,H3*%
X37600000Y17700000D03*
%TD*%
D14*
%TO.C,R26*%
X28475000Y63600000D03*
X30125000Y63600000D03*
%TD*%
D22*
%TO.C,C30*%
X38700000Y64975000D03*
X38700000Y63425000D03*
%TD*%
D32*
%TO.C,C20*%
X22000000Y52150000D03*
X22000000Y54050000D03*
%TD*%
D34*
%TO.C,C22*%
X1475000Y50263000D03*
X3025000Y50263000D03*
%TD*%
D32*
%TO.C,C27*%
X33000000Y74050000D03*
X33000000Y75950000D03*
%TD*%
D22*
%TO.C,C3*%
X3587500Y73975000D03*
X3587500Y72425000D03*
%TD*%
D14*
%TO.C,R15*%
X14675000Y59000000D03*
X16325000Y59000000D03*
%TD*%
D18*
%TO.C,R34*%
X4400000Y46525000D03*
X4400000Y44875000D03*
%TD*%
D16*
%TO.C,C31*%
X36975000Y65300000D03*
X35425000Y65300000D03*
%TD*%
D15*
%TO.C,R29*%
X30500000Y60100000D03*
X28850000Y60100000D03*
%TD*%
D16*
%TO.C,C12*%
X17400000Y54510000D03*
X15850000Y54510000D03*
%TD*%
D11*
%TO.C,TP3*%
X3900000Y57750000D03*
%TD*%
D17*
%TO.C,C1*%
X3687500Y77175000D03*
X3687500Y78725000D03*
%TD*%
D10*
%TO.C,R35*%
X2900000Y44875000D03*
X2900000Y46525000D03*
%TD*%
D35*
%TO.C,D1*%
X35562500Y44000000D03*
X37437500Y44000000D03*
%TD*%
D18*
%TO.C,R49*%
X13000000Y58325000D03*
X13000000Y56675000D03*
%TD*%
D22*
%TO.C,C35*%
X24750000Y62175000D03*
X24750000Y60625000D03*
%TD*%
D34*
%TO.C,C23*%
X1475000Y48500000D03*
X3025000Y48500000D03*
%TD*%
D10*
%TO.C,R18*%
X8500000Y56675000D03*
X8500000Y58325000D03*
%TD*%
D13*
%TO.C,H1*%
X21900000Y37600000D03*
%TD*%
D36*
%TO.C,U3*%
X33900000Y39500000D03*
D37*
X37100000Y39500000D03*
%TD*%
D15*
%TO.C,R42*%
X3075000Y56000000D03*
X1425000Y56000000D03*
%TD*%
D38*
%TO.C,Q3*%
X18000000Y58910000D03*
X18000000Y57000000D03*
X20100000Y57955000D03*
%TD*%
D15*
%TO.C,R30*%
X33625000Y62100000D03*
X31975000Y62100000D03*
%TD*%
D14*
%TO.C,R33*%
X32350000Y60100000D03*
X34000000Y60100000D03*
%TD*%
%TO.C,R32*%
X32350000Y58600000D03*
X34000000Y58600000D03*
%TD*%
D16*
%TO.C,C11*%
X17400000Y53000000D03*
X15850000Y53000000D03*
%TD*%
D39*
%TO.C,ENC1*%
X14900000Y2100000D03*
X25300000Y2900000D03*
X24500000Y11500000D03*
X16500000Y17000000D03*
X33900000Y21800000D03*
X24500000Y25000000D03*
X11100000Y24900000D03*
X1700000Y14600000D03*
X10200000Y33400000D03*
%TD*%
D40*
%TO.C,IC8*%
X38000000Y78050000D03*
X37500000Y78050000D03*
X37000000Y78050000D03*
X36500000Y78050000D03*
D41*
X35975000Y77525000D03*
X35975000Y77025000D03*
X35975000Y76525000D03*
X35975000Y76025000D03*
D40*
X36500000Y75500000D03*
X37000000Y75500000D03*
X37500000Y75500000D03*
X38000000Y75500000D03*
D41*
X38525000Y76025000D03*
X38525000Y76525000D03*
X38525000Y77025000D03*
X38525000Y77525000D03*
%TD*%
D10*
%TO.C,R17*%
X10000000Y56675000D03*
X10000000Y58325000D03*
%TD*%
D42*
%TO.C,U2*%
X35937500Y66750000D03*
D43*
X36750000Y66687500D03*
X37250000Y66687500D03*
X37750000Y66687500D03*
X38250000Y66687500D03*
D42*
X39062500Y66750000D03*
X39062500Y67250000D03*
X39062500Y67750000D03*
X39062500Y68250000D03*
X39062500Y68750000D03*
X39062500Y69250000D03*
X39062500Y69750000D03*
X39062500Y70250000D03*
X39062500Y70750000D03*
X39062500Y71250000D03*
D43*
X38250000Y71312500D03*
X37750000Y71312500D03*
X37250000Y71312500D03*
X36750000Y71312500D03*
D42*
X35937500Y71250000D03*
X35937500Y70750000D03*
X35937500Y70250000D03*
X35937500Y69750000D03*
X35937500Y69250000D03*
X35937500Y68750000D03*
X35937500Y68250000D03*
X35937500Y67750000D03*
X35937500Y67250000D03*
%TD*%
D18*
%TO.C,R46*%
X5000000Y53325000D03*
X5000000Y51675000D03*
%TD*%
D15*
%TO.C,R44*%
X34325000Y72400000D03*
X32675000Y72400000D03*
%TD*%
D44*
%TO.C,Q4*%
X28800000Y42350000D03*
X28800000Y40450000D03*
X31000000Y41400000D03*
%TD*%
D45*
%TO.C,J3*%
X36215820Y54605000D03*
X36215820Y53505000D03*
X36215820Y52405000D03*
X36215820Y51305000D03*
X36215820Y50205000D03*
X36215820Y49105000D03*
X36215820Y48005000D03*
D46*
X36215820Y46955000D03*
D47*
X35865820Y45745000D03*
D48*
X25390820Y47770000D03*
X25390820Y53740000D03*
D49*
X26365820Y57240000D03*
X30065820Y57240000D03*
D50*
X36090820Y57065000D03*
%TD*%
D51*
%TO.C,J4*%
X28500000Y44000000D03*
D52*
X30500000Y44000000D03*
%TD*%
D53*
%TO.C,J1*%
X33570000Y8890000D03*
X33570000Y3110000D03*
D54*
X33070000Y10320000D03*
X33070000Y1680000D03*
D55*
X37250000Y10320000D03*
X37250000Y1680000D03*
%TD*%
M02*
