%TF.GenerationSoftware,KiCad,Pcbnew,8.0.4*%
%TF.CreationDate,2024-08-24T14:44:17+02:00*%
%TF.ProjectId,BarbelMotionTracker-V1,42617262-656c-44d6-9f74-696f6e547261,rev?*%
%TF.SameCoordinates,PX7bfa480PY7735940*%
%TF.FileFunction,Soldermask,Bot*%
%TF.FilePolarity,Negative*%
%FSLAX46Y46*%
G04 Gerber Fmt 4.6, Leading zero omitted, Abs format (unit mm)*
G04 Created by KiCad (PCBNEW 8.0.4) date 2024-08-24 14:44:17*
%MOMM*%
%LPD*%
G01*
G04 APERTURE LIST*
G04 Aperture macros list*
%AMRoundRect*
0 Rectangle with rounded corners*
0 $1 Rounding radius*
0 $2 $3 $4 $5 $6 $7 $8 $9 X,Y pos of 4 corners*
0 Add a 4 corners polygon primitive as box body*
4,1,4,$2,$3,$4,$5,$6,$7,$8,$9,$2,$3,0*
0 Add four circle primitives for the rounded corners*
1,1,$1+$1,$2,$3*
1,1,$1+$1,$4,$5*
1,1,$1+$1,$6,$7*
1,1,$1+$1,$8,$9*
0 Add four rect primitives between the rounded corners*
20,1,$1+$1,$2,$3,$4,$5,0*
20,1,$1+$1,$4,$5,$6,$7,0*
20,1,$1+$1,$6,$7,$8,$9,0*
20,1,$1+$1,$8,$9,$2,$3,0*%
G04 Aperture macros list end*
%ADD10C,2.200000*%
%ADD11C,1.550000*%
%ADD12C,0.700000*%
%ADD13C,2.250000*%
%ADD14R,1.300000X1.300000*%
%ADD15C,1.300000*%
%ADD16C,2.450000*%
%ADD17RoundRect,0.225000X0.225000X0.250000X-0.225000X0.250000X-0.225000X-0.250000X0.225000X-0.250000X0*%
%ADD18RoundRect,0.200000X0.200000X0.275000X-0.200000X0.275000X-0.200000X-0.275000X0.200000X-0.275000X0*%
%ADD19C,1.000000*%
%ADD20RoundRect,0.200000X-0.275000X0.200000X-0.275000X-0.200000X0.275000X-0.200000X0.275000X0.200000X0*%
%ADD21RoundRect,0.225000X0.250000X-0.225000X0.250000X0.225000X-0.250000X0.225000X-0.250000X-0.225000X0*%
%ADD22R,0.550000X1.050000*%
%ADD23RoundRect,0.250000X-0.350000X-0.625000X0.350000X-0.625000X0.350000X0.625000X-0.350000X0.625000X0*%
%ADD24O,1.200000X1.750000*%
%ADD25RoundRect,0.200000X-0.200000X-0.275000X0.200000X-0.275000X0.200000X0.275000X-0.200000X0.275000X0*%
%ADD26R,0.600000X1.100000*%
%ADD27RoundRect,0.250000X0.325000X0.650000X-0.325000X0.650000X-0.325000X-0.650000X0.325000X-0.650000X0*%
%ADD28R,1.600000X2.150000*%
%ADD29R,0.850000X0.300000*%
%ADD30R,0.300000X0.850000*%
%ADD31R,2.550000X2.550000*%
%ADD32RoundRect,0.250000X-0.325000X-1.100000X0.325000X-1.100000X0.325000X1.100000X-0.325000X1.100000X0*%
%ADD33RoundRect,0.250000X0.475000X-0.250000X0.475000X0.250000X-0.475000X0.250000X-0.475000X-0.250000X0*%
%ADD34C,0.650000*%
%ADD35RoundRect,0.102000X-0.550000X0.300000X-0.550000X-0.300000X0.550000X-0.300000X0.550000X0.300000X0*%
%ADD36RoundRect,0.102000X-0.575000X0.300000X-0.575000X-0.300000X0.575000X-0.300000X0.575000X0.300000X0*%
%ADD37RoundRect,0.102000X-0.575000X0.150000X-0.575000X-0.150000X0.575000X-0.150000X0.575000X0.150000X0*%
%ADD38O,2.304000X1.204000*%
%ADD39RoundRect,0.301000X-0.701000X0.301000X-0.701000X-0.301000X0.701000X-0.301000X0.701000X0.301000X0*%
%ADD40RoundRect,0.250000X0.625000X-0.312500X0.625000X0.312500X-0.625000X0.312500X-0.625000X-0.312500X0*%
%ADD41R,1.200000X0.600000*%
%ADD42R,0.600000X0.300000*%
%ADD43R,0.300000X0.600000*%
%ADD44R,0.790000X1.660000*%
%ADD45RoundRect,0.200000X0.275000X-0.200000X0.275000X0.200000X-0.275000X0.200000X-0.275000X-0.200000X0*%
%ADD46R,0.350000X0.800000*%
%ADD47R,0.800000X0.350000*%
%ADD48R,2.800000X2.800000*%
G04 APERTURE END LIST*
D10*
%TO.C,H2*%
X26700000Y71700000D03*
%TD*%
D11*
%TO.C,IC9*%
X34500000Y31500000D03*
X34500000Y34040000D03*
X29000000Y34040000D03*
X29000000Y31500000D03*
%TD*%
D12*
%TO.C,U1*%
X11300000Y71700000D03*
X11300000Y70300000D03*
X12000000Y72400000D03*
X12000000Y70950000D03*
X12000000Y69550000D03*
X12650000Y71700000D03*
X12700000Y70300000D03*
X13400000Y72400000D03*
X13400000Y71000000D03*
X13400000Y69590000D03*
X14100000Y71650000D03*
X14100000Y70300000D03*
%TD*%
D13*
%TO.C,SW1*%
X8500000Y37600000D03*
X5500000Y37600000D03*
X2500000Y37600000D03*
%TD*%
D10*
%TO.C,H4*%
X2000000Y69200000D03*
%TD*%
%TO.C,H3*%
X37600000Y17700000D03*
%TD*%
%TO.C,H1*%
X21900000Y37600000D03*
%TD*%
D14*
%TO.C,U3*%
X33900000Y39500000D03*
D15*
X37100000Y39500000D03*
%TD*%
D16*
%TO.C,ENC1*%
X14900000Y2100000D03*
X25300000Y2900000D03*
X24500000Y11500000D03*
X16500000Y17000000D03*
X33900000Y21800000D03*
X24500000Y25000000D03*
X11100000Y24900000D03*
X1700000Y14600000D03*
X10200000Y33400000D03*
%TD*%
D17*
%TO.C,C6*%
X4275000Y29500000D03*
X2725000Y29500000D03*
%TD*%
D18*
%TO.C,R40*%
X14275000Y28650000D03*
X12625000Y28650000D03*
%TD*%
D19*
%TO.C,TP8*%
X25600000Y14600000D03*
%TD*%
D18*
%TO.C,R8*%
X22900000Y2500000D03*
X21250000Y2500000D03*
%TD*%
D20*
%TO.C,R4*%
X25200000Y21625000D03*
X25200000Y19975000D03*
%TD*%
%TO.C,R22*%
X4900000Y24650000D03*
X4900000Y23000000D03*
%TD*%
D21*
%TO.C,C15*%
X36000000Y22162500D03*
X36000000Y23712500D03*
%TD*%
D18*
%TO.C,R45*%
X16325000Y8000000D03*
X14675000Y8000000D03*
%TD*%
D20*
%TO.C,R19*%
X1900000Y24650000D03*
X1900000Y23000000D03*
%TD*%
D22*
%TO.C,IC3*%
X2600000Y34100000D03*
X3550000Y34100000D03*
X4500000Y34100000D03*
X4500000Y31500000D03*
X2600000Y31500000D03*
%TD*%
D23*
%TO.C,J4*%
X28500000Y44000000D03*
D24*
X30500000Y44000000D03*
%TD*%
D19*
%TO.C,TP2*%
X37900000Y45800000D03*
%TD*%
D21*
%TO.C,C18*%
X30500000Y19800000D03*
X30500000Y21350000D03*
%TD*%
D25*
%TO.C,R6*%
X21250000Y1000000D03*
X22900000Y1000000D03*
%TD*%
D20*
%TO.C,R20*%
X36000000Y26987500D03*
X36000000Y25337500D03*
%TD*%
%TO.C,R21*%
X37500000Y26962500D03*
X37500000Y25312500D03*
%TD*%
D26*
%TO.C,Q2*%
X23450000Y14000000D03*
X21550000Y14000000D03*
X22500000Y16200000D03*
%TD*%
D19*
%TO.C,TP7*%
X17800000Y36800000D03*
%TD*%
D27*
%TO.C,C38*%
X10175000Y12100000D03*
X7225000Y12100000D03*
%TD*%
D20*
%TO.C,R12*%
X1000000Y34325000D03*
X1000000Y32675000D03*
%TD*%
D28*
%TO.C,L1*%
X3125000Y6800000D03*
X3125000Y2000000D03*
%TD*%
D20*
%TO.C,R5*%
X26700000Y19925000D03*
X26700000Y18275000D03*
%TD*%
D17*
%TO.C,C36*%
X9475000Y10200000D03*
X7925000Y10200000D03*
%TD*%
D21*
%TO.C,C26*%
X18500000Y31900000D03*
X18500000Y33450000D03*
%TD*%
D29*
%TO.C,IC2*%
X21700000Y9200000D03*
X21700000Y8700000D03*
X21700000Y8200000D03*
X21700000Y7700000D03*
X21700000Y7200000D03*
X21700000Y6700000D03*
D30*
X21000000Y6000000D03*
X20500000Y6000000D03*
X20000000Y6000000D03*
X19500000Y6000000D03*
X19000000Y6000000D03*
X18500000Y6000000D03*
D29*
X17800000Y6700000D03*
X17800000Y7200000D03*
X17800000Y7700000D03*
X17800000Y8200000D03*
X17800000Y8700000D03*
X17800000Y9200000D03*
D30*
X18500000Y9900000D03*
X19000000Y9900000D03*
X19500000Y9900000D03*
X20000000Y9900000D03*
X20500000Y9900000D03*
X21000000Y9900000D03*
D31*
X19750000Y7950000D03*
%TD*%
D20*
%TO.C,R24*%
X29000000Y24625000D03*
X29000000Y22975000D03*
%TD*%
D32*
%TO.C,C37*%
X7025000Y1700000D03*
X9975000Y1700000D03*
%TD*%
D33*
%TO.C,C4*%
X23400000Y4850000D03*
X23400000Y6750000D03*
%TD*%
D21*
%TO.C,C13*%
X3400000Y19825000D03*
X3400000Y21375000D03*
%TD*%
%TO.C,C25*%
X20000000Y31900000D03*
X20000000Y33450000D03*
%TD*%
%TO.C,C14*%
X1900000Y19825000D03*
X1900000Y21375000D03*
%TD*%
D34*
%TO.C,J1*%
X33570000Y8890000D03*
X33570000Y3110000D03*
D35*
X32495000Y9200000D03*
D36*
X32495000Y8400000D03*
D37*
X32495000Y7250000D03*
X32495000Y6250000D03*
X32495000Y5750000D03*
X32495000Y4750000D03*
D35*
X32495000Y2800000D03*
D36*
X32495000Y3600000D03*
D37*
X32495000Y4250000D03*
X32495000Y5250000D03*
X32495000Y6750000D03*
X32495000Y7750000D03*
D38*
X33070000Y10320000D03*
X33070000Y1680000D03*
D39*
X37250000Y10320000D03*
X37250000Y1680000D03*
%TD*%
D21*
%TO.C,C16*%
X37500000Y22137500D03*
X37500000Y23687500D03*
%TD*%
D17*
%TO.C,C24*%
X23775000Y29500000D03*
X22225000Y29500000D03*
%TD*%
D40*
%TO.C,R41*%
X31000000Y28837500D03*
X31000000Y31762500D03*
%TD*%
D21*
%TO.C,C19*%
X29000000Y19800000D03*
X29000000Y21350000D03*
%TD*%
D25*
%TO.C,R7*%
X17075000Y4530000D03*
X18725000Y4530000D03*
%TD*%
D41*
%TO.C,IC1*%
X26880000Y5000000D03*
X26880000Y5950000D03*
X26880000Y6900000D03*
X29380000Y6900000D03*
X29380000Y5950000D03*
X29380000Y5000000D03*
%TD*%
D20*
%TO.C,R16*%
X3400000Y24650000D03*
X3400000Y23000000D03*
%TD*%
D42*
%TO.C,IC7*%
X24150000Y33425000D03*
X24150000Y32925000D03*
X24150000Y32425000D03*
X24150000Y31925000D03*
D43*
X23500000Y31775000D03*
X23000000Y31775000D03*
X22500000Y31775000D03*
D42*
X21850000Y31925000D03*
X21850000Y32425000D03*
X21850000Y32925000D03*
X21850000Y33425000D03*
D43*
X22500000Y33575000D03*
X23000000Y33575000D03*
X23500000Y33575000D03*
%TD*%
D44*
%TO.C,U4*%
X14400000Y34366500D03*
X14400000Y30366500D03*
X12600000Y30366500D03*
X12600000Y34366500D03*
%TD*%
D17*
%TO.C,C5*%
X21675000Y4300000D03*
X20125000Y4300000D03*
%TD*%
D20*
%TO.C,R1*%
X29500000Y10325000D03*
X29500000Y8675000D03*
%TD*%
D40*
%TO.C,R38*%
X16500000Y31212500D03*
X16500000Y34137500D03*
%TD*%
D18*
%TO.C,R9*%
X22600000Y12450000D03*
X20950000Y12450000D03*
%TD*%
D19*
%TO.C,TP6*%
X15800000Y14600000D03*
%TD*%
%TO.C,TP4*%
X37900000Y55600000D03*
%TD*%
D21*
%TO.C,C17*%
X4900000Y19825000D03*
X4900000Y21375000D03*
%TD*%
D19*
%TO.C,TP1*%
X1200000Y10200000D03*
%TD*%
D20*
%TO.C,R13*%
X37500000Y14500000D03*
X37500000Y12850000D03*
%TD*%
%TO.C,R2*%
X29500000Y3225000D03*
X29500000Y1575000D03*
%TD*%
D45*
%TO.C,R11*%
X36000000Y12850000D03*
X36000000Y14500000D03*
%TD*%
D26*
%TO.C,Q1*%
X19950000Y14000000D03*
X18050000Y14000000D03*
X19000000Y16200000D03*
%TD*%
D45*
%TO.C,R47*%
X26500000Y31850000D03*
X26500000Y33500000D03*
%TD*%
%TO.C,R43*%
X33000000Y28675000D03*
X33000000Y30325000D03*
%TD*%
D25*
%TO.C,R10*%
X17675000Y12450000D03*
X19325000Y12450000D03*
%TD*%
D20*
%TO.C,R23*%
X30500000Y24625000D03*
X30500000Y22975000D03*
%TD*%
D46*
%TO.C,IC5*%
X7750000Y8800000D03*
X8400000Y8800000D03*
X9050000Y8800000D03*
X9700000Y8800000D03*
D47*
X10725000Y7775000D03*
X10725000Y7125000D03*
X10725000Y6475000D03*
X10725000Y5825000D03*
D46*
X9700000Y4800000D03*
X9050000Y4800000D03*
X8400000Y4800000D03*
X7750000Y4800000D03*
D47*
X6725000Y5825000D03*
X6725000Y6475000D03*
X6725000Y7125000D03*
X6725000Y7775000D03*
D48*
X8725000Y6800000D03*
%TD*%
M02*
